<?xml version="1.0" encoding="UTF-8" standalone="no"?>
<!-- Created with Inkscape (http://www.inkscape.org/) -->

<svg
   width="12.682831mm"
   height="12.681941mm"
   viewBox="0 0 12.682831 12.681941"
   version="1.1"
   id="svg5"
   xml:space="preserve"
   inkscape:version="1.2 (dc2aedaf03, 2022-05-15)"
   sodipodi:docname="climate_indicators.svg"
   xmlns:inkscape="http://www.inkscape.org/namespaces/inkscape"
   xmlns:sodipodi="http://sodipodi.sourceforge.net/DTD/sodipodi-0.dtd"
   xmlns="http://www.w3.org/2000/svg"
   xmlns:svg="http://www.w3.org/2000/svg"><sodipodi:namedview
     id="namedview7"
     pagecolor="#ffffff"
     bordercolor="#000000"
     borderopacity="0.25"
     inkscape:showpageshadow="2"
     inkscape:pageopacity="0.0"
     inkscape:pagecheckerboard="0"
     inkscape:deskcolor="#d1d1d1"
     inkscape:document-units="mm"
     showgrid="false"
     inkscape:zoom="2"
     inkscape:cx="257.5"
     inkscape:cy="195.5"
     inkscape:window-width="1920"
     inkscape:window-height="986"
     inkscape:window-x="-11"
     inkscape:window-y="-11"
     inkscape:window-maximized="1"
     inkscape:current-layer="layer1"
     showguides="true" /><defs
     id="defs2"><clipPath
       clipPathUnits="userSpaceOnUse"
       id="clipPath704"><path
         d="M 0,0 H 841.89 V 595.276 H 0 Z"
         id="path702" /></clipPath><clipPath
       clipPathUnits="userSpaceOnUse"
       id="clipPath720"><path
         d="m 727.08,291.568 c 0,-9.995 8.102,-18.098 18.097,-18.098 v 0 c 9.994,0 18.097,8.103 18.097,18.098 v 0 c 0,9.994 -8.103,18.096 -18.097,18.096 v 0 c -9.995,0 -18.097,-8.102 -18.097,-18.096"
         id="path718" /></clipPath><clipPath
       clipPathUnits="userSpaceOnUse"
       id="clipPath768"><path
         d="M 0,0 H 841.89 V 595.276 H 0 Z"
         id="path766" /></clipPath></defs><g
     inkscape:label="Layer 1"
     inkscape:groupmode="layer"
     id="layer1"
     transform="translate(-127.64054,-56.090128)"><g
       id="g736"
       transform="translate(-23.843826,-51.169257)"><g
         id="g698"
         transform="matrix(0.34066565,0,0,-0.34065068,-96.030321,212.92292)"
         style="stroke-width:1.03558"><g
           id="g700"
           clip-path="url(#clipPath704)"
           style="stroke-width:1.03558"><g
             id="g706"
             transform="translate(696.8302,295.7056)"
             style="stroke-width:1.03558" /><g
             id="g710"
             transform="translate(745.1767,273.4707)"
             style="stroke-width:1.03558"><path
               d="m 0,0 c 9.995,0 18.097,8.102 18.097,18.097 0,9.994 -8.102,18.096 -18.097,18.096 -9.995,0 -18.097,-8.102 -18.097,-18.096 C -18.097,8.102 -9.995,0 0,0"
               style="fill:#f2f9fa;fill-opacity:1;fill-rule:nonzero;stroke:none;stroke-width:1.03558"
               id="path712" /></g></g></g><g
         id="g714"
         transform="matrix(0.34066565,0,0,-0.34065068,-96.030321,212.92292)"
         style="stroke-width:1.03558"><g
           id="g716"
           clip-path="url(#clipPath720)"
           style="stroke-width:1.03558"><g
             id="g722"
             transform="translate(763.8838,285.9693)"
             style="stroke-width:1.03558"><path
               d="m 0,0 c 0,0.279 -0.227,0.506 -0.506,0.506 h -23.511 v 3.443 l 0.783,1.383 3.604,0.381 c 0.277,0.03 0.478,0.28 0.449,0.557 -0.029,0.278 -0.279,0.48 -0.557,0.45 l -2.881,-0.305 0.881,1.554 3.191,1.625 c 0.249,0.126 0.349,0.431 0.221,0.68 -0.126,0.249 -0.431,0.348 -0.68,0.222 l -2.814,-1.433 -1.017,2.845 c -0.093,0.264 -0.383,0.4 -0.647,0.307 -0.263,-0.094 -0.399,-0.384 -0.305,-0.647 l 1.131,-3.169 -1.977,-3.488 -2.175,2.175 0.907,3.297 c 0.074,0.269 -0.084,0.549 -0.353,0.623 -0.269,0.074 -0.548,-0.084 -0.622,-0.355 L -27.715,7.613 -30.8,8.822 c -0.26,0.102 -0.554,-0.026 -0.656,-0.286 -0.102,-0.26 0.026,-0.555 0.287,-0.656 l 3.509,-1.376 2.631,-2.631 V 0.506 h -13.043 c -0.279,0 -0.506,-0.227 -0.506,-0.506 0,-0.279 0.227,-0.506 0.506,-0.506 h 7.446 l 2.464,-3.626 -2.327,-1.298 h -2.457 v -1.012 h 2.313 l 0.94,-1.454 c 0.152,-0.235 0.466,-0.302 0.7,-0.15 0.234,0.151 0.302,0.464 0.15,0.699 l -0.796,1.232 2.357,1.315 h 5.313 c 0.03,0 0.06,0.003 0.09,0.008 l 4.387,-1.399 -0.896,-1.469 c -0.145,-0.239 -0.07,-0.549 0.168,-0.695 0.239,-0.146 0.551,-0.07 0.696,0.168 l 1.085,1.778 6.611,2.102 2.347,-0.973 0.735,-2.485 c 0.079,-0.268 0.36,-0.421 0.628,-0.342 0.268,0.079 0.421,0.361 0.342,0.629 l -0.611,2.067 h 1.78 c 0.28,0 0.506,0.227 0.506,0.506 0,0.28 -0.226,0.506 -0.506,0.506 h -2.357 l -2.39,0.99 -2.025,2.903 H -0.506 C -0.227,-0.506 0,-0.279 0,0 m -19.763,-0.506 -2.459,-3.282 h -4.95 c 0,0 -1.426,2.098 -2.23,3.282 z m 7.149,0 2.071,-2.967 -6.082,-1.932 -4.475,1.427 2.601,3.472 z"
               style="fill:#007d9e;fill-opacity:1;fill-rule:nonzero;stroke:none;stroke-width:1.03558"
               id="path724" /></g><g
             id="g726"
             transform="translate(751.4951,295.2918)"
             style="stroke-width:1.03558"><path
               d="m 0,0 v -0.664 c 0,-0.279 0.227,-0.506 0.506,-0.506 0.279,0 0.506,0.227 0.506,0.506 V 0 C 1.012,0.279 0.785,0.506 0.506,0.506 0.227,0.506 0,0.279 0,0"
               style="fill:#007d9e;fill-opacity:1;fill-rule:nonzero;stroke:none;stroke-width:1.03558"
               id="path728" /></g><g
             id="g730"
             transform="translate(754.8199,296.2492)"
             style="stroke-width:1.03558"><path
               d="m 0,0 0.469,-0.47 c 0.197,-0.197 0.518,-0.197 0.715,0 0.199,0.198 0.199,0.519 0,0.716 L 0.716,0.716 C 0.518,0.913 0.197,0.913 0,0.716 -0.197,0.518 -0.197,0.197 0,0"
               style="fill:#007d9e;fill-opacity:1;fill-rule:nonzero;stroke:none;stroke-width:1.03558"
               id="path732" /></g><g
             id="g734"
             transform="translate(748.4669,296.9648)"
             style="stroke-width:1.03558"><path
               d="m 0,0 -0.469,-0.47 c -0.197,-0.197 -0.197,-0.518 0,-0.715 0.198,-0.198 0.519,-0.198 0.716,0 l 0.47,0.469 C 0.914,-0.518 0.914,-0.197 0.717,0 0.518,0.197 0.198,0.197 0,0"
               style="fill:#007d9e;fill-opacity:1;fill-rule:nonzero;stroke:none;stroke-width:1.03558"
               id="path736" /></g><g
             id="g738"
             transform="translate(754.8492,299.7835)"
             style="stroke-width:1.03558"><path
               d="M 0,0 C 0,1.572 -1.276,2.848 -2.848,2.848 -4.42,2.848 -5.696,1.572 -5.696,0 c 0,-1.572 1.276,-2.848 2.848,-2.848 C -1.276,-2.848 0,-1.572 0,0 m -1.012,0 c 0,-1.013 -0.823,-1.836 -1.836,-1.836 -1.013,0 -1.836,0.823 -1.836,1.836 0,1.013 0.823,1.836 1.836,1.836 1.013,0 1.836,-0.823 1.836,-1.836"
               style="fill:#007d9e;fill-opacity:1;fill-rule:nonzero;stroke:none;stroke-width:1.03558"
               id="path740" /></g><g
             id="g742"
             transform="translate(747.5094,300.2896)"
             style="stroke-width:1.03558"><path
               d="m 0,0 h -0.664 c -0.279,0 -0.506,-0.227 -0.506,-0.506 0,-0.279 0.227,-0.506 0.506,-0.506 H 0 c 0.279,0 0.506,0.227 0.506,0.506 C 0.506,-0.227 0.279,0 0,0"
               style="fill:#007d9e;fill-opacity:1;fill-rule:nonzero;stroke:none;stroke-width:1.03558"
               id="path744" /></g><g
             id="g746"
             transform="translate(756.4929,299.2774)"
             style="stroke-width:1.03558"><path
               d="M 0,0 H 0.664 C 0.943,0 1.17,0.227 1.17,0.506 1.17,0.785 0.943,1.012 0.664,1.012 H 0 C -0.279,1.012 -0.506,0.785 -0.506,0.506 -0.506,0.227 -0.279,0 0,0"
               style="fill:#007d9e;fill-opacity:1;fill-rule:nonzero;stroke:none;stroke-width:1.03558"
               id="path748" /></g><g
             id="g750"
             transform="translate(749.1834,303.3168)"
             style="stroke-width:1.03558"><path
               d="m 0,0 -0.47,0.47 c -0.197,0.197 -0.518,0.197 -0.715,0 -0.198,-0.198 -0.198,-0.519 0,-0.716 l 0.468,-0.47 c 0.199,-0.197 0.519,-0.197 0.717,0 0.197,0.198 0.197,0.519 0,0.716"
               style="fill:#007d9e;fill-opacity:1;fill-rule:nonzero;stroke:none;stroke-width:1.03558"
               id="path752" /></g><g
             id="g754"
             transform="translate(755.5354,302.6012)"
             style="stroke-width:1.03558"><path
               d="m 0,0 0.469,0.47 c 0.198,0.197 0.198,0.518 0,0.715 -0.198,0.198 -0.519,0.198 -0.716,0 L -0.716,0.716 C -0.913,0.518 -0.913,0.197 -0.716,0 -0.518,-0.197 -0.197,-0.197 0,0"
               style="fill:#007d9e;fill-opacity:1;fill-rule:nonzero;stroke:none;stroke-width:1.03558"
               id="path756" /></g><g
             id="g758"
             transform="translate(752.5072,304.2752)"
             style="stroke-width:1.03558"><path
               d="m 0,0 v 0.663 c 0,0.279 -0.227,0.506 -0.506,0.506 -0.279,0 -0.506,-0.227 -0.506,-0.506 V 0 c 0,-0.279 0.227,-0.506 0.506,-0.506 C -0.227,-0.506 0,-0.279 0,0"
               style="fill:#007d9e;fill-opacity:1;fill-rule:nonzero;stroke:none;stroke-width:1.03558"
               id="path760" /></g></g></g><g
         id="g762"
         transform="matrix(0.34066565,0,0,-0.34065068,-96.030321,212.92292)"
         style="stroke-width:1.03558"><g
           id="g764"
           clip-path="url(#clipPath768)"
           style="stroke-width:1.03558"><g
             id="g770"
             transform="translate(745.1767,273.4707)"
             style="stroke-width:1.03558"><path
               d="m 0,0 c 9.995,0 18.097,8.102 18.097,18.097 0,9.994 -8.102,18.096 -18.097,18.096 -9.995,0 -18.097,-8.102 -18.097,-18.096 C -18.097,8.102 -9.995,0 0,0 Z"
               style="fill:none;stroke:#007d9e;stroke-width:1.03558;stroke-linecap:butt;stroke-linejoin:miter;stroke-miterlimit:4;stroke-dasharray:none;stroke-opacity:1"
               id="path772" /></g></g></g></g></g></svg>
