<?xml version="1.0" encoding="UTF-8" standalone="no"?>
<!-- Created with Inkscape (http://www.inkscape.org/) -->

<svg
   width="12.68284mm"
   height="12.681941mm"
   viewBox="0 0 12.682841 12.681941"
   version="1.1"
   id="svg5"
   xml:space="preserve"
   inkscape:version="1.2 (dc2aedaf03, 2022-05-15)"
   sodipodi:docname="climate_indicators.svg"
   xmlns:inkscape="http://www.inkscape.org/namespaces/inkscape"
   xmlns:sodipodi="http://sodipodi.sourceforge.net/DTD/sodipodi-0.dtd"
   xmlns="http://www.w3.org/2000/svg"
   xmlns:svg="http://www.w3.org/2000/svg"><sodipodi:namedview
     id="namedview7"
     pagecolor="#ffffff"
     bordercolor="#000000"
     borderopacity="0.25"
     inkscape:showpageshadow="2"
     inkscape:pageopacity="0.0"
     inkscape:pagecheckerboard="0"
     inkscape:deskcolor="#d1d1d1"
     inkscape:document-units="mm"
     showgrid="false"
     inkscape:zoom="2"
     inkscape:cx="257.5"
     inkscape:cy="195.5"
     inkscape:window-width="1920"
     inkscape:window-height="986"
     inkscape:window-x="-11"
     inkscape:window-y="-11"
     inkscape:window-maximized="1"
     inkscape:current-layer="layer1"
     showguides="true" /><defs
     id="defs2"><clipPath
       clipPathUnits="userSpaceOnUse"
       id="clipPath334"><path
         d="M 0,0 H 841.89 V 595.276 H 0 Z"
         id="path332" /></clipPath><clipPath
       clipPathUnits="userSpaceOnUse"
       id="clipPath350"><path
         d="m 604.847,169.68 c 0,-9.995 8.102,-18.097 18.096,-18.097 v 0 c 9.995,0 18.097,8.102 18.097,18.097 v 0 c 0,9.994 -8.102,18.096 -18.097,18.096 v 0 c -9.994,0 -18.096,-8.102 -18.096,-18.096"
         id="path348" /></clipPath><clipPath
       clipPathUnits="userSpaceOnUse"
       id="clipPath370"><path
         d="M 0,0 H 841.89 V 595.276 H 0 Z"
         id="path368" /></clipPath></defs><g
     inkscape:label="Layer 1"
     inkscape:groupmode="layer"
     id="layer1"
     transform="translate(-56.878715,-56.090132)"><g
       id="g8905"
       transform="translate(-52.964997,-101.15705)"><g
         id="g328"
         transform="matrix(0.34066565,0,0,-0.34065068,-96.030321,221.38959)"
         style="stroke-width:1.03558"><g
           id="g330"
           clip-path="url(#clipPath334)"
           style="stroke-width:1.03558"><g
             id="g336"
             transform="translate(574.597,172.8833)"
             style="stroke-width:1.03558" /><g
             id="g340"
             transform="translate(622.9435,151.583)"
             style="stroke-width:1.03558"><path
               d="m 0,0 c 9.995,0 18.097,8.102 18.097,18.097 0,9.994 -8.102,18.096 -18.097,18.096 -9.995,0 -18.097,-8.102 -18.097,-18.096 C -18.097,8.102 -9.995,0 0,0"
               style="fill:#f2f9fa;fill-opacity:1;fill-rule:nonzero;stroke:none;stroke-width:1.03558"
               id="path342" /></g></g></g><g
         id="g344"
         transform="matrix(0.34066565,0,0,-0.34065068,-96.030321,221.38959)"
         style="stroke-width:1.03558"><g
           id="g346"
           clip-path="url(#clipPath350)"
           style="stroke-width:1.03558"><g
             id="g352"
             transform="translate(606.5558,156.3196)"
             style="stroke-width:1.03558"><path
               d="m 0,0 c 1.328,0 2.318,-0.691 3.285,-1.221 0.794,-0.436 1.577,-0.78 2.444,-0.78 0.866,0 1.65,0.344 2.444,0.78 C 9.14,-0.691 10.13,0 11.458,0 c 1.327,0 2.316,-0.691 3.283,-1.221 0.796,-0.436 1.578,-0.78 2.444,-0.78 0.867,0 1.65,0.344 2.444,0.78 0.968,0.53 1.957,1.221 3.285,1.221 1.327,0 2.318,-0.691 3.285,-1.221 0.794,-0.436 1.577,-0.78 2.444,-0.78 0.865,0 1.649,0.344 2.444,0.78 0.966,0.53 1.957,1.221 3.284,1.221 0.338,0 0.613,0.275 0.613,0.614 0,0.339 -0.275,0.614 -0.613,0.614 -1.317,0 -2.371,-0.531 -3.349,-1.079 -0.798,-0.446 -1.527,-0.922 -2.379,-0.922 -0.852,0 -1.582,0.476 -2.379,0.922 -0.98,0.548 -2.031,1.079 -3.35,1.079 -1.318,0 -2.37,-0.531 -3.35,-1.079 -0.796,-0.446 -1.527,-0.922 -2.379,-0.922 -0.852,0 -1.582,0.476 -2.379,0.922 -0.978,0.548 -2.031,1.079 -3.348,1.079 -1.319,0 -2.372,-0.531 -3.35,-1.079 C 7.311,-0.297 6.581,-0.773 5.729,-0.773 4.877,-0.773 4.147,-0.297 3.35,0.149 2.37,0.697 1.318,1.228 0,1.228 -0.339,1.228 -0.614,0.953 -0.614,0.614 -0.614,0.275 -0.339,0 0,0"
               style="fill:#007d9e;fill-opacity:1;fill-rule:nonzero;stroke:none;stroke-width:1.03558"
               id="path354" /></g><g
             id="g356"
             transform="translate(606.5558,160.8528)"
             style="stroke-width:1.03558"><path
               d="m 0,0 c 1.328,0 2.318,-0.691 3.285,-1.221 0.794,-0.436 1.577,-0.78 2.444,-0.78 0.866,0 1.65,0.344 2.444,0.78 C 9.14,-0.691 10.13,0 11.458,0 c 1.327,0 2.316,-0.691 3.283,-1.221 0.796,-0.436 1.578,-0.78 2.444,-0.78 0.867,0 1.65,0.344 2.444,0.78 0.968,0.53 1.957,1.221 3.285,1.221 1.327,0 2.318,-0.691 3.285,-1.221 0.794,-0.436 1.577,-0.78 2.444,-0.78 0.865,0 1.649,0.344 2.444,0.78 0.966,0.53 1.957,1.221 3.284,1.221 0.338,0 0.613,0.275 0.613,0.614 0,0.337 -0.275,0.614 -0.613,0.614 -1.317,0 -2.371,-0.531 -3.349,-1.079 -0.798,-0.447 -1.527,-0.922 -2.379,-0.922 -0.852,0 -1.582,0.475 -2.379,0.922 -0.98,0.548 -2.031,1.079 -3.35,1.079 -1.318,0 -2.37,-0.531 -3.35,-1.079 -0.796,-0.447 -1.527,-0.922 -2.379,-0.922 -0.852,0 -1.582,0.475 -2.379,0.922 -0.978,0.548 -2.031,1.079 -3.348,1.079 -1.319,0 -2.372,-0.531 -3.35,-1.079 C 7.311,-0.298 6.581,-0.773 5.729,-0.773 4.877,-0.773 4.147,-0.298 3.35,0.149 2.37,0.697 1.318,1.228 0,1.228 -0.339,1.228 -0.614,0.951 -0.614,0.614 -0.614,0.275 -0.339,0 0,0"
               style="fill:#007d9e;fill-opacity:1;fill-rule:nonzero;stroke:none;stroke-width:1.03558"
               id="path358" /></g><g
             id="g360"
             transform="translate(641.5402,165.9989)"
             style="stroke-width:1.03558"><path
               d="m 0,0 c 0,0.339 -0.275,0.614 -0.614,0.614 -1.317,0 -2.37,-0.531 -3.349,-1.079 -0.797,-0.446 -1.527,-0.922 -2.378,-0.922 -0.852,0 -1.583,0.476 -2.379,0.922 -0.417,0.233 -0.845,0.462 -1.3,0.649 l 1.211,4.522 0.808,-1.096 c 0.201,-0.273 0.586,-0.33 0.858,-0.129 0.272,0.2 0.33,0.585 0.13,0.858 l -7.287,9.88 c -0.17,0.231 -0.477,0.313 -0.74,0.198 L -26.29,9.504 c -0.31,-0.136 -0.453,-0.498 -0.316,-0.809 0.135,-0.31 0.497,-0.451 0.807,-0.316 l 1.247,0.545 -2.549,-9.516 c -0.712,-0.405 -1.384,-0.795 -2.154,-0.795 -0.852,0 -1.583,0.476 -2.379,0.922 -0.98,0.548 -2.032,1.079 -3.35,1.079 -0.339,0 -0.614,-0.275 -0.614,-0.614 0,-0.339 0.275,-0.614 0.614,-0.614 1.328,0 2.317,-0.69 3.285,-1.22 0.794,-0.436 1.577,-0.781 2.444,-0.781 0.866,0 1.649,0.345 2.444,0.781 0.967,0.53 1.956,1.22 3.284,1.22 1.327,0 2.317,-0.69 3.284,-1.22 0.795,-0.436 1.578,-0.781 2.444,-0.781 0.866,0 1.65,0.345 2.444,0.781 0.967,0.53 1.957,1.22 3.285,1.22 1.327,0 2.317,-0.69 3.285,-1.22 0.794,-0.436 1.577,-0.781 2.444,-0.781 0.865,0 1.648,0.345 2.444,0.781 0.966,0.53 1.956,1.22 3.283,1.22 C -0.275,-0.614 0,-0.339 0,0 m -20.513,-0.28 1.289,4.81 3.605,-0.966 -1.282,-4.784 c -0.289,-0.103 -0.585,-0.167 -0.898,-0.167 -0.852,0 -1.582,0.476 -2.379,0.922 -0.11,0.062 -0.222,0.123 -0.335,0.185 m 9.316,0.815 c -0.279,0.05 -0.569,0.079 -0.873,0.079 -1.319,0 -2.371,-0.531 -3.35,-1.079 l -0.009,-0.005 1.154,4.309 c 0.089,0.328 -0.105,0.664 -0.433,0.753 l -4.791,1.284 c -0.328,0.087 -0.664,-0.107 -0.752,-0.435 l -1.391,-5.192 c -0.573,0.218 -1.194,0.365 -1.885,0.365 -0.78,0 -1.468,-0.186 -2.101,-0.451 l 2.515,9.389 8.116,3.544 5.255,-7.127 z"
               style="fill:#007d9e;fill-opacity:1;fill-rule:nonzero;stroke:none;stroke-width:1.03558"
               id="path362" /></g></g></g><g
         id="g364"
         transform="matrix(0.34066565,0,0,-0.34065068,-96.030321,221.38959)"
         style="stroke-width:1.03558"><g
           id="g366"
           clip-path="url(#clipPath370)"
           style="stroke-width:1.03558"><g
             id="g372"
             transform="translate(622.9435,151.583)"
             style="stroke-width:1.03558"><path
               d="m 0,0 c 9.995,0 18.097,8.102 18.097,18.097 0,9.994 -8.102,18.096 -18.097,18.096 -9.995,0 -18.097,-8.102 -18.097,-18.096 C -18.097,8.102 -9.995,0 0,0 Z"
               style="fill:none;stroke:#007d9e;stroke-width:1.03558;stroke-linecap:butt;stroke-linejoin:miter;stroke-miterlimit:4;stroke-dasharray:none;stroke-opacity:1"
               id="path374" /></g></g></g></g></g></svg>
