<?xml version="1.0" encoding="UTF-8" standalone="no"?>
<!-- Created with Inkscape (http://www.inkscape.org/) -->

<svg
   width="12.682839mm"
   height="12.681941mm"
   viewBox="0 0 12.682839 12.681941"
   version="1.1"
   id="svg5"
   xml:space="preserve"
   inkscape:version="1.2 (dc2aedaf03, 2022-05-15)"
   sodipodi:docname="overall_climate.svg"
   xmlns:inkscape="http://www.inkscape.org/namespaces/inkscape"
   xmlns:sodipodi="http://sodipodi.sourceforge.net/DTD/sodipodi-0.dtd"
   xmlns="http://www.w3.org/2000/svg"
   xmlns:svg="http://www.w3.org/2000/svg"><sodipodi:namedview
     id="namedview7"
     pagecolor="#ffffff"
     bordercolor="#000000"
     borderopacity="0.25"
     inkscape:showpageshadow="2"
     inkscape:pageopacity="0.0"
     inkscape:pagecheckerboard="0"
     inkscape:deskcolor="#d1d1d1"
     inkscape:document-units="mm"
     showgrid="false"
     inkscape:zoom="4.38123"
     inkscape:cx="57.632218"
     inkscape:cy="40.627861"
     inkscape:window-width="1920"
     inkscape:window-height="1017"
     inkscape:window-x="1912"
     inkscape:window-y="-8"
     inkscape:window-maximized="1"
     inkscape:current-layer="layer1" /><defs
     id="defs2"><pattern
       id="EMFhbasepattern"
       patternUnits="userSpaceOnUse"
       width="6"
       height="6"
       x="0"
       y="0" /><clipPath
       clipPathUnits="userSpaceOnUse"
       id="clipPath8713"><path
         d="m -620.86459,-307.16551 h 841.88998 v 595.276 h -841.88998 z"
         id="path8715"
         style="stroke-width:1" /></clipPath><clipPath
       clipPathUnits="userSpaceOnUse"
       id="clipPath8709"><path
         d="m -620.86459,-307.16551 h 841.88998 v 595.276 h -841.88998 z"
         id="path8711"
         style="stroke-width:1" /></clipPath><clipPath
       clipPathUnits="userSpaceOnUse"
       id="clipPath8705"><path
         d="m -629.4885,-328.3559 h 841.88998 v 595.276 H -629.4885 Z"
         id="path8707"
         style="stroke-width:1" /></clipPath><clipPath
       clipPathUnits="userSpaceOnUse"
       id="clipPath8701"><path
         d="m -622.91561,-316.3423 h 841.88999 v 595.276 h -841.88999 z"
         id="path8703"
         style="stroke-width:1" /></clipPath><clipPath
       clipPathUnits="userSpaceOnUse"
       id="clipPath8697"><path
         d="M -626.12189,-321.7068 H 215.7681 v 595.276 h -841.88999 z"
         id="path8699"
         style="stroke-width:1" /></clipPath><clipPath
       clipPathUnits="userSpaceOnUse"
       id="clipPath8693"><path
         d="m -613.6722,-321.35251 h 841.88998 v 595.276 H -613.6722 Z"
         id="path8695"
         style="stroke-width:1" /></clipPath><clipPath
       clipPathUnits="userSpaceOnUse"
       id="clipPath8689"><path
         d="m -628.95951,-323.60109 h 841.88999 v 595.276 h -841.88999 z"
         id="path8691"
         style="stroke-width:1" /></clipPath><clipPath
       clipPathUnits="userSpaceOnUse"
       id="clipPath8685"><path
         d="M -613.6722,-324.40482 H 228.21778 V 270.87119 H -613.6722 Z"
         id="path8687"
         style="stroke-width:1" /></clipPath><clipPath
       clipPathUnits="userSpaceOnUse"
       id="clipPath8681"><path
         d="m -630.59261,-326.66111 h 841.88999 v 595.276 h -841.88999 z"
         id="path8683"
         style="stroke-width:1" /></clipPath><clipPath
       clipPathUnits="userSpaceOnUse"
       id="clipPath8677"><path
         d="m -613.6722,-327.45809 h 841.88998 v 595.276 H -613.6722 Z"
         id="path8679"
         style="stroke-width:1" /></clipPath><clipPath
       clipPathUnits="userSpaceOnUse"
       id="clipPath8673"><path
         d="M -630.55268,-330.20269 H 211.3373 v 595.276 h -841.88998 z"
         id="path8675"
         style="stroke-width:1" /></clipPath><clipPath
       clipPathUnits="userSpaceOnUse"
       id="clipPath8669"><path
         d="m -613.6722,-330.51051 h 841.88998 v 595.276 H -613.6722 Z"
         id="path8671"
         style="stroke-width:1" /></clipPath><clipPath
       clipPathUnits="userSpaceOnUse"
       id="clipPath8665"><path
         d="M -628.68499,-333.3947 H 213.205 v 595.276 h -841.88999 z"
         id="path8667"
         style="stroke-width:1" /></clipPath><clipPath
       clipPathUnits="userSpaceOnUse"
       id="clipPath8661"><path
         d="m -613.6722,-333.56279 h 841.88998 v 595.276 H -613.6722 Z"
         id="path8663"
         style="stroke-width:1" /></clipPath><clipPath
       clipPathUnits="userSpaceOnUse"
       id="clipPath8657"><path
         d="M -626.01838,-335.04011 H 215.8716 v 595.276 h -841.88998 z"
         id="path8659"
         style="stroke-width:1" /></clipPath><clipPath
       clipPathUnits="userSpaceOnUse"
       id="clipPath9899"><path
         d="M -744.39078,-457.3059 H 97.499204 v 595.276 H -744.39078 Z"
         id="path9901"
         style="stroke-width:1" /></clipPath><clipPath
       clipPathUnits="userSpaceOnUse"
       id="clipPath9887"><path
         d="M -744.39078,-457.3059 H 97.499204 v 595.276 H -744.39078 Z"
         id="path9889"
         style="stroke-width:1" /></clipPath><clipPath
       clipPathUnits="userSpaceOnUse"
       id="clipPath9893"><path
         d="M -744.54601,-469.8608 H 97.343978 v 595.276 H -744.54601 Z"
         id="path9895"
         style="stroke-width:1" /></clipPath><clipPath
       clipPathUnits="userSpaceOnUse"
       id="clipPath9905"><path
         d="m -740.33581,-469.8608 h 841.88999 v 595.276 h -841.88999 z"
         id="path9907"
         style="stroke-width:1" /></clipPath><clipPath
       clipPathUnits="userSpaceOnUse"
       id="clipPath9869"><path
         d="M -748.7459,-469.8608 H 93.144083 v 595.276 H -748.7459 Z"
         id="path9871"
         style="stroke-width:1" /></clipPath><clipPath
       clipPathUnits="userSpaceOnUse"
       id="clipPath9875"><path
         d="M -743.8858,-473.7708 H 98.004186 v 595.276 H -743.8858 Z"
         id="path9877"
         style="stroke-width:1" /></clipPath><clipPath
       clipPathUnits="userSpaceOnUse"
       id="clipPath9881"><path
         d="M -747.0757,-474.3559 H 94.814284 v 595.276 H -747.0757 Z"
         id="path9883"
         style="stroke-width:1" /></clipPath><clipPath
       clipPathUnits="userSpaceOnUse"
       id="clipPath9929"><path
         d="m -740.8358,-474.8559 h 841.88998 v 595.276 H -740.8358 Z"
         id="path9931"
         style="stroke-width:1" /></clipPath><clipPath
       clipPathUnits="userSpaceOnUse"
       id="clipPath9911"><path
         d="M -749.26589,-480.0069 H 92.624101 v 595.276 H -749.26589 Z"
         id="path9913"
         style="stroke-width:1" /></clipPath><clipPath
       clipPathUnits="userSpaceOnUse"
       id="clipPath9947"><path
         d="M -749.53589,-476.4558 H 92.3541 v 595.276 h -841.88999 z"
         id="path9949"
         style="stroke-width:1" /></clipPath><clipPath
       clipPathUnits="userSpaceOnUse"
       id="clipPath9965"><path
         d="M -738.73588,-477.3218 H 103.1541 v 595.276 h -841.88998 z"
         id="path9967"
         style="stroke-width:1" /></clipPath><clipPath
       clipPathUnits="userSpaceOnUse"
       id="clipPath9923"><path
         d="M -750.62581,-479.5069 H 91.264175 v 595.276 H -750.62581 Z"
         id="path9925"
         style="stroke-width:1" /></clipPath><clipPath
       clipPathUnits="userSpaceOnUse"
       id="clipPath9971"><path
         d="M -738.15578,-480.5069 H 103.7342 v 595.276 h -841.88998 z"
         id="path9973"
         style="stroke-width:1" /></clipPath><clipPath
       clipPathUnits="userSpaceOnUse"
       id="clipPath9959"><path
         d="m -739.2359,-483.5589 h 841.88998 v 595.276 H -739.2359 Z"
         id="path9961"
         style="stroke-width:1" /></clipPath><clipPath
       clipPathUnits="userSpaceOnUse"
       id="clipPath9935"><path
         d="M -750.03591,-482.6928 H 91.854079 v 595.276 H -750.03591 Z"
         id="path9937"
         style="stroke-width:1" /></clipPath><clipPath
       clipPathUnits="userSpaceOnUse"
       id="clipPath9917"><path
         d="m -741.70589,-485.6579 h 841.88998 v 595.276 h -841.88998 z"
         id="path9919"
         style="stroke-width:1" /></clipPath><clipPath
       clipPathUnits="userSpaceOnUse"
       id="clipPath9941"><path
         d="M -747.93578,-485.1579 H 93.954203 v 595.276 H -747.93578 Z"
         id="path9943"
         style="stroke-width:1" /></clipPath><clipPath
       clipPathUnits="userSpaceOnUse"
       id="clipPath9953"><path
         d="M -744.88578,-486.2439 H 97.004202 v 595.276 H -744.88578 Z"
         id="path9955"
         style="stroke-width:1" /></clipPath><pattern
       id="EMFhbasepattern-2"
       patternUnits="userSpaceOnUse"
       width="6"
       height="6"
       x="0"
       y="0" /><clipPath
       clipPathUnits="userSpaceOnUse"
       id="clipPath9875-4"><path
         d="M -743.8858,-473.7708 H 98.004186 v 595.276 H -743.8858 Z"
         id="path9877-4"
         style="stroke-width:1" /></clipPath><clipPath
       clipPathUnits="userSpaceOnUse"
       id="clipPath9881-1"><path
         d="M -747.0757,-474.3559 H 94.814284 v 595.276 H -747.0757 Z"
         id="path9883-9"
         style="stroke-width:1" /></clipPath><clipPath
       clipPathUnits="userSpaceOnUse"
       id="clipPath9929-5"><path
         d="m -740.8358,-474.8559 h 841.88998 v 595.276 H -740.8358 Z"
         id="path9931-7"
         style="stroke-width:1" /></clipPath><clipPath
       clipPathUnits="userSpaceOnUse"
       id="clipPath9911-5"><path
         d="M -749.26589,-480.0069 H 92.624101 v 595.276 H -749.26589 Z"
         id="path9913-2"
         style="stroke-width:1" /></clipPath><clipPath
       clipPathUnits="userSpaceOnUse"
       id="clipPath9947-5"><path
         d="M -749.53589,-476.4558 H 92.3541 v 595.276 h -841.88999 z"
         id="path9949-5"
         style="stroke-width:1" /></clipPath><clipPath
       clipPathUnits="userSpaceOnUse"
       id="clipPath9965-7"><path
         d="M -738.73588,-477.3218 H 103.1541 v 595.276 h -841.88998 z"
         id="path9967-7"
         style="stroke-width:1" /></clipPath><clipPath
       clipPathUnits="userSpaceOnUse"
       id="clipPath9923-0"><path
         d="M -750.62581,-479.5069 H 91.264175 v 595.276 H -750.62581 Z"
         id="path9925-0"
         style="stroke-width:1" /></clipPath><clipPath
       clipPathUnits="userSpaceOnUse"
       id="clipPath9971-0"><path
         d="M -738.15578,-480.5069 H 103.7342 v 595.276 h -841.88998 z"
         id="path9973-5"
         style="stroke-width:1" /></clipPath><clipPath
       clipPathUnits="userSpaceOnUse"
       id="clipPath9959-8"><path
         d="m -739.2359,-483.5589 h 841.88998 v 595.276 H -739.2359 Z"
         id="path9961-5"
         style="stroke-width:1" /></clipPath><clipPath
       clipPathUnits="userSpaceOnUse"
       id="clipPath9935-0"><path
         d="M -750.03591,-482.6928 H 91.854079 v 595.276 H -750.03591 Z"
         id="path9937-6"
         style="stroke-width:1" /></clipPath><clipPath
       clipPathUnits="userSpaceOnUse"
       id="clipPath9917-6"><path
         d="m -741.70589,-485.6579 h 841.88998 v 595.276 h -841.88998 z"
         id="path9919-9"
         style="stroke-width:1" /></clipPath><clipPath
       clipPathUnits="userSpaceOnUse"
       id="clipPath9941-4"><path
         d="M -747.93578,-485.1579 H 93.954203 v 595.276 H -747.93578 Z"
         id="path9943-6"
         style="stroke-width:1" /></clipPath><clipPath
       clipPathUnits="userSpaceOnUse"
       id="clipPath9953-9"><path
         d="M -744.88578,-486.2439 H 97.004202 v 595.276 H -744.88578 Z"
         id="path9955-0"
         style="stroke-width:1" /></clipPath><clipPath
       clipPathUnits="userSpaceOnUse"
       id="clipPath8713-0"><path
         d="m -620.86459,-307.16551 h 841.88998 v 595.276 h -841.88998 z"
         id="path8715-8"
         style="stroke-width:1" /></clipPath><clipPath
       clipPathUnits="userSpaceOnUse"
       id="clipPath8709-9"><path
         d="m -620.86459,-307.16551 h 841.88998 v 595.276 h -841.88998 z"
         id="path8711-4"
         style="stroke-width:1" /></clipPath><clipPath
       clipPathUnits="userSpaceOnUse"
       id="clipPath8701-0"><path
         d="m -622.91561,-316.3423 h 841.88999 v 595.276 h -841.88999 z"
         id="path8703-6"
         style="stroke-width:1" /></clipPath><clipPath
       clipPathUnits="userSpaceOnUse"
       id="clipPath8697-7"><path
         d="M -626.12189,-321.7068 H 215.7681 v 595.276 h -841.88999 z"
         id="path8699-5"
         style="stroke-width:1" /></clipPath><clipPath
       clipPathUnits="userSpaceOnUse"
       id="clipPath8693-2"><path
         d="m -613.6722,-321.35251 h 841.88998 v 595.276 H -613.6722 Z"
         id="path8695-5"
         style="stroke-width:1" /></clipPath><clipPath
       clipPathUnits="userSpaceOnUse"
       id="clipPath8689-3"><path
         d="m -628.95951,-323.60109 h 841.88999 v 595.276 h -841.88999 z"
         id="path8691-3"
         style="stroke-width:1" /></clipPath><clipPath
       clipPathUnits="userSpaceOnUse"
       id="clipPath8685-3"><path
         d="M -613.6722,-324.40482 H 228.21778 V 270.87119 H -613.6722 Z"
         id="path8687-0"
         style="stroke-width:1" /></clipPath><clipPath
       clipPathUnits="userSpaceOnUse"
       id="clipPath8681-2"><path
         d="m -630.59261,-326.66111 h 841.88999 v 595.276 h -841.88999 z"
         id="path8683-1"
         style="stroke-width:1" /></clipPath><clipPath
       clipPathUnits="userSpaceOnUse"
       id="clipPath8677-4"><path
         d="m -613.6722,-327.45809 h 841.88998 v 595.276 H -613.6722 Z"
         id="path8679-6"
         style="stroke-width:1" /></clipPath><clipPath
       clipPathUnits="userSpaceOnUse"
       id="clipPath8673-4"><path
         d="M -630.55268,-330.20269 H 211.3373 v 595.276 h -841.88998 z"
         id="path8675-5"
         style="stroke-width:1" /></clipPath><clipPath
       clipPathUnits="userSpaceOnUse"
       id="clipPath8669-3"><path
         d="m -613.6722,-330.51051 h 841.88998 v 595.276 H -613.6722 Z"
         id="path8671-1"
         style="stroke-width:1" /></clipPath><clipPath
       clipPathUnits="userSpaceOnUse"
       id="clipPath8665-8"><path
         d="M -628.68499,-333.3947 H 213.205 v 595.276 h -841.88999 z"
         id="path8667-8"
         style="stroke-width:1" /></clipPath><clipPath
       clipPathUnits="userSpaceOnUse"
       id="clipPath8661-5"><path
         d="m -613.6722,-333.56279 h 841.88998 v 595.276 H -613.6722 Z"
         id="path8663-6"
         style="stroke-width:1" /></clipPath><clipPath
       clipPathUnits="userSpaceOnUse"
       id="clipPath8657-0"><path
         d="M -626.01838,-335.04011 H 215.8716 v 595.276 h -841.88998 z"
         id="path8659-1"
         style="stroke-width:1" /></clipPath><clipPath
       clipPathUnits="userSpaceOnUse"
       id="clipPath5472"><path
         d="M -629.4885,-328.35592 H 212.40153 V 266.92005 H -629.4885 Z"
         id="path5474"
         style="stroke-width:1" /></clipPath><clipPath
       clipPathUnits="userSpaceOnUse"
       id="clipPath5472-4"><path
         d="M -629.4885,-328.35592 H 212.40153 V 266.92005 H -629.4885 Z"
         id="path5474-6"
         style="stroke-width:1" /></clipPath><clipPath
       clipPathUnits="userSpaceOnUse"
       id="clipPath8701-0-5"><path
         d="m -622.91561,-316.3423 h 841.88999 v 595.276 h -841.88999 z"
         id="path8703-6-6"
         style="stroke-width:1" /></clipPath><clipPath
       clipPathUnits="userSpaceOnUse"
       id="clipPath8693-2-2"><path
         d="m -613.6722,-321.35251 h 841.88998 v 595.276 H -613.6722 Z"
         id="path8695-5-8"
         style="stroke-width:1" /></clipPath><clipPath
       clipPathUnits="userSpaceOnUse"
       id="clipPath8685-3-7"><path
         d="M -613.6722,-324.40482 H 228.21778 V 270.87119 H -613.6722 Z"
         id="path8687-0-8"
         style="stroke-width:1" /></clipPath><clipPath
       clipPathUnits="userSpaceOnUse"
       id="clipPath8677-4-1"><path
         d="m -613.6722,-327.45809 h 841.88998 v 595.276 H -613.6722 Z"
         id="path8679-6-4"
         style="stroke-width:1" /></clipPath><clipPath
       clipPathUnits="userSpaceOnUse"
       id="clipPath8669-3-0"><path
         d="m -613.6722,-330.51051 h 841.88998 v 595.276 H -613.6722 Z"
         id="path8671-1-3"
         style="stroke-width:1" /></clipPath><clipPath
       clipPathUnits="userSpaceOnUse"
       id="clipPath8661-5-8"><path
         d="m -613.6722,-333.56279 h 841.88998 v 595.276 H -613.6722 Z"
         id="path8663-6-4"
         style="stroke-width:1" /></clipPath><clipPath
       clipPathUnits="userSpaceOnUse"
       id="clipPath5472-4-8"><path
         d="M -629.4885,-328.35592 H 212.40153 V 266.92005 H -629.4885 Z"
         id="path5474-6-8"
         style="stroke-width:1" /></clipPath><clipPath
       clipPathUnits="userSpaceOnUse"
       id="clipPath9887-1"><path
         d="M -744.39078,-457.3059 H 97.499204 v 595.276 H -744.39078 Z"
         id="path9889-1"
         style="stroke-width:1" /></clipPath></defs><g
     inkscape:label="Layer 1"
     inkscape:groupmode="layer"
     id="layer1"
     transform="translate(1759.7781,-387.95217)"><g
       id="g6610"
       transform="translate(-68.923958,0.66145833)"><path
         d="m -1684.5127,399.79627 c 3.405,0 6.165,-2.75995 6.165,-6.16476 0,-3.40446 -2.76,-6.16441 -6.165,-6.16441 -3.405,0 -6.165,2.75995 -6.165,6.16441 0,3.40481 2.76,6.16476 6.165,6.16476"
         style="fill:#f2f9fa;fill-opacity:1;fill-rule:nonzero;stroke:none;stroke-width:0.352779"
         id="path508-8" /><path
         d="m 0,0 c 9.995,0 18.097,8.102 18.097,18.097 0,9.994 -8.102,18.096 -18.097,18.096 -9.995,0 -18.097,-8.102 -18.097,-18.096 C -18.097,8.102 -9.995,0 0,0 Z"
         style="fill:none;stroke:#007d9e;stroke-width:1.03558;stroke-linecap:butt;stroke-linejoin:miter;stroke-miterlimit:4;stroke-dasharray:none;stroke-opacity:1"
         id="path576-2"
         transform="matrix(0.34066565,0,0,-0.34065068,-1684.5127,399.79627)"
         clip-path="url(#clipPath9887-1)" /></g><g
       id="g6606"
       transform="translate(-68.923916,0.66145829)"><path
         id="path463-9"
         style="color:#000000;fill:#007d9e;fill-opacity:1;stroke:#007d9e;stroke-width:0.1;stroke-dasharray:none;stroke-opacity:1"
         d="m -1685.2659,389.74024 c -2.1479,0 -3.8917,1.74367 -3.8917,3.89143 0,2.14776 1.7438,3.89146 3.8917,3.89146 2.148,0 3.8918,-1.7437 3.8918,-3.89146 0,-2.14776 -1.7438,-3.89143 -3.8918,-3.89143 z m 0,0.24383 c 1.0982,0 2.0821,0.48413 2.7506,1.25067 -0.03,0.0689 -0.1423,0.24023 -0.176,0.26228 -0.024,0.0156 -0.083,0.0358 -0.1316,0.0451 -0.2057,0.0391 -0.3114,0.12119 -0.4113,0.32005 -0.1488,0.29598 -0.1976,0.33266 -0.4354,0.3271 -0.2885,-0.007 -0.4951,0.0774 -0.6712,0.27354 -0.1033,0.11502 -0.1449,0.20169 -0.1903,0.39622 -0.081,0.34762 -0.089,0.36449 -0.2932,0.63812 -0.2282,0.30543 -0.2456,0.33685 -0.2456,0.44363 0,0.14469 0.05,0.21641 0.2556,0.36625 0.1735,0.12642 0.2718,0.17796 0.3423,0.17968 0.017,3.9e-4 0.1415,-0.0267 0.276,-0.0602 0.1345,-0.0336 0.2677,-0.061 0.296,-0.061 0.071,0 0.1646,0.0419 0.2388,0.10713 0.1225,0.10757 0.2289,0.14129 0.4823,0.15308 l 0.2285,0.0107 0.1522,0.0868 c 0.084,0.0477 0.2833,0.18767 0.4437,0.31099 0.1603,0.12331 0.3068,0.23501 0.3255,0.24819 0.01,0.004 0.01,0.007 0.013,0.01 -0.5648,1.10422 -1.676,1.88175 -2.9779,1.97741 -0.01,-0.0196 -0.02,-0.0415 -0.024,-0.0557 -0.078,-0.18251 -0.068,-0.24874 0.055,-0.36703 0.048,-0.0465 0.109,-0.11985 0.1346,-0.16299 0.043,-0.0728 0.047,-0.0927 0.047,-0.27887 0,-0.2372 -0.01,-0.26007 -0.181,-0.44996 -0.1553,-0.17169 -0.1761,-0.20714 -0.1762,-0.29953 0,-0.058 0.015,-0.10346 0.057,-0.17429 0.077,-0.12923 0.099,-0.19632 0.099,-0.31198 0,-0.16644 -0.094,-0.31878 -0.2416,-0.39238 -0.044,-0.0222 -0.2022,-0.0807 -0.3507,-0.13015 -0.1486,-0.0494 -0.2788,-0.0956 -0.2892,-0.10263 -0.01,-0.007 -0.096,-0.14615 -0.1905,-0.30911 -0.2436,-0.42062 -0.2528,-0.43282 -0.3594,-0.4787 -0.1733,-0.0745 -0.3119,-0.0215 -0.4341,0.16596 -0.041,0.0625 -0.088,0.12129 -0.1053,0.13046 -0.041,0.0225 -0.1146,-0.007 -0.1288,-0.0512 -0.01,-0.0291 0.1196,-0.57462 0.1845,-0.78099 0.015,-0.0488 0.044,-0.0693 0.23,-0.16367 0.2676,-0.1358 0.3009,-0.1596 0.3446,-0.24514 0.076,-0.14941 0.025,-0.35268 -0.1214,-0.49047 -0.097,-0.0904 -0.1807,-0.12409 -0.4016,-0.16116 -0.2103,-0.0353 -0.2212,-0.0401 -0.5991,-0.26757 -0.3259,-0.19609 -0.4188,-0.27261 -0.4789,-0.39403 -0.042,-0.0825 -0.078,-0.20924 -0.083,-0.27308 0.6684,-0.76092 1.6486,-1.24103 2.742,-1.24103 z m 2.9069,1.44275 c 0.465,0.61224 0.741,1.37599 0.741,2.20485 0,0.51637 -0.1072,1.00742 -0.3004,1.4524 l -0.1237,-0.0961 c -0.4149,-0.32238 -0.5906,-0.44546 -0.7269,-0.50917 -0.1426,-0.0666 -0.1568,-0.0696 -0.3748,-0.0792 -0.2455,-0.0108 -0.2596,-0.0153 -0.4097,-0.13049 -0.109,-0.0837 -0.2322,-0.13025 -0.3447,-0.13025 -0.043,0 -0.1908,0.0282 -0.3298,0.0627 l -0.2526,0.0627 -0.098,-0.0671 c -0.2076,-0.14241 -0.2649,-0.19585 -0.2649,-0.24716 0,-0.0343 0.051,-0.11617 0.1734,-0.27979 0.2401,-0.32012 0.2582,-0.35517 0.3273,-0.63639 0.068,-0.27503 0.12,-0.38794 0.2198,-0.47337 0.1313,-0.11233 0.2058,-0.13606 0.4413,-0.14028 0.1728,-0.003 0.2273,-0.0107 0.2963,-0.041 0.1248,-0.0551 0.2073,-0.14598 0.3057,-0.33684 0.1041,-0.20215 0.1439,-0.23653 0.3454,-0.29758 0.1749,-0.053 0.2588,-0.1154 0.3339,-0.24869 0.016,-0.0276 0.03,-0.0521 0.042,-0.0692 z m -5.8307,0.0222 0.028,0.0749 c 0.048,0.12695 0.1383,0.25677 0.2295,0.32897 0.1056,0.0837 0.7255,0.45111 0.8077,0.47876 0.042,0.0141 0.1575,0.0398 0.2572,0.0572 0.2092,0.0364 0.2731,0.0711 0.327,0.17742 0.064,0.12723 0.044,0.14974 -0.2831,0.3143 -0.1856,0.0934 -0.2352,0.13501 -0.2749,0.23023 -0.039,0.0927 -0.2207,0.80787 -0.22,0.86475 0,0.18014 0.1917,0.33984 0.3728,0.3127 0.1056,-0.0159 0.1795,-0.0737 0.2707,-0.21181 0.081,-0.12342 0.1327,-0.15442 0.1844,-0.11151 0.013,0.0112 0.1157,0.17631 0.227,0.36692 0.1113,0.1906 0.2246,0.36523 0.2517,0.38804 0.029,0.0247 0.1748,0.0823 0.3604,0.14242 0.2712,0.088 0.3194,0.10926 0.3764,0.16605 0.058,0.0579 0.065,0.0748 0.065,0.15189 0,0.0652 -0.011,0.10363 -0.046,0.15458 -0.08,0.11714 -0.1096,0.20149 -0.1102,0.30979 -6e-4,0.16244 0.029,0.23157 0.1582,0.36785 0.1879,0.19815 0.2074,0.23511 0.2074,0.39042 0,0.14856 -0.017,0.18422 -0.1291,0.28225 -0.1365,0.1188 -0.1898,0.35134 -0.1236,0.53891 0.01,0.0209 0.014,0.0403 0.019,0.055 -0.01,6e-5 -0.021,3.9e-4 -0.031,3.9e-4 -2.016,0 -3.6479,-1.63169 -3.6479,-3.64764 0,-0.81885 0.2692,-1.57426 0.7241,-2.1827 z" /><g
         id="g5750"
         transform="matrix(-1,0,0,1,-3354.2094,1.2131005)"><path
           id="rect5701"
           style="opacity:1;fill:#f2f9fa;stroke-width:3.70001;stop-color:#000000"
           d="m -1671.9408,387.7262 c -0.5587,0 -1.0113,0.45247 -1.0113,1.0108 v 5.20226 c -0.4453,0.31681 -0.7354,0.83658 -0.7354,1.4242 0,0.96439 0.7828,1.7477 1.7472,1.7477 0.9644,0 1.7477,-0.78331 1.7477,-1.7477 0,-0.58762 -0.2906,-1.10739 -0.7359,-1.4242 v -0.7121 -3.91242 -0.57774 c 0,-0.55833 -0.4526,-1.0108 -1.0113,-1.0108 z"
           sodipodi:nodetypes="sscssscccsss" /><path
           d="m -6.126,5.742 v 1.696 c 0,1.639 -1.328,2.968 -2.968,2.968 h -0.003 c -1.64,0 -2.969,-1.329 -2.969,-2.968 V -7.833 c -1.307,-0.93 -2.159,-2.456 -2.159,-4.181 0,-2.831 2.298,-5.13 5.129,-5.13 2.831,0 5.13,2.299 5.13,5.13 0,1.725 -0.853,3.251 -2.16,4.181 v 2.09 m 1.21,-6.271 c 0,-2.306 -1.873,-4.18 -4.18,-4.18 -2.307,0 -4.179,1.874 -4.179,4.18 0,1.483 0.774,2.786 1.939,3.529 0.138,0.086 0.22,0.237 0.22,0.4 V 7.438 c 0,1.115 0.904,2.018 2.019,2.018 h 0.003 c 1.115,0 2.019,-0.903 2.019,-2.018 V -8.085 c 0,-0.163 0.082,-0.314 0.219,-0.4 1.166,-0.743 1.94,-2.046 1.94,-3.529 m -1.209,7.224 v 1.789 2.803 4.988"
           style="fill:#007d9e;fill-opacity:1;fill-rule:nonzero;stroke:none;stroke-width:1.03558"
           id="path516-2-8"
           transform="matrix(0.34066565,0,0,-0.34065068,-1668.8416,391.27082)"
           clip-path="url(#clipPath5472-4)"
           sodipodi:nodetypes="csssscssscccsscsssssscccccc" /><g
           id="g518-6-0"
           transform="matrix(0.34066565,0,0,-0.34065068,-1671.0807,395.36326)"
           style="stroke-width:1.03558"
           clip-path="url(#clipPath8701-0-5)"><path
             d="m 0,0 c 0,1.229 -0.882,2.255 -2.048,2.478 v 16.578 c 0,0.262 -0.213,0.475 -0.475,0.475 -0.262,0 -0.475,-0.213 -0.475,-0.475 V 2.478 C -4.163,2.255 -5.045,1.229 -5.045,0 c 0,-1.393 1.13,-2.523 2.522,-2.523 C -1.13,-2.523 0,-1.393 0,0 m -0.95,0 c 0,-0.868 -0.705,-1.573 -1.573,-1.573 -0.867,0 -1.572,0.705 -1.572,1.573 0,0.867 0.705,1.572 1.572,1.572 0.868,0 1.573,-0.705 1.573,-1.572"
             style="fill:#007d9e;fill-opacity:1;fill-rule:nonzero;stroke:none;stroke-width:1.03558"
             id="path520-7-7" /></g><g
           id="g526-1-6"
           transform="matrix(0.34066565,0,0,-0.34065068,-1674.2297,393.65653)"
           style="stroke-width:1.03558"
           clip-path="url(#clipPath8693-2-2)"><path
             d="M 0,0 H 2.08 C 2.342,0 2.555,0.213 2.555,0.475 2.555,0.737 2.342,0.95 2.08,0.95 H 0 C -0.262,0.95 -0.475,0.737 -0.475,0.475 -0.475,0.213 -0.262,0 0,0"
             style="fill:#007d9e;fill-opacity:1;fill-rule:nonzero;stroke:none;stroke-width:1.03558"
             id="path528-1-3" /></g><g
           id="g534-3-6"
           transform="matrix(0.34066565,0,0,-0.34065068,-1674.2297,392.61676)"
           style="stroke-width:1.03558"
           clip-path="url(#clipPath8685-3-7)"><path
             d="M 0,0 H 2.08 C 2.342,0 2.555,0.213 2.555,0.475 2.555,0.737 2.342,0.95 2.08,0.95 H 0 C -0.262,0.95 -0.475,0.737 -0.475,0.475 -0.475,0.213 -0.262,0 0,0"
             style="fill:#007d9e;fill-opacity:1;fill-rule:nonzero;stroke:none;stroke-width:1.03558"
             id="path536-4-3" /></g><g
           id="g542-5-8"
           transform="matrix(0.34066565,0,0,-0.34065068,-1674.2297,391.57666)"
           style="stroke-width:1.03558"
           clip-path="url(#clipPath8677-4-1)"><path
             d="M 0,0 H 2.08 C 2.342,0 2.555,0.213 2.555,0.475 2.555,0.736 2.342,0.95 2.08,0.95 H 0 C -0.262,0.95 -0.475,0.736 -0.475,0.475 -0.475,0.213 -0.262,0 0,0"
             style="fill:#007d9e;fill-opacity:1;fill-rule:nonzero;stroke:none;stroke-width:1.03558"
             id="path544-4-2" /></g><g
           id="g550-8-1"
           transform="matrix(0.34066565,0,0,-0.34065068,-1674.2297,390.53685)"
           style="stroke-width:1.03558"
           clip-path="url(#clipPath8669-3-0)"><path
             d="M 0,0 H 2.08 C 2.342,0 2.555,0.213 2.555,0.475 2.555,0.737 2.342,0.95 2.08,0.95 H 0 C -0.262,0.95 -0.475,0.737 -0.475,0.475 -0.475,0.213 -0.262,0 0,0"
             style="fill:#007d9e;fill-opacity:1;fill-rule:nonzero;stroke:none;stroke-width:1.03558"
             id="path552-5-2" /></g><g
           id="g558-7-2"
           transform="matrix(0.34066565,0,0,-0.34065068,-1674.2297,389.49709)"
           style="stroke-width:1.03558"
           clip-path="url(#clipPath8661-5-8)"><path
             d="M 0,0 H 2.08 C 2.342,0 2.555,0.213 2.555,0.475 2.555,0.737 2.342,0.95 2.08,0.95 H 0 C -0.262,0.95 -0.475,0.737 -0.475,0.475 -0.475,0.213 -0.262,0 0,0"
             style="fill:#007d9e;fill-opacity:1;fill-rule:nonzero;stroke:none;stroke-width:1.03558"
             id="path560-1-2" /></g></g></g></g></svg>
