<?xml version="1.0" encoding="UTF-8" standalone="no"?>
<!-- Created with Inkscape (http://www.inkscape.org/) -->

<svg
   width="12.68284mm"
   height="12.681941mm"
   viewBox="0 0 12.682841 12.681941"
   version="1.1"
   id="svg5"
   xml:space="preserve"
   inkscape:version="1.2 (dc2aedaf03, 2022-05-15)"
   sodipodi:docname="climate_indicators.svg"
   xmlns:inkscape="http://www.inkscape.org/namespaces/inkscape"
   xmlns:sodipodi="http://sodipodi.sourceforge.net/DTD/sodipodi-0.dtd"
   xmlns="http://www.w3.org/2000/svg"
   xmlns:svg="http://www.w3.org/2000/svg"><sodipodi:namedview
     id="namedview7"
     pagecolor="#ffffff"
     bordercolor="#000000"
     borderopacity="0.25"
     inkscape:showpageshadow="2"
     inkscape:pageopacity="0.0"
     inkscape:pagecheckerboard="0"
     inkscape:deskcolor="#d1d1d1"
     inkscape:document-units="mm"
     showgrid="false"
     inkscape:zoom="2"
     inkscape:cx="257.5"
     inkscape:cy="195.5"
     inkscape:window-width="1920"
     inkscape:window-height="986"
     inkscape:window-x="-11"
     inkscape:window-y="-11"
     inkscape:window-maximized="1"
     inkscape:current-layer="layer1"
     showguides="true" /><defs
     id="defs2"><clipPath
       clipPathUnits="userSpaceOnUse"
       id="clipPath424"><path
         d="M 0,0 H 841.89 V 595.276 H 0 Z"
         id="path422" /></clipPath></defs><g
     inkscape:label="Layer 1"
     inkscape:groupmode="layer"
     id="layer1"
     transform="translate(-85.183443,-56.090126)"><g
       id="g418"
       transform="matrix(0.34066565,0,0,-0.34065068,-77.365822,147.56011)"
       style="stroke-width:1.03558"><g
         id="g420"
         clip-path="url(#clipPath424)"
         style="stroke-width:1.03558"><g
           id="g426"
           transform="translate(447.4203,253.1052)"
           style="stroke-width:1.03558" /><g
           id="g430"
           transform="translate(495.7667,231.8047)"
           style="stroke-width:1.03558"><path
             d="m 0,0 c 9.995,0 18.097,8.102 18.097,18.097 0,9.994 -8.102,18.096 -18.097,18.096 -9.995,0 -18.097,-8.102 -18.097,-18.096 C -18.097,8.102 -9.995,0 0,0"
             style="fill:#f2f9fa;fill-opacity:1;fill-rule:nonzero;stroke:none;stroke-width:1.03558"
             id="path432" /></g><g
           id="g434"
           transform="translate(495.7667,231.8047)"
           style="stroke-width:1.03558"><path
             d="m 0,0 c 9.995,0 18.097,8.102 18.097,18.097 0,9.994 -8.102,18.096 -18.097,18.096 -9.995,0 -18.097,-8.102 -18.097,-18.096 C -18.097,8.102 -9.995,0 0,0 Z"
             style="fill:none;stroke:#007d9e;stroke-width:1.03558;stroke-linecap:butt;stroke-linejoin:miter;stroke-miterlimit:4;stroke-dasharray:none;stroke-opacity:1"
             id="path436" /></g><g
           id="g438"
           transform="translate(494.5961,236.9266)"
           style="stroke-width:1.03558"><path
             d="M 0,0 C 0.067,0 0.132,0.035 0.168,0.097 L 0.606,0.855 C 0.659,0.948 0.628,1.066 0.535,1.119 0.442,1.173 0.324,1.141 0.271,1.049 L -0.167,0.29 C -0.221,0.198 -0.189,0.079 -0.097,0.026 -0.066,0.008 -0.033,0 0,0 m 3.335,0.319 c 0.067,0 0.132,0.035 0.167,0.097 L 4.128,1.498 C 4.182,1.591 4.15,1.709 4.057,1.763 3.965,1.816 3.846,1.785 3.793,1.692 L 3.167,0.609 C 3.114,0.517 3.146,0.398 3.238,0.345 3.269,0.327 3.302,0.319 3.335,0.319 m -6.735,0 c 0.067,0 0.132,0.034 0.168,0.096 l 0.627,1.083 c 0.053,0.093 0.022,0.211 -0.071,0.265 -0.092,0.053 -0.21,0.022 -0.264,-0.071 L -3.567,0.609 C -3.62,0.517 -3.589,0.398 -3.496,0.345 -3.466,0.327 -3.432,0.319 -3.4,0.319 M -5.861,1.51 c 0.067,0 0.132,0.035 0.167,0.097 l 0.628,1.083 c 0.053,0.092 0.022,0.211 -0.071,0.264 -0.092,0.054 -0.211,0.022 -0.264,-0.07 L -6.029,1.801 C -6.082,1.708 -6.051,1.59 -5.958,1.536 -5.927,1.519 -5.894,1.51 -5.861,1.51 m 6.989,0.446 c 0.067,0 0.132,0.035 0.168,0.097 L 1.922,3.136 C 1.975,3.228 1.944,3.347 1.851,3.4 1.758,3.454 1.64,3.422 1.587,3.329 L 0.961,2.246 C 0.908,2.154 0.939,2.035 1.032,1.982 1.062,1.964 1.096,1.956 1.128,1.956 m -9.824,0.851 c 0.067,0 0.132,0.034 0.168,0.096 L -8.05,3.73 c 0.054,0.092 0.022,0.211 -0.07,0.264 -0.093,0.054 -0.211,0.022 -0.265,-0.07 L -8.863,3.097 C -8.917,3.005 -8.885,2.886 -8.792,2.833 -8.762,2.815 -8.729,2.807 -8.696,2.807 m 6.735,0 c 0.066,0 0.131,0.034 0.167,0.096 l 0.479,0.827 c 0.053,0.092 0.022,0.211 -0.071,0.264 -0.092,0.054 -0.211,0.022 -0.264,-0.07 L -2.129,3.097 C -2.182,3.005 -2.151,2.886 -2.058,2.833 -2.028,2.815 -1.994,2.807 -1.961,2.807 m 6.732,0 c 0.067,0 0.132,0.034 0.168,0.096 L 5.418,3.73 C 5.471,3.822 5.44,3.941 5.347,3.994 5.255,4.048 5.136,4.016 5.083,3.924 L 4.604,3.097 C 4.55,3.005 4.582,2.886 4.674,2.833 4.705,2.815 4.738,2.807 4.771,2.807 m -9.196,1.191 c 0.067,0 0.132,0.035 0.168,0.097 l 0.479,0.826 C -3.725,5.014 -3.756,5.132 -3.849,5.186 -3.941,5.239 -4.06,5.208 -4.113,5.115 L -4.592,4.289 C -4.645,4.196 -4.614,4.078 -4.521,4.024 -4.491,4.007 -4.457,3.998 -4.425,3.998 m 6.99,0.446 c 0.067,0 0.132,0.035 0.168,0.097 L 3.211,5.367 C 3.265,5.459 3.233,5.578 3.141,5.631 3.048,5.685 2.93,5.653 2.876,5.561 L 2.398,4.734 C 2.345,4.642 2.376,4.524 2.469,4.47 2.499,4.452 2.533,4.444 2.565,4.444 m 3.275,0.21 c 0.066,0 0.131,0.034 0.167,0.096 L 6.462,5.531 C 6.516,5.623 6.485,5.741 6.392,5.795 6.3,5.849 6.182,5.818 6.128,5.726 L 5.673,4.945 C 5.619,4.853 5.65,4.734 5.742,4.68 5.773,4.663 5.806,4.654 5.84,4.654 m -13.467,0 c 0.066,0 0.131,0.034 0.167,0.096 l 0.456,0.78 C -6.95,5.623 -6.981,5.741 -7.073,5.795 -7.165,5.849 -7.284,5.818 -7.338,5.726 L -7.794,4.945 C -7.848,4.853 -7.817,4.735 -7.725,4.681 -7.694,4.663 -7.661,4.654 -7.627,4.654 m 6.732,0 c 0.067,0 0.131,0.034 0.167,0.096 l 0.457,0.78 C -0.217,5.623 -0.248,5.741 -0.34,5.795 -0.432,5.849 -0.551,5.818 -0.605,5.726 L -1.062,4.945 c -0.054,-0.092 -0.022,-0.21 0.07,-0.264 0.03,-0.018 0.064,-0.027 0.097,-0.027 m -2.461,1.192 c 0.066,0 0.131,0.034 0.167,0.096 l 0.456,0.78 c 0.054,0.092 0.023,0.211 -0.069,0.265 -0.092,0.054 -0.211,0.022 -0.264,-0.07 L -3.523,6.137 C -3.577,6.045 -3.546,5.926 -3.454,5.872 -3.423,5.854 -3.39,5.846 -3.356,5.846 m -6.733,0 c 0.066,0 0.131,0.034 0.167,0.096 l 0.456,0.78 c 0.053,0.093 0.022,0.211 -0.07,0.265 -0.092,0.054 -0.211,0.023 -0.265,-0.07 l -0.455,-0.78 c -0.054,-0.093 -0.023,-0.211 0.07,-0.265 0.03,-0.018 0.064,-0.026 0.097,-0.026 M 3.634,6.292 c 0.066,0 0.131,0.034 0.167,0.095 l 0.456,0.78 C 4.311,7.259 4.28,7.378 4.188,7.432 4.096,7.486 3.978,7.455 3.924,7.363 L 3.467,6.583 C 3.413,6.491 3.444,6.372 3.536,6.318 3.567,6.3 3.6,6.292 3.634,6.292 m -10.039,0.47 c 0.067,0 0.132,0.034 0.168,0.096 l 0.516,0.892 c 0.053,0.092 0.022,0.211 -0.071,0.264 -0.092,0.054 -0.211,0.022 -0.264,-0.07 L -6.572,7.052 C -6.625,6.96 -6.594,6.841 -6.501,6.788 -6.471,6.77 -6.437,6.762 -6.405,6.762 m 13.467,0 c 0.067,0 0.132,0.034 0.168,0.096 L 7.746,7.75 C 7.799,7.842 7.768,7.961 7.675,8.014 7.583,8.068 7.464,8.036 7.411,7.944 L 6.895,7.052 C 6.842,6.96 6.873,6.841 6.966,6.788 6.996,6.77 7.03,6.762 7.062,6.762 m -6.734,0 c 0.067,0 0.132,0.034 0.168,0.096 L 1.012,7.75 C 1.065,7.842 1.034,7.961 0.941,8.014 0.848,8.068 0.73,8.036 0.677,7.944 L 0.161,7.052 C 0.107,6.96 0.139,6.841 0.231,6.788 0.262,6.77 0.295,6.762 0.328,6.762 m -9.194,1.191 c 0.067,0 0.132,0.035 0.168,0.097 l 0.515,0.895 c 0.054,0.092 0.022,0.211 -0.071,0.264 -0.092,0.053 -0.211,0.022 -0.264,-0.071 L -9.033,8.243 C -9.087,8.15 -9.055,8.032 -8.962,7.979 -8.932,7.961 -8.899,7.953 -8.866,7.953 m 6.733,0 c 0.067,0 0.132,0.035 0.168,0.097 l 0.515,0.895 c 0.053,0.092 0.022,0.211 -0.071,0.264 -0.093,0.053 -0.211,0.022 -0.264,-0.071 L -2.301,8.243 C -2.354,8.15 -2.322,8.032 -2.229,7.979 -2.199,7.961 -2.166,7.953 -2.133,7.953 m 6.991,0.446 c 0.067,0 0.132,0.035 0.168,0.097 L 5.54,9.387 C 5.593,9.48 5.561,9.598 5.469,9.651 5.376,9.705 5.258,9.673 5.204,9.58 L 4.691,8.689 C 4.637,8.597 4.669,8.478 4.762,8.425 4.792,8.407 4.825,8.399 4.858,8.399 m 3.418,0.464 c 0.067,0 0.132,0.035 0.168,0.097 l 0.55,0.95 c 0.053,0.092 0.022,0.211 -0.071,0.264 -0.092,0.054 -0.211,0.022 -0.264,-0.07 L 8.109,9.154 C 8.055,9.061 8.087,8.943 8.179,8.889 8.21,8.871 8.243,8.863 8.276,8.863 m -6.733,0 c 0.067,0 0.132,0.035 0.168,0.097 L 2.26,9.91 c 0.053,0.093 0.021,0.211 -0.071,0.264 -0.093,0.054 -0.211,0.022 -0.265,-0.07 L 1.376,9.153 C 1.323,9.061 1.354,8.942 1.447,8.889 1.477,8.871 1.511,8.863 1.543,8.863 m -6.734,0 c 0.067,0 0.132,0.035 0.168,0.097 l 0.549,0.95 c 0.054,0.093 0.022,0.211 -0.07,0.264 -0.093,0.054 -0.211,0.022 -0.265,-0.07 L -5.358,9.153 C -5.412,9.061 -5.38,8.943 -5.288,8.889 -5.257,8.871 -5.224,8.863 -5.191,8.863 m 4.273,1.195 c 0.067,0 0.132,0.034 0.168,0.096 l 0.548,0.951 c 0.053,0.092 0.022,0.211 -0.071,0.264 -0.093,0.053 -0.211,0.022 -0.264,-0.071 l -0.548,-0.95 c -0.054,-0.093 -0.022,-0.211 0.071,-0.264 0.03,-0.018 0.063,-0.026 0.096,-0.026 m -6.734,0 c 0.066,0 0.131,0.034 0.167,0.096 l 0.55,0.95 c 0.054,0.093 0.022,0.211 -0.071,0.265 -0.092,0.053 -0.211,0.022 -0.264,-0.071 l -0.55,-0.95 c -0.053,-0.093 -0.022,-0.211 0.071,-0.264 0.03,-0.018 0.064,-0.026 0.097,-0.026 m 17.283,1.148 c 0.067,0 0.132,0.035 0.168,0.097 l 0.596,1.034 c 0.053,0.092 0.021,0.21 -0.071,0.264 -0.093,0.053 -0.211,0.021 -0.264,-0.071 L 9.463,11.496 C 9.41,11.404 9.442,11.285 9.534,11.232 9.565,11.214 9.598,11.206 9.631,11.206 m -6.734,0 c 0.067,0 0.131,0.035 0.167,0.097 l 0.598,1.033 C 3.715,12.429 3.684,12.547 3.591,12.601 3.499,12.654 2.729,11.496 2.729,11.496 2.676,11.404 2.707,11.285 2.8,11.232 2.83,11.214 2.864,11.206 2.897,11.206 M 0.435,12.4 c 0.067,0 0.132,0.035 0.168,0.098 l 0.165,0.287 C 0.822,12.878 0.79,12.996 0.697,13.05 0.604,13.103 0.486,13.071 0.433,12.978 L 0.267,12.691 C 0.214,12.598 0.246,12.48 0.339,12.426 0.369,12.409 0.402,12.4 0.435,12.4"
             style="fill:#007d9e;fill-opacity:1;fill-rule:nonzero;stroke:none;stroke-width:1.03558"
             id="path440" /></g><g
           id="g442"
           transform="translate(494.5961,236.9266)"
           style="stroke-width:1.03558"><path
             d="M 0,0 C 0.067,0 0.132,0.035 0.168,0.097 L 0.606,0.855 C 0.659,0.948 0.628,1.066 0.535,1.119 0.442,1.173 0.324,1.141 0.271,1.049 L -0.167,0.29 C -0.221,0.198 -0.189,0.079 -0.097,0.026 -0.066,0.008 -0.033,0 0,0 Z m 3.335,0.319 c 0.067,0 0.132,0.035 0.167,0.097 L 4.128,1.498 C 4.182,1.591 4.15,1.709 4.057,1.763 3.965,1.816 3.846,1.785 3.793,1.692 L 3.167,0.609 C 3.114,0.517 3.146,0.398 3.238,0.345 3.269,0.327 3.302,0.319 3.335,0.319 Z m -6.735,0 c 0.067,0 0.132,0.034 0.168,0.096 l 0.627,1.083 c 0.053,0.093 0.022,0.211 -0.071,0.265 -0.092,0.053 -0.21,0.022 -0.264,-0.071 L -3.567,0.609 C -3.62,0.517 -3.589,0.398 -3.496,0.345 -3.466,0.327 -3.432,0.319 -3.4,0.319 Z M -5.861,1.51 c 0.067,0 0.132,0.035 0.167,0.097 l 0.628,1.083 c 0.053,0.092 0.022,0.211 -0.071,0.264 -0.092,0.054 -0.211,0.022 -0.264,-0.07 L -6.029,1.801 C -6.082,1.708 -6.051,1.59 -5.958,1.536 -5.927,1.519 -5.894,1.51 -5.861,1.51 Z m 6.989,0.446 c 0.067,0 0.132,0.035 0.168,0.097 L 1.922,3.136 C 1.975,3.228 1.944,3.347 1.851,3.4 1.758,3.454 1.64,3.422 1.587,3.329 L 0.961,2.246 C 0.908,2.154 0.939,2.035 1.032,1.982 1.062,1.964 1.096,1.956 1.128,1.956 Z m -9.824,0.851 c 0.067,0 0.132,0.034 0.168,0.096 L -8.05,3.73 c 0.054,0.092 0.022,0.211 -0.07,0.264 -0.093,0.054 -0.211,0.022 -0.265,-0.07 L -8.863,3.097 C -8.917,3.005 -8.885,2.886 -8.792,2.833 -8.762,2.815 -8.729,2.807 -8.696,2.807 Z m 6.735,0 c 0.066,0 0.131,0.034 0.167,0.096 l 0.479,0.827 c 0.053,0.092 0.022,0.211 -0.071,0.264 -0.092,0.054 -0.211,0.022 -0.264,-0.07 L -2.129,3.097 C -2.182,3.005 -2.151,2.886 -2.058,2.833 -2.028,2.815 -1.994,2.807 -1.961,2.807 Z m 6.732,0 c 0.067,0 0.132,0.034 0.168,0.096 L 5.418,3.73 C 5.471,3.822 5.44,3.941 5.347,3.994 5.255,4.048 5.136,4.016 5.083,3.924 L 4.604,3.097 C 4.55,3.005 4.582,2.886 4.674,2.833 4.705,2.815 4.738,2.807 4.771,2.807 Z m -9.196,1.191 c 0.067,0 0.132,0.035 0.168,0.097 l 0.479,0.826 C -3.725,5.014 -3.756,5.132 -3.849,5.186 -3.941,5.239 -4.06,5.208 -4.113,5.115 L -4.592,4.289 C -4.645,4.196 -4.614,4.078 -4.521,4.024 -4.491,4.007 -4.457,3.998 -4.425,3.998 Z m 6.99,0.446 c 0.067,0 0.132,0.035 0.168,0.097 L 3.211,5.367 C 3.265,5.459 3.233,5.578 3.141,5.631 3.048,5.685 2.93,5.653 2.876,5.561 L 2.398,4.734 C 2.345,4.642 2.376,4.524 2.469,4.47 2.499,4.452 2.533,4.444 2.565,4.444 Z m 3.275,0.21 c 0.066,0 0.131,0.034 0.167,0.096 L 6.462,5.531 C 6.516,5.623 6.485,5.741 6.392,5.795 6.3,5.849 6.182,5.818 6.128,5.726 L 5.673,4.945 C 5.619,4.853 5.65,4.734 5.742,4.68 5.773,4.663 5.806,4.654 5.84,4.654 Z m -13.467,0 c 0.066,0 0.131,0.034 0.167,0.096 l 0.456,0.78 C -6.95,5.623 -6.981,5.741 -7.073,5.795 -7.165,5.849 -7.284,5.818 -7.338,5.726 L -7.794,4.945 C -7.848,4.853 -7.817,4.735 -7.725,4.681 -7.694,4.663 -7.661,4.654 -7.627,4.654 Z m 6.732,0 c 0.067,0 0.131,0.034 0.167,0.096 l 0.457,0.78 C -0.217,5.623 -0.248,5.741 -0.34,5.795 -0.432,5.849 -0.551,5.818 -0.605,5.726 L -1.062,4.945 c -0.054,-0.092 -0.022,-0.21 0.07,-0.264 0.03,-0.018 0.064,-0.027 0.097,-0.027 z m -2.461,1.192 c 0.066,0 0.131,0.034 0.167,0.096 l 0.456,0.78 c 0.054,0.092 0.023,0.211 -0.069,0.265 -0.092,0.054 -0.211,0.022 -0.264,-0.07 L -3.523,6.137 C -3.577,6.045 -3.546,5.926 -3.454,5.872 -3.423,5.854 -3.39,5.846 -3.356,5.846 Z m -6.733,0 c 0.066,0 0.131,0.034 0.167,0.096 l 0.456,0.78 c 0.053,0.093 0.022,0.211 -0.07,0.265 -0.092,0.054 -0.211,0.023 -0.265,-0.07 l -0.455,-0.78 c -0.054,-0.093 -0.023,-0.211 0.07,-0.265 0.03,-0.018 0.064,-0.026 0.097,-0.026 z M 3.634,6.292 c 0.066,0 0.131,0.034 0.167,0.095 l 0.456,0.78 C 4.311,7.259 4.28,7.378 4.188,7.432 4.096,7.486 3.978,7.455 3.924,7.363 L 3.467,6.583 C 3.413,6.491 3.444,6.372 3.536,6.318 3.567,6.3 3.6,6.292 3.634,6.292 Z m -10.039,0.47 c 0.067,0 0.132,0.034 0.168,0.096 l 0.516,0.892 c 0.053,0.092 0.022,0.211 -0.071,0.264 -0.092,0.054 -0.211,0.022 -0.264,-0.07 L -6.572,7.052 C -6.625,6.96 -6.594,6.841 -6.501,6.788 -6.471,6.77 -6.437,6.762 -6.405,6.762 Z m 13.467,0 c 0.067,0 0.132,0.034 0.168,0.096 L 7.746,7.75 C 7.799,7.842 7.768,7.961 7.675,8.014 7.583,8.068 7.464,8.036 7.411,7.944 L 6.895,7.052 C 6.842,6.96 6.873,6.841 6.966,6.788 6.996,6.77 7.03,6.762 7.062,6.762 Z m -6.734,0 c 0.067,0 0.132,0.034 0.168,0.096 L 1.012,7.75 C 1.065,7.842 1.034,7.961 0.941,8.014 0.848,8.068 0.73,8.036 0.677,7.944 L 0.161,7.052 C 0.107,6.96 0.139,6.841 0.231,6.788 0.262,6.77 0.295,6.762 0.328,6.762 Z m -9.194,1.191 c 0.067,0 0.132,0.035 0.168,0.097 l 0.515,0.895 c 0.054,0.092 0.022,0.211 -0.071,0.264 -0.092,0.053 -0.211,0.022 -0.264,-0.071 L -9.033,8.243 C -9.087,8.15 -9.055,8.032 -8.962,7.979 -8.932,7.961 -8.899,7.953 -8.866,7.953 Z m 6.733,0 c 0.067,0 0.132,0.035 0.168,0.097 l 0.515,0.895 c 0.053,0.092 0.022,0.211 -0.071,0.264 -0.093,0.053 -0.211,0.022 -0.264,-0.071 L -2.301,8.243 C -2.354,8.15 -2.322,8.032 -2.229,7.979 -2.199,7.961 -2.166,7.953 -2.133,7.953 Z m 6.991,0.446 c 0.067,0 0.132,0.035 0.168,0.097 L 5.54,9.387 C 5.593,9.48 5.561,9.598 5.469,9.651 5.376,9.705 5.258,9.673 5.204,9.58 L 4.691,8.689 C 4.637,8.597 4.669,8.478 4.762,8.425 4.792,8.407 4.825,8.399 4.858,8.399 Z m 3.418,0.464 c 0.067,0 0.132,0.035 0.168,0.097 l 0.55,0.95 c 0.053,0.092 0.022,0.211 -0.071,0.264 -0.092,0.054 -0.211,0.022 -0.264,-0.07 L 8.109,9.154 C 8.055,9.061 8.087,8.943 8.179,8.889 8.21,8.871 8.243,8.863 8.276,8.863 Z m -6.733,0 c 0.067,0 0.132,0.035 0.168,0.097 L 2.26,9.91 c 0.053,0.093 0.021,0.211 -0.071,0.264 -0.093,0.054 -0.211,0.022 -0.265,-0.07 L 1.376,9.153 C 1.323,9.061 1.354,8.942 1.447,8.889 1.477,8.871 1.511,8.863 1.543,8.863 Z m -6.734,0 c 0.067,0 0.132,0.035 0.168,0.097 l 0.549,0.95 c 0.054,0.093 0.022,0.211 -0.07,0.264 -0.093,0.054 -0.211,0.022 -0.265,-0.07 L -5.358,9.153 C -5.412,9.061 -5.38,8.943 -5.288,8.889 -5.257,8.871 -5.224,8.863 -5.191,8.863 Z m 4.273,1.195 c 0.067,0 0.132,0.034 0.168,0.096 l 0.548,0.951 c 0.053,0.092 0.022,0.211 -0.071,0.264 -0.093,0.053 -0.211,0.022 -0.264,-0.071 l -0.548,-0.95 c -0.054,-0.093 -0.022,-0.211 0.071,-0.264 0.03,-0.018 0.063,-0.026 0.096,-0.026 z m -6.734,0 c 0.066,0 0.131,0.034 0.167,0.096 l 0.55,0.95 c 0.054,0.093 0.022,0.211 -0.071,0.265 -0.092,0.053 -0.211,0.022 -0.264,-0.071 l -0.55,-0.95 c -0.053,-0.093 -0.022,-0.211 0.071,-0.264 0.03,-0.018 0.064,-0.026 0.097,-0.026 z m 17.283,1.148 c 0.067,0 0.132,0.035 0.168,0.097 l 0.596,1.034 c 0.053,0.092 0.021,0.21 -0.071,0.264 -0.093,0.053 -0.211,0.021 -0.264,-0.071 L 9.463,11.496 C 9.41,11.404 9.442,11.285 9.534,11.232 9.565,11.214 9.598,11.206 9.631,11.206 Z m -6.734,0 c 0.067,0 0.131,0.035 0.167,0.097 l 0.598,1.033 C 3.715,12.429 3.684,12.547 3.591,12.601 3.499,12.654 2.729,11.496 2.729,11.496 2.676,11.404 2.707,11.285 2.8,11.232 2.83,11.214 2.864,11.206 2.897,11.206 Z M 0.435,12.4 c 0.067,0 0.132,0.035 0.168,0.098 l 0.165,0.287 C 0.822,12.878 0.79,12.996 0.697,13.05 0.604,13.103 0.486,13.071 0.433,12.978 L 0.267,12.691 C 0.214,12.598 0.246,12.48 0.339,12.426 0.369,12.409 0.402,12.4 0.435,12.4 Z"
             style="fill:none;stroke:#007d9e;stroke-width:0.517789;stroke-linecap:butt;stroke-linejoin:miter;stroke-miterlimit:10;stroke-dasharray:none;stroke-opacity:1"
             id="path444" /></g><g
           id="g446"
           transform="translate(483.6153,251.3884)"
           style="stroke-width:1.03558"><path
             d="m 0,0 h 6.978 c 0.885,0 1.606,0.802 1.606,1.788 0,0.892 -0.587,1.635 -1.363,1.767 0.005,0.062 0.008,0.126 0.008,0.191 0,1.236 -0.935,2.24 -2.083,2.24 C 4.403,5.986 3.731,5.572 3.356,4.893 3.133,5.019 2.885,5.085 2.632,5.085 2.005,5.085 1.445,4.677 1.202,4.068 0.853,4.335 0.434,4.48 0,4.48 -1.148,4.48 -2.082,3.475 -2.082,2.24 -2.082,1.005 -1.148,0 0,0 M 5.146,5.65 C 6.128,5.65 6.927,4.796 6.927,3.746 6.927,3.638 6.919,3.533 6.903,3.435 6.895,3.387 6.906,3.338 6.933,3.3 6.96,3.263 7,3.239 7.044,3.237 7.738,3.198 8.281,2.561 8.281,1.788 8.281,0.988 7.696,0.336 6.977,0.336 H 0 c -0.982,0 -1.78,0.854 -1.78,1.904 0,1.049 0.798,1.903 1.78,1.903 0.435,0 0.853,-0.169 1.176,-0.476 C 1.215,3.63 1.269,3.617 1.318,3.634 1.367,3.651 1.406,3.695 1.419,3.75 1.566,4.338 2.065,4.748 2.633,4.748 2.881,4.748 3.123,4.67 3.332,4.522 3.368,4.496 3.412,4.489 3.453,4.501 3.494,4.514 3.528,4.545 3.548,4.587 3.85,5.243 4.463,5.65 5.146,5.65"
             style="fill:#007d9e;fill-opacity:1;fill-rule:nonzero;stroke:none;stroke-width:1.03558"
             id="path448" /></g><g
           id="g450"
           transform="translate(483.6153,251.3884)"
           style="stroke-width:1.03558"><path
             d="m 0,0 h 6.978 c 0.885,0 1.606,0.802 1.606,1.788 0,0.892 -0.587,1.635 -1.363,1.767 0.005,0.062 0.008,0.126 0.008,0.191 0,1.236 -0.935,2.24 -2.083,2.24 C 4.403,5.986 3.731,5.572 3.356,4.893 3.133,5.019 2.885,5.085 2.632,5.085 2.005,5.085 1.445,4.677 1.202,4.068 0.853,4.335 0.434,4.48 0,4.48 -1.148,4.48 -2.082,3.475 -2.082,2.24 -2.082,1.005 -1.148,0 0,0 Z M 5.146,5.65 C 6.128,5.65 6.927,4.796 6.927,3.746 6.927,3.638 6.919,3.533 6.903,3.435 6.895,3.387 6.906,3.338 6.933,3.3 6.96,3.263 7,3.239 7.044,3.237 7.738,3.198 8.281,2.561 8.281,1.788 8.281,0.988 7.696,0.336 6.977,0.336 H 0 c -0.982,0 -1.78,0.854 -1.78,1.904 0,1.049 0.798,1.903 1.78,1.903 0.435,0 0.853,-0.169 1.176,-0.476 C 1.215,3.63 1.269,3.617 1.318,3.634 1.367,3.651 1.406,3.695 1.419,3.75 1.566,4.338 2.065,4.748 2.633,4.748 2.881,4.748 3.123,4.67 3.332,4.522 3.368,4.496 3.412,4.489 3.453,4.501 3.494,4.514 3.528,4.545 3.548,4.587 3.85,5.243 4.463,5.65 5.146,5.65 Z"
             style="fill:none;stroke:#007d9e;stroke-width:0.517789;stroke-linecap:butt;stroke-linejoin:miter;stroke-miterlimit:10;stroke-dasharray:none;stroke-opacity:1"
             id="path452" /></g><g
           id="g454"
           transform="translate(500.3366,248.1607)"
           style="stroke-width:1.03558"><path
             d="m 0,0 c 0.031,0 0.063,0.008 0.092,0.024 0.084,0.045 0.122,0.144 0.09,0.234 l -1.332,3.8 h 1.338 c 0.065,0 0.125,0.032 0.161,0.085 0.036,0.053 0.043,0.121 0.019,0.18 l -2.169,5.39 c -0.033,0.081 -0.116,0.13 -0.202,0.12 L -4.742,9.512 C -4.806,9.504 -4.863,9.465 -4.892,9.408 -4.921,9.35 -4.92,9.282 -4.889,9.225 l 1.734,-3.11 H -4.439 C -4.513,6.115 -4.58,6.073 -4.613,6.007 -4.645,5.941 -4.637,5.862 -4.592,5.803 L -0.153,0.075 C -0.115,0.026 -0.058,0 0,0 M -0.098,4.445 H -1.423 C -1.486,4.445 -1.545,4.414 -1.581,4.363 -1.617,4.312 -1.627,4.246 -1.606,4.187 l 1.029,-2.933 -3.467,4.474 h 1.219 c 0.068,0 0.132,0.037 0.167,0.096 0.034,0.059 0.035,0.132 0.002,0.192 l -1.754,3.145 2.305,0.27 z"
             style="fill:#007d9e;fill-opacity:1;fill-rule:nonzero;stroke:none;stroke-width:1.03558"
             id="path456" /></g><g
           id="g458"
           transform="translate(500.3366,248.1607)"
           style="stroke-width:1.03558"><path
             d="m 0,0 c 0.031,0 0.063,0.008 0.092,0.024 0.084,0.045 0.122,0.144 0.09,0.234 l -1.332,3.8 h 1.338 c 0.065,0 0.125,0.032 0.161,0.085 0.036,0.053 0.043,0.121 0.019,0.18 l -2.169,5.39 c -0.033,0.081 -0.116,0.13 -0.202,0.12 L -4.742,9.512 C -4.806,9.504 -4.863,9.465 -4.892,9.408 -4.921,9.35 -4.92,9.282 -4.889,9.225 l 1.734,-3.11 H -4.439 C -4.513,6.115 -4.58,6.073 -4.613,6.007 -4.645,5.941 -4.637,5.862 -4.592,5.803 L -0.153,0.075 C -0.115,0.026 -0.058,0 0,0 Z M -0.098,4.445 H -1.423 C -1.486,4.445 -1.545,4.414 -1.581,4.363 -1.617,4.312 -1.627,4.246 -1.606,4.187 l 1.029,-2.933 -3.467,4.474 h 1.219 c 0.068,0 0.132,0.037 0.167,0.096 0.034,0.059 0.035,0.132 0.002,0.192 l -1.754,3.145 2.305,0.27 z"
             style="fill:none;stroke:#007d9e;stroke-width:0.517789;stroke-linecap:butt;stroke-linejoin:miter;stroke-miterlimit:10;stroke-dasharray:none;stroke-opacity:1"
             id="path460" /></g><g
           id="g462"
           transform="translate(488.7499,257.4623)"
           style="stroke-width:1.03558"><path
             d="M 0,0 C 0.512,1.659 1.951,2.774 3.581,2.774 4.41,2.774 5.212,2.481 5.867,1.944 6.269,3.109 7.31,3.9 8.484,3.9 c 0.491,0 0.967,-0.137 1.387,-0.397 0.667,1.285 1.913,2.074 3.294,2.074 2.079,0 3.77,-1.815 3.77,-4.046 0,-0.154 -0.008,-0.309 -0.024,-0.462 1.443,-0.186 2.548,-1.546 2.548,-3.183 0,-1.767 -1.294,-3.205 -2.885,-3.205 h -6.397 l -0.064,0.204 c -0.02,0.06 -0.011,0.125 0.022,0.176 10e-4,0.003 0.003,0.005 0.005,0.007 h 6.434 c 1.399,0 2.537,1.264 2.537,2.818 0,1.502 -1.058,2.739 -2.407,2.815 -0.05,0.002 -0.096,0.029 -0.127,0.072 -0.032,0.043 -0.045,0.099 -0.036,0.154 0.031,0.198 0.046,0.401 0.046,0.604 0,2.018 -1.535,3.66 -3.422,3.66 -1.314,0 -2.492,-0.784 -3.073,-2.046 C 10.069,3.097 10.029,3.061 9.982,3.047 9.934,3.032 9.883,3.041 9.842,3.071 9.441,3.361 8.971,3.513 8.484,3.513 7.377,3.513 6.406,2.714 6.122,1.57 6.106,1.506 6.062,1.456 6.005,1.436 5.949,1.417 5.887,1.431 5.842,1.474 5.217,2.063 4.414,2.387 3.581,2.387 2.163,2.387 0.905,1.463 0.394,0.066 c 0.97,-0.351 1.632,-1.328 1.632,-2.443 0,-0.075 -0.003,-0.149 -0.009,-0.221 0.894,-0.151 1.569,-1.007 1.569,-2.032 0,-0.101 -0.006,-0.202 -0.02,-0.302 h 0.015 4.326 l 0.27,-0.387 H 3.581 c -0.078,0 -0.159,0 -0.24,0.007 -0.052,0.004 -0.099,0.034 -0.129,0.081 -0.03,0.047 -0.039,0.107 -0.026,0.162 0.035,0.143 0.052,0.291 0.052,0.438 0,0.89 -0.626,1.623 -1.425,1.667 -0.05,0.003 -0.097,0.03 -0.128,0.073 -0.031,0.044 -0.044,0.1 -0.035,0.155 0.019,0.113 0.028,0.233 0.028,0.358 0,1.007 -0.639,1.882 -1.554,2.127 C 0.076,-0.238 0.036,-0.204 0.012,-0.156 -0.012,-0.108 -0.016,-0.052 0,0"
             style="fill:#007d9e;fill-opacity:1;fill-rule:nonzero;stroke:none;stroke-width:1.03558"
             id="path464" /></g><g
           id="g466"
           transform="translate(488.7499,257.4623)"
           style="stroke-width:1.03558"><path
             d="M 0,0 C 0.512,1.659 1.951,2.774 3.581,2.774 4.41,2.774 5.212,2.481 5.867,1.944 6.269,3.109 7.31,3.9 8.484,3.9 c 0.491,0 0.967,-0.137 1.387,-0.397 0.667,1.285 1.913,2.074 3.294,2.074 2.079,0 3.77,-1.815 3.77,-4.046 0,-0.154 -0.008,-0.309 -0.024,-0.462 1.443,-0.186 2.548,-1.546 2.548,-3.183 0,-1.767 -1.294,-3.205 -2.885,-3.205 h -6.397 l -0.064,0.204 c -0.02,0.06 -0.011,0.125 0.022,0.176 10e-4,0.003 0.003,0.005 0.005,0.007 h 6.434 c 1.399,0 2.537,1.264 2.537,2.818 0,1.502 -1.058,2.739 -2.407,2.815 -0.05,0.002 -0.096,0.029 -0.127,0.072 -0.032,0.043 -0.045,0.099 -0.036,0.154 0.031,0.198 0.046,0.401 0.046,0.604 0,2.018 -1.535,3.66 -3.422,3.66 -1.314,0 -2.492,-0.784 -3.073,-2.046 C 10.069,3.097 10.029,3.061 9.982,3.047 9.934,3.032 9.883,3.041 9.842,3.071 9.441,3.361 8.971,3.513 8.484,3.513 7.377,3.513 6.406,2.714 6.122,1.57 6.106,1.506 6.062,1.456 6.005,1.436 5.949,1.417 5.887,1.431 5.842,1.474 5.217,2.063 4.414,2.387 3.581,2.387 2.163,2.387 0.905,1.463 0.394,0.066 c 0.97,-0.351 1.632,-1.328 1.632,-2.443 0,-0.075 -0.003,-0.149 -0.009,-0.221 0.894,-0.151 1.569,-1.007 1.569,-2.032 0,-0.101 -0.006,-0.202 -0.02,-0.302 h 0.015 4.326 l 0.27,-0.387 H 3.581 c -0.078,0 -0.159,0 -0.24,0.007 -0.052,0.004 -0.099,0.034 -0.129,0.081 -0.03,0.047 -0.039,0.107 -0.026,0.162 0.035,0.143 0.052,0.291 0.052,0.438 0,0.89 -0.626,1.623 -1.425,1.667 -0.05,0.003 -0.097,0.03 -0.128,0.073 -0.031,0.044 -0.044,0.1 -0.035,0.155 0.019,0.113 0.028,0.233 0.028,0.358 0,1.007 -0.639,1.882 -1.554,2.127 C 0.076,-0.238 0.036,-0.204 0.012,-0.156 -0.012,-0.108 -0.016,-0.052 0,0 Z"
             style="fill:none;stroke:#007d9e;stroke-width:0.517789;stroke-linecap:butt;stroke-linejoin:miter;stroke-miterlimit:10;stroke-dasharray:none;stroke-opacity:1"
             id="path468" /></g></g></g></g></svg>
