<?xml version="1.0" encoding="UTF-8" standalone="no"?>
<!-- Created with Inkscape (http://www.inkscape.org/) -->

<svg
   width="12.682831mm"
   height="12.681941mm"
   viewBox="0 0 12.682831 12.681941"
   version="1.1"
   id="svg5"
   xml:space="preserve"
   inkscape:version="1.2 (dc2aedaf03, 2022-05-15)"
   sodipodi:docname="climate_indicators.svg"
   xmlns:inkscape="http://www.inkscape.org/namespaces/inkscape"
   xmlns:sodipodi="http://sodipodi.sourceforge.net/DTD/sodipodi-0.dtd"
   xmlns="http://www.w3.org/2000/svg"
   xmlns:svg="http://www.w3.org/2000/svg"><sodipodi:namedview
     id="namedview7"
     pagecolor="#ffffff"
     bordercolor="#000000"
     borderopacity="0.25"
     inkscape:showpageshadow="2"
     inkscape:pageopacity="0.0"
     inkscape:pagecheckerboard="0"
     inkscape:deskcolor="#d1d1d1"
     inkscape:document-units="mm"
     showgrid="false"
     inkscape:zoom="2"
     inkscape:cx="257.5"
     inkscape:cy="195.5"
     inkscape:window-width="1920"
     inkscape:window-height="986"
     inkscape:window-x="-11"
     inkscape:window-y="-11"
     inkscape:window-maximized="1"
     inkscape:current-layer="layer1"
     showguides="true" /><defs
     id="defs2"><clipPath
       clipPathUnits="userSpaceOnUse"
       id="clipPath230"><path
         d="M 0,0 H 841.89 V 595.276 H 0 Z"
         id="path228" /></clipPath><clipPath
       clipPathUnits="userSpaceOnUse"
       id="clipPath246"><path
         d="m 477.67,475.564 c 0,-9.994 8.102,-18.097 18.097,-18.097 v 0 c 9.994,0 18.096,8.103 18.096,18.097 v 0 c 0,9.995 -8.102,18.097 -18.096,18.097 v 0 c -9.995,0 -18.097,-8.102 -18.097,-18.097"
         id="path244" /></clipPath><clipPath
       clipPathUnits="userSpaceOnUse"
       id="clipPath9038"><path
         d="m -495.7667,-457.4675 h 841.88999 v 595.276 H -495.7667 Z"
         id="path9040"
         style="stroke-width:1" /></clipPath></defs><g
     inkscape:label="Layer 1"
     inkscape:groupmode="layer"
     id="layer1"
     transform="translate(-141.79291,-56.090128)"><g
       id="g673"
       transform="translate(75.273958,3.042708)"><g
         id="g224"
         transform="matrix(0.34066565,0,0,-0.34065068,-96.030321,221.38959)"
         style="stroke-width:1.03558"><g
           id="g226"
           clip-path="url(#clipPath230)"
           style="stroke-width:1.03558"><g
             id="g232"
             transform="translate(447.4203,478.7681)"
             style="stroke-width:1.03558" /><g
             id="g236"
             transform="translate(495.7667,457.4675)"
             style="stroke-width:1.03558"><path
               d="m 0,0 c 9.995,0 18.097,8.102 18.097,18.097 0,9.994 -8.102,18.096 -18.097,18.096 -9.995,0 -18.097,-8.102 -18.097,-18.096 C -18.097,8.102 -9.995,0 0,0"
               style="fill:#f2f9fa;fill-opacity:1;fill-rule:nonzero;stroke:none;stroke-width:1.03558"
               id="path238" /></g></g></g><g
         id="g240"
         transform="matrix(0.34066565,0,0,-0.34065068,-96.030321,221.38959)"
         style="stroke-width:1.03558"><g
           id="g242"
           clip-path="url(#clipPath246)"
           style="stroke-width:1.03558"><g
             id="g248"
             transform="translate(487.6937,463.1079)"
             style="stroke-width:1.03558"><path
               d="m 0,0 0.012,-0.008 c 1.057,-1.059 2.498,-1.653 3.986,-1.653 1.499,0 2.929,0.594 3.998,1.653 l 0.07,0.071 0.104,-0.102 c 1.058,-1.058 2.488,-1.653 3.987,-1.653 1.488,0 2.929,0.595 3.986,1.653 l 0.07,0.07 0.116,-0.112 c 2.197,-2.203 5.777,-2.203 7.973,0 0.198,0.19 0.372,0.369 0.535,0.53 0.221,0.226 0.221,0.595 0,0.821 -0.233,0.227 -0.593,0.227 -0.826,0 -0.162,-0.16 -0.337,-0.338 -0.534,-0.53 -1.744,-1.749 -4.579,-1.749 -6.334,0 -0.151,0.153 -0.267,0.278 -0.361,0.369 -0.313,0.312 -0.825,0.312 -1.138,0 L 15.318,0.782 C 14.481,-0.058 13.342,-0.53 12.157,-0.53 10.971,-0.53 9.832,-0.058 8.984,0.782 8.844,0.93 8.717,1.052 8.624,1.14 8.31,1.453 7.81,1.453 7.496,1.14 L 7.171,0.814 C 6.334,-0.027 5.195,-0.499 3.998,-0.499 2.813,-0.499 1.674,-0.027 0.837,0.814 0.732,0.919 0.639,1.009 0.569,1.077 0.418,1.227 0.221,1.312 0,1.312 -0.209,1.312 -0.407,1.227 -0.558,1.077 -0.639,0.996 -0.756,0.886 -0.883,0.753 c -0.837,-0.84 -1.988,-1.312 -3.173,-1.312 -1.186,0 -2.325,0.472 -3.161,1.312 -0.175,0.176 -0.349,0.341 -0.489,0.489 -0.232,0.227 -0.592,0.227 -0.825,0 -0.232,-0.226 -0.232,-0.595 0,-0.821 0.151,-0.149 0.314,-0.314 0.488,-0.49 1.058,-1.057 2.499,-1.652 3.987,-1.652 1.499,0 2.929,0.595 3.986,1.652 z"
               style="fill:#007d9e;fill-opacity:1;fill-rule:nonzero;stroke:none;stroke-width:1.03558"
               id="path250" /></g><g
             id="g252"
             transform="translate(487.6937,467.3535)"
             style="stroke-width:1.03558"><path
               d="m 0,0 0.012,-0.008 c 1.057,-1.059 2.498,-1.653 3.986,-1.653 1.499,0 2.929,0.594 3.998,1.653 L 8.066,0.063 8.17,-0.04 c 1.058,-1.057 2.488,-1.652 3.987,-1.652 1.488,0 2.929,0.595 3.986,1.652 l 0.07,0.071 0.116,-0.112 c 2.197,-2.203 5.777,-2.203 7.973,0 0.198,0.19 0.372,0.369 0.535,0.53 0.221,0.226 0.221,0.595 0,0.821 -0.233,0.227 -0.593,0.227 -0.826,0 -0.162,-0.16 -0.337,-0.339 -0.534,-0.53 -1.744,-1.749 -4.579,-1.749 -6.334,0 -0.151,0.153 -0.267,0.278 -0.361,0.369 -0.313,0.312 -0.825,0.312 -1.138,0 L 15.318,0.782 C 14.481,-0.058 13.342,-0.53 12.157,-0.53 10.971,-0.53 9.832,-0.058 8.984,0.782 8.844,0.929 8.717,1.052 8.624,1.14 8.31,1.453 7.81,1.453 7.496,1.14 L 7.171,0.814 C 6.334,-0.027 5.195,-0.499 3.998,-0.499 2.813,-0.499 1.674,-0.027 0.837,0.814 0.732,0.919 0.639,1.009 0.569,1.077 0.418,1.227 0.221,1.312 0,1.312 -0.209,1.312 -0.407,1.227 -0.558,1.077 -0.639,0.996 -0.756,0.886 -0.883,0.753 c -0.837,-0.84 -1.988,-1.312 -3.173,-1.312 -1.186,0 -2.325,0.472 -3.161,1.312 -0.175,0.176 -0.349,0.341 -0.489,0.489 -0.232,0.227 -0.592,0.227 -0.825,0 -0.232,-0.226 -0.232,-0.595 0,-0.821 0.151,-0.149 0.314,-0.314 0.488,-0.49 1.058,-1.057 2.499,-1.652 3.987,-1.652 1.499,0 2.929,0.595 3.986,1.652 z"
               style="fill:#007d9e;fill-opacity:1;fill-rule:nonzero;stroke:none;stroke-width:1.03558"
               id="path254" /></g><g
             id="g256"
             transform="translate(512.5304,472.8695)"
             style="stroke-width:1.03558"><path
               d="M 0,0 C -0.232,0.227 -0.593,0.227 -0.825,0 -0.988,-0.16 -1.162,-0.339 -1.36,-0.53 -2.441,-1.621 -3.963,-2.032 -5.369,-1.761 v 14.036 l 0.743,-0.747 c 0.233,-0.227 0.593,-0.227 0.825,0 0.221,0.227 0.221,0.595 0,0.822 l -1.743,1.74 c -0.221,0.226 -0.593,0.226 -0.825,0 l -1.732,-1.74 c -0.232,-0.227 -0.232,-0.595 0,-0.822 0.221,-0.227 0.593,-0.227 0.825,0 l 0.744,0.747 V -1.364 c -0.418,0.209 -0.813,0.487 -1.162,0.834 -0.151,0.152 -0.267,0.278 -0.36,0.368 -0.314,0.313 -0.825,0.313 -1.139,0 L -9.518,-0.488 C -9.553,-0.531 -9.6,-0.574 -9.646,-0.615 l -9.182,14.602 c -0.105,0.17 -0.291,0.272 -0.488,0.272 -0.209,0 -0.384,-0.102 -0.5,-0.272 l -9.89,-15.741 c -0.884,0.164 -1.709,0.592 -2.348,1.237 -0.175,0.175 -0.349,0.34 -0.488,0.489 -0.233,0.227 -0.593,0.227 -0.825,0 -0.233,-0.227 -0.233,-0.595 0,-0.822 0.151,-0.148 0.313,-0.313 0.488,-0.489 1.057,-1.057 2.499,-1.653 3.986,-1.653 1.499,0 2.929,0.596 3.987,1.653 l 0.069,0.069 0.012,-0.008 c 1.057,-1.059 2.499,-1.653 3.986,-1.653 1.5,0 2.929,0.594 3.998,1.653 l 0.07,0.07 0.105,-0.102 c 1.057,-1.057 2.487,-1.652 3.986,-1.652 1.488,0 2.929,0.595 3.987,1.652 l 0.069,0.071 0.117,-0.113 c 2.196,-2.202 5.776,-2.202 7.972,0 0.198,0.191 0.372,0.37 0.535,0.53 0.221,0.227 0.221,0.595 0,0.822 m -16.887,8.711 -0.79,-0.639 -1.174,0.94 c -0.209,0.171 -0.512,0.171 -0.732,0 l -1.174,-0.944 -0.93,0.749 2.371,3.77 z m 6.288,-9.996 c -0.64,-0.335 -1.349,-0.515 -2.081,-0.515 -1.185,0 -2.324,0.472 -3.173,1.312 -0.139,0.146 -0.267,0.27 -0.36,0.358 -0.314,0.312 -0.813,0.312 -1.127,0 l -0.326,-0.327 c -0.837,-0.84 -1.975,-1.312 -3.173,-1.312 -1.185,0 -2.324,0.472 -3.161,1.312 -0.105,0.106 -0.197,0.195 -0.267,0.264 -0.151,0.15 -0.349,0.235 -0.57,0.235 -0.209,0 -0.407,-0.085 -0.558,-0.235 -0.081,-0.081 -0.197,-0.192 -0.325,-0.324 -0.721,-0.715 -1.65,-1.162 -2.638,-1.281 l 6.043,9.624 1.197,-0.956 c 0.21,-0.171 0.512,-0.171 0.733,0 l 1.173,0.944 1.163,-0.941 c 0.221,-0.169 0.523,-0.169 0.732,0 l 1.057,0.848 z"
               style="fill:#007d9e;fill-opacity:1;fill-rule:nonzero;stroke:none;stroke-width:1.03558"
               id="path258" /></g></g></g><g
         id="g268"
         transform="matrix(0.34066565,0,0,-0.34065068,72.860364,65.552975)"
         style="stroke-width:1.03558"
         clip-path="url(#clipPath9038)"><path
           d="m 0,0 c 9.995,0 18.097,8.102 18.097,18.097 0,9.994 -8.102,18.096 -18.097,18.096 -9.995,0 -18.097,-8.102 -18.097,-18.096 C -18.097,8.102 -9.995,0 0,0 Z"
           style="fill:none;stroke:#007d9e;stroke-width:1.03558;stroke-linecap:butt;stroke-linejoin:miter;stroke-miterlimit:4;stroke-dasharray:none;stroke-opacity:1"
           id="path270" /></g></g></g></svg>
