<?xml version="1.0" encoding="UTF-8" standalone="no"?>
<!-- Uploaded to: SVG Repo, www.svgrepo.com, Generator: SVG Repo Mixer Tools -->

<svg
   width="800px"
   height="800px"
   viewBox="0 0 24 24"
   fill="none"
   version="1.1"
   id="svg183"
   sodipodi:docname="tooltip.svg"
   inkscape:version="1.2 (dc2aedaf03, 2022-05-15)"
   xmlns:inkscape="http://www.inkscape.org/namespaces/inkscape"
   xmlns:sodipodi="http://sodipodi.sourceforge.net/DTD/sodipodi-0.dtd"
   xmlns="http://www.w3.org/2000/svg"
   xmlns:svg="http://www.w3.org/2000/svg">
  <defs
     id="defs187" />
  <sodipodi:namedview
     id="namedview185"
     pagecolor="#ffffff"
     bordercolor="#000000"
     borderopacity="0.25"
     inkscape:showpageshadow="2"
     inkscape:pageopacity="0.0"
     inkscape:pagecheckerboard="0"
     inkscape:deskcolor="#d1d1d1"
     showgrid="false"
     inkscape:zoom="0.539375"
     inkscape:cx="104.75087"
     inkscape:cy="487.60139"
     inkscape:window-width="1920"
     inkscape:window-height="1017"
     inkscape:window-x="1912"
     inkscape:window-y="-8"
     inkscape:window-maximized="1"
     inkscape:current-layer="svg183" />
  <g
     id="g412"
     transform="matrix(0.90697674,0,0,0.90697674,1.1162791,1.1162791)">
    <path
       d="M 12,22 C 17.5228,22 22,17.5228 22,12 22,6.47715 17.5228,2 12,2 6.47715,2 2,6.47715 2,12 c 0,1.5997 0.37562,3.1116 1.04346,4.4525 0.17748,0.3563 0.23655,0.7636 0.13366,1.1481 l -0.59561,2.2261 c -0.25856,0.9663 0.6255,1.8503 1.59184,1.5918 L 6.39939,20.8229 C 6.78393,20.72 7.19121,20.7791 7.54753,20.9565 8.88837,21.6244 10.4003,22 12,22 Z"
       stroke="#1C274C"
       stroke-width="1.5"
       id="path179"
       style="stroke:#007c9d;stroke-opacity:1" />
    <path
       opacity="0.5"
       d="m 8,12 h 0.009 m 3.982,0 H 12 m 3.991,0 H 16"
       stroke="#1C274C"
       stroke-width="2"
       stroke-linecap="round"
       stroke-linejoin="round"
       id="path181"
       style="opacity:1;stroke:#007c9d;stroke-opacity:1" />
  </g>
</svg>
