<?xml version="1.0" encoding="UTF-8" standalone="no"?>
<!-- Created with Inkscape (http://www.inkscape.org/) -->

<svg
   width="25.273457mm"
   height="19.219006mm"
   viewBox="0 0 25.273456 19.219006"
   version="1.1"
   id="svg5"
   xml:space="preserve"
   sodipodi:docname="tpk_short_logo.svg"
   inkscape:version="1.2 (dc2aedaf03, 2022-05-15)"
   xmlns:inkscape="http://www.inkscape.org/namespaces/inkscape"
   xmlns:sodipodi="http://sodipodi.sourceforge.net/DTD/sodipodi-0.dtd"
   xmlns="http://www.w3.org/2000/svg"
   xmlns:svg="http://www.w3.org/2000/svg"><sodipodi:namedview
     id="namedview9"
     pagecolor="#ffffff"
     bordercolor="#000000"
     borderopacity="0.25"
     inkscape:showpageshadow="2"
     inkscape:pageopacity="0.0"
     inkscape:pagecheckerboard="0"
     inkscape:deskcolor="#d1d1d1"
     inkscape:document-units="mm"
     showgrid="false"
     inkscape:zoom="2.3627188"
     inkscape:cx="177.97294"
     inkscape:cy="45.286811"
     inkscape:window-width="1920"
     inkscape:window-height="1017"
     inkscape:window-x="1912"
     inkscape:window-y="-8"
     inkscape:window-maximized="1"
     inkscape:current-layer="svg5" /><defs
     id="defs2" /><g
     id="layer1"
     transform="translate(-119.94305,-346.03704)"><g
       clip-path="url(#clip0-6)"
       transform="matrix(0.35574134,0,0,0.08550042,-239.68779,343.80059)"
       id="g3188"><path
         id="path391"
         style="fill:#007c9d"
         d="m 1010.9335,26.157181 h 71.0432 V 250.9397 h -71.0432 z"
         sodipodi:nodetypes="ccccc" /></g><g
       id="g537"
       transform="matrix(0.28269109,0,0,0.28269109,107.81373,312.05363)"
       style="fill:#ffffff"><path
         id="path539"
         style="fill:#f1f3f3;fill-opacity:1;stroke-width:0.264583"
         d="m 87.563334,120.21403 c -0.135892,0 -4.814555,3.47228 -10.396782,7.71632 -5.582226,4.24405 -14.078318,10.69884 -18.880501,14.34383 -12.619774,9.57875 -15.298982,11.66024 -15.378906,11.94759 -0.03918,0.14085 2.095401,1.89434 4.743379,3.89692 8.382543,6.33943 34.344246,26.08916 36.961569,28.11766 1.382446,1.07144 2.669863,1.95589 2.861324,1.96346 0.191462,0.008 3.048966,-2.03379 6.35,-4.53436 3.301035,-2.50058 7.490503,-5.69157 9.309513,-7.09156 1.819,-1.39997 9.17331,-6.99547 16.34318,-12.43438 7.16988,-5.43889 12.94411,-9.97026 12.83199,-10.06915 -0.11212,-0.0989 -6.21596,-4.74276 -13.56476,-10.3203 -15.47644,-11.74621 -17.73945,-13.46701 -25.322483,-19.25412 -3.085885,-2.35505 -5.721631,-4.28191 -5.857523,-4.28191 z m 0.04754,3.46439 1.609721,1.26607 c 1.799459,1.41556 2.223765,1.73887 23.305035,17.74775 8.29469,6.2989 15.10499,11.47195 15.13396,11.49542 0.029,0.0235 -1.28071,1.04897 -2.91041,2.27893 -1.6297,1.22996 -8.20189,6.23097 -14.6048,11.11354 -6.40291,4.88256 -13.129947,9.99375 -14.948956,11.35796 -1.819008,1.3642 -4.275724,3.23374 -5.459098,4.15479 l -2.15129,1.67483 -4.595585,-3.48299 c -2.527404,-1.91547 -8.762261,-6.65341 -13.855485,-10.52907 -5.093224,-3.87568 -11.968985,-9.10504 -15.279171,-11.62048 -3.310187,-2.51544 -6.080659,-4.67404 -6.15673,-4.79713 -0.07607,-0.12308 3.210833,-2.76117 7.304463,-5.86269 4.093631,-3.10151 8.129033,-6.17523 8.967412,-6.83007 0.838378,-0.65485 4.545781,-3.48202 8.238773,-6.28282 3.692995,-2.8008 8.669685,-6.57549 11.058757,-8.38812 z m -0.05581,3.15019 c -0.100168,0 -1.863926,1.27992 -3.919657,2.84427 -12.78422,9.7284 -25.355657,19.27491 -25.589653,19.43241 -0.150398,0.10123 -0.197019,0.26084 -0.103352,0.3545 0.09367,0.0937 1.01119,-0.32082 2.038635,-0.92088 6.749835,-3.94211 12.769434,-4.92595 17.338993,-2.83393 1.912798,0.8757 3.097678,2.00525 4.12688,3.93464 1.663208,3.11794 1.126196,6.54567 -1.377694,8.79688 -2.109061,1.89623 -4.902139,2.46087 -7.846549,1.58647 -1.672826,-0.49677 -3.124956,-1.85442 -3.367753,-3.14865 -0.255135,-1.35997 0.538284,-2.81452 1.791622,-3.28404 0.894312,-0.33501 1.151311,-0.31341 2.830835,0.2372 1.526728,0.50052 1.91786,0.54623 2.257226,0.26458 1.161568,-0.96401 -0.204849,-2.66612 -2.564184,-3.19412 -3.595925,-0.80473 -7.086731,2.05754 -7.076571,5.80223 0.0031,1.14792 1.010447,3.38136 1.880505,4.16926 1.687508,1.52817 4.644315,2.46546 7.774203,2.46496 6.705709,-0.001 15.419203,-3.72359 27.38438,-11.69902 1.96452,-1.30946 3.79642,-2.59445 4.07107,-2.85564 0.48579,-0.46204 0.47145,-0.48284 -0.52917,-0.76482 -5.17757,-1.45909 -11.544392,-1.90056 -14.720551,-1.02061 -2.042504,0.56588 -3.737995,1.59779 -4.409033,2.68356 -1.664503,2.69323 0.659868,5.80757 3.285587,4.40232 0.813112,-0.43516 0.851795,-0.79324 0.08578,-0.79324 -1.382133,0 -2.012323,-1.64636 -1.012858,-2.64583 0.796096,-0.7961 2.003255,-0.68289 2.963644,0.2775 0.723401,0.7234 0.79217,0.93061 0.669726,2.01693 -0.105262,0.93388 -0.352948,1.42782 -1.082621,2.1575 -0.850735,0.85072 -1.113413,0.95572 -2.60811,1.04128 -2.04882,0.11729 -3.247363,-0.45156 -4.105692,-1.94872 -1.398335,-2.43907 -0.363652,-5.79672 2.316137,-7.51634 4.29648,-2.75705 13.268471,-2.66363 20.866951,0.21756 l 2.48408,0.94154 -0.14779,3.19257 c -0.22797,4.93844 -1.085,8.25684 -2.83084,10.95799 -2.26435,3.50341 -6.55132,4.42096 -8.836671,1.89136 -1.700706,-1.88248 -1.43743,-4.39197 0.603071,-5.75107 2.41436,-1.6081 5.40763,0.55554 3.84834,2.78174 -0.76094,1.0864 -2.76314,0.48168 -2.76314,-0.83457 0,-0.54335 -0.004,-0.54283 -0.57826,0.0315 -0.50019,0.5002 -0.54482,0.71133 -0.33073,1.56683 0.52561,2.10028 2.99755,2.46993 5.22087,0.78083 1.34814,-1.0242 2.67056,-3.53071 3.24373,-6.14898 0.48714,-2.2253 0.82363,-6.82573 0.48886,-6.68331 -0.1317,0.056 -2.14426,1.3599 -4.47259,2.89749 -13.768357,9.09241 -21.925913,12.68243 -28.817886,12.68243 -7.034211,0 -11.629459,-3.33849 -11.653552,-8.46666 -0.02294,-4.88256 4.135098,-8.46266 8.861991,-7.63003 1.874127,0.33012 3.378869,1.1696 4.151168,2.31562 1.786951,2.65166 -0.587188,5.51952 -3.630269,4.38527 -1.866597,-0.69574 -2.501114,-0.75454 -2.904732,-0.26821 -0.558938,0.67348 -0.03503,1.75049 1.189074,2.44378 1.622279,0.9188 4.070083,0.84357 5.854423,-0.17983 1.910258,-1.09561 2.610787,-2.31033 2.598291,-4.50619 -0.01749,-3.07332 -1.819461,-5.34277 -5.028633,-6.33398 -5.099908,-1.57519 -11.248176,0.47118 -19.654615,6.54172 -1.696778,1.22529 -2.638848,2.06733 -2.485119,2.22106 0.136175,0.13618 2.199253,1.72997 4.584733,3.5419 6.085455,4.62229 17.920368,13.6141 24.145296,18.34513 2.890724,2.197 5.37395,3.99459 5.518526,3.99459 0.144576,0 0.993981,-0.57572 1.88774,-1.27951 0.893756,-0.7038 7.102107,-5.4311 13.796064,-10.5053 6.69395,-5.0742 13.2424,-10.04833 14.55208,-11.05359 1.30969,-1.00527 3.12268,-2.37992 4.02921,-3.05459 0.90653,-0.67468 1.6465,-1.34585 1.64383,-1.49138 -0.003,-0.14552 -3.89977,-3.21056 -8.65994,-6.81147 -4.76015,-3.60093 -12.80329,-9.70288 -17.873845,-13.5599 -5.070552,-3.85702 -9.301325,-7.01301 -9.401494,-7.01301 z"
         sodipodi:nodetypes="sccscscsscssssccsssssccccssccsccccscscsssscssccscsccssssssscssscccssssscsssccsssssssssssscssssssccscc" /></g></g></svg>
