<?xml version="1.0" encoding="UTF-8" standalone="no"?>
<!-- Created with Inkscape (http://www.inkscape.org/) -->

<svg
   width="12.68284mm"
   height="12.681941mm"
   viewBox="0 0 12.682841 12.681941"
   version="1.1"
   id="svg5"
   xml:space="preserve"
   inkscape:version="1.2 (dc2aedaf03, 2022-05-15)"
   sodipodi:docname="climate_indicators.svg"
   xmlns:inkscape="http://www.inkscape.org/namespaces/inkscape"
   xmlns:sodipodi="http://sodipodi.sourceforge.net/DTD/sodipodi-0.dtd"
   xmlns="http://www.w3.org/2000/svg"
   xmlns:svg="http://www.w3.org/2000/svg"><sodipodi:namedview
     id="namedview7"
     pagecolor="#ffffff"
     bordercolor="#000000"
     borderopacity="0.25"
     inkscape:showpageshadow="2"
     inkscape:pageopacity="0.0"
     inkscape:pagecheckerboard="0"
     inkscape:deskcolor="#d1d1d1"
     inkscape:document-units="mm"
     showgrid="false"
     inkscape:zoom="2"
     inkscape:cx="257.5"
     inkscape:cy="195.5"
     inkscape:window-width="1920"
     inkscape:window-height="986"
     inkscape:window-x="-11"
     inkscape:window-y="-11"
     inkscape:window-maximized="1"
     inkscape:current-layer="layer1"
     showguides="true" /><defs
     id="defs2"><clipPath
       clipPathUnits="userSpaceOnUse"
       id="clipPath9022"><path
         d="m -619.70501,-468.2343 h 841.88999 v 595.276 h -841.88999 z"
         id="path9024"
         style="stroke-width:1" /></clipPath><clipPath
       clipPathUnits="userSpaceOnUse"
       id="clipPath9026"><path
         d="m -619.70501,-468.2343 h 841.88999 v 595.276 h -841.88999 z"
         id="path9028"
         style="stroke-width:1" /></clipPath><clipPath
       clipPathUnits="userSpaceOnUse"
       id="clipPath9030"><path
         d="m -620.86471,-457.4678 h 841.88999 v 595.276 h -841.88999 z"
         id="path9032"
         style="stroke-width:1" /></clipPath><clipPath
       clipPathUnits="userSpaceOnUse"
       id="clipPath9034"><path
         d="m -620.86471,-457.4678 h 841.88999 v 595.276 h -841.88999 z"
         id="path9036"
         style="stroke-width:1" /></clipPath></defs><g
     inkscape:label="Layer 1"
     inkscape:groupmode="layer"
     id="layer1"
     transform="translate(-71.03108,-56.090128)"><g
       id="g683"
       transform="translate(-37.970591,3.04281)"><g
         id="g276"
         transform="matrix(0.34066565,0,0,-0.34065068,115.34309,65.552873)"
         style="stroke-width:1.03558"
         clip-path="url(#clipPath9034)"><path
           d="m 0,0 c 9.995,0 18.097,8.102 18.097,18.097 0,9.994 -8.102,18.096 -18.097,18.096 -9.995,0 -18.097,-8.102 -18.097,-18.096 C -18.097,8.102 -9.995,0 0,0"
           style="fill:#f2f9fa;fill-opacity:1;fill-rule:nonzero;stroke:none;stroke-width:1.03558"
           id="path278" /></g><g
         id="g280"
         transform="matrix(0.34066565,0,0,-0.34065068,115.34309,65.552873)"
         style="stroke-width:1.03558"
         clip-path="url(#clipPath9030)"><path
           d="m 0,0 c 9.995,0 18.097,8.102 18.097,18.097 0,9.994 -8.102,18.096 -18.097,18.096 -9.995,0 -18.097,-8.102 -18.097,-18.096 C -18.097,8.102 -9.995,0 0,0 Z"
           style="fill:none;stroke:#007d9e;stroke-width:1.03558;stroke-linecap:butt;stroke-linejoin:miter;stroke-miterlimit:4;stroke-dasharray:none;stroke-opacity:1"
           id="path282" /></g><g
         id="g284"
         transform="matrix(0.34066565,0,0,-0.34065068,114.94802,61.885257)"
         style="stroke-width:1.03558"
         clip-path="url(#clipPath9026)"><path
           d="m 0,0 -1.406,-2.435 c -0.1,-0.183 -0.039,-0.417 0.145,-0.522 0.183,-0.106 0.413,-0.043 0.519,0.14 l 1.407,2.435 C 0.772,-0.199 0.711,0.034 0.527,0.14 0.344,0.245 0.107,0.183 0,0 m -7.942,0 -1.406,-2.435 c -0.107,-0.183 -0.046,-0.417 0.137,-0.522 0.184,-0.106 0.413,-0.043 0.52,0.14 l 1.407,2.435 C -7.177,-0.199 -7.239,0.034 -7.422,0.14 -7.605,0.245 -7.842,0.183 -7.942,0 M 3.975,0 2.568,-2.435 C 2.461,-2.618 2.53,-2.852 2.713,-2.957 2.889,-3.063 3.126,-3 3.233,-2.817 L 4.64,-0.382 C 4.747,-0.199 4.686,0.034 4.502,0.14 4.319,0.245 4.082,0.183 3.975,0 m -7.95,0 -1.398,-2.435 c -0.107,-0.183 -0.046,-0.417 0.137,-0.522 0.184,-0.106 0.413,-0.043 0.52,0.14 l 1.406,2.435 C -3.203,-0.199 -3.264,0.034 -3.447,0.14 -3.631,0.245 -3.868,0.183 -3.975,0 M 6.543,4.448 5.136,2.012 C 5.037,1.83 5.098,1.595 5.282,1.49 5.465,1.385 5.694,1.448 5.801,1.63 L 7.208,4.066 C 7.315,4.248 7.246,4.482 7.063,4.588 6.887,4.693 6.65,4.63 6.543,4.448 m -3.975,0 L 1.162,2.012 C 1.062,1.83 1.124,1.595 1.307,1.49 1.49,1.385 1.72,1.448 1.827,1.63 L 3.233,4.066 C 3.34,4.248 3.271,4.482 3.096,4.588 2.912,4.693 2.675,4.63 2.568,4.448 m -7.941,0 L -6.78,2.012 C -6.887,1.83 -6.826,1.595 -6.642,1.49 c 0.183,-0.105 0.413,-0.042 0.52,0.14 l 1.406,2.436 c 0.107,0.182 0.046,0.416 -0.138,0.522 -0.183,0.105 -0.42,0.042 -0.519,-0.14 m 3.967,0 -1.399,-2.436 C -2.912,1.83 -2.851,1.595 -2.668,1.49 c 0.184,-0.105 0.413,-0.042 0.52,0.14 l 1.406,2.436 c 0.108,0.182 0.046,0.416 -0.137,0.522 -0.183,0.105 -0.42,0.042 -0.527,-0.14 m -4.556,8.459 h -0.543 c -0.963,0 -1.88,-0.381 -2.56,-1.059 C -9.746,11.17 -10.12,10.249 -10.12,9.29 V 9.288 c 0,-0.959 0.374,-1.879 1.055,-2.557 0.68,-0.678 1.597,-1.059 2.56,-1.059 H 8.431 c 0.955,0 1.873,0.381 2.553,1.059 0.68,0.678 1.062,1.598 1.062,2.557 V 9.29 c 0,0.959 -0.382,1.88 -1.062,2.558 -0.543,0.545 -1.246,0.898 -1.995,1.015 -0.26,1.842 -1.842,3.263 -3.761,3.263 -0.321,0 -0.634,-0.04 -0.932,-0.116 -1.063,1.297 -2.676,2.126 -4.487,2.126 -3.004,0 -5.488,-2.295 -5.771,-5.229 m 0.352,-0.764 c 0.206,0 0.382,0.162 0.382,0.368 0.099,2.698 2.316,4.861 5.037,4.861 1.651,0 3.118,-0.798 4.043,-2.03 0.1,-0.132 0.268,-0.186 0.428,-0.134 0.299,0.1 0.619,0.153 0.948,0.153 1.621,0 2.943,-1.269 3.027,-2.864 0.008,-0.193 0.161,-0.348 0.359,-0.361 0.688,-0.044 1.338,-0.337 1.827,-0.829 0.535,-0.535 0.841,-1.26 0.841,-2.017 V 9.288 C 11.282,8.532 10.976,7.806 10.441,7.271 9.906,6.737 9.18,6.436 8.431,6.436 H -6.505 c -0.756,0 -1.483,0.301 -2.018,0.835 -0.535,0.535 -0.833,1.261 -0.833,2.017 V 9.29 c 0,0.757 0.298,1.482 0.833,2.017 0.535,0.534 1.262,0.836 2.018,0.836 z"
           style="fill:#007d9e;fill-opacity:1;fill-rule:nonzero;stroke:none;stroke-width:1.03558"
           id="path286" /></g><g
         id="g288"
         transform="matrix(0.34066565,0,0,-0.34065068,114.94802,61.885257)"
         style="stroke-width:1.03558"
         clip-path="url(#clipPath9022)"><path
           d="m 0,0 -1.406,-2.435 c -0.1,-0.183 -0.039,-0.417 0.145,-0.522 0.183,-0.106 0.413,-0.043 0.519,0.14 l 1.407,2.435 C 0.772,-0.199 0.711,0.034 0.527,0.14 0.344,0.245 0.107,0.183 0,0 Z m -7.942,0 -1.406,-2.435 c -0.107,-0.183 -0.046,-0.417 0.137,-0.522 0.184,-0.106 0.413,-0.043 0.52,0.14 l 1.407,2.435 C -7.177,-0.199 -7.239,0.034 -7.422,0.14 -7.605,0.245 -7.842,0.183 -7.942,0 Z M 3.975,0 2.568,-2.435 C 2.461,-2.618 2.53,-2.852 2.713,-2.957 2.889,-3.063 3.126,-3 3.233,-2.817 L 4.64,-0.382 C 4.747,-0.199 4.686,0.034 4.502,0.14 4.319,0.245 4.082,0.183 3.975,0 Z m -7.95,0 -1.398,-2.435 c -0.107,-0.183 -0.046,-0.417 0.137,-0.522 0.184,-0.106 0.413,-0.043 0.52,0.14 l 1.406,2.435 C -3.203,-0.199 -3.264,0.034 -3.447,0.14 -3.631,0.245 -3.868,0.183 -3.975,0 Z M 6.543,4.448 5.136,2.012 C 5.037,1.83 5.098,1.595 5.282,1.49 5.465,1.385 5.694,1.448 5.801,1.63 L 7.208,4.066 C 7.315,4.248 7.246,4.482 7.063,4.588 6.887,4.693 6.65,4.63 6.543,4.448 Z m -3.975,0 L 1.162,2.012 C 1.062,1.83 1.124,1.595 1.307,1.49 1.49,1.385 1.72,1.448 1.827,1.63 L 3.233,4.066 C 3.34,4.248 3.271,4.482 3.096,4.588 2.912,4.693 2.675,4.63 2.568,4.448 Z m -7.941,0 L -6.78,2.012 C -6.887,1.83 -6.826,1.595 -6.642,1.49 c 0.183,-0.105 0.413,-0.042 0.52,0.14 l 1.406,2.436 c 0.107,0.182 0.046,0.416 -0.138,0.522 -0.183,0.105 -0.42,0.042 -0.519,-0.14 z m 3.967,0 -1.399,-2.436 C -2.912,1.83 -2.851,1.595 -2.668,1.49 c 0.184,-0.105 0.413,-0.042 0.52,0.14 l 1.406,2.436 c 0.108,0.182 0.046,0.416 -0.137,0.522 -0.183,0.105 -0.42,0.042 -0.527,-0.14 z m -4.556,8.459 h -0.543 c -0.963,0 -1.88,-0.381 -2.56,-1.059 C -9.746,11.17 -10.12,10.249 -10.12,9.29 V 9.288 c 0,-0.959 0.374,-1.879 1.055,-2.557 0.68,-0.678 1.597,-1.059 2.56,-1.059 H 8.431 c 0.955,0 1.873,0.381 2.553,1.059 0.68,0.678 1.062,1.598 1.062,2.557 V 9.29 c 0,0.959 -0.382,1.88 -1.062,2.558 -0.543,0.545 -1.246,0.898 -1.995,1.015 -0.26,1.842 -1.842,3.263 -3.761,3.263 -0.321,0 -0.634,-0.04 -0.932,-0.116 -1.063,1.297 -2.676,2.126 -4.487,2.126 -3.004,0 -5.488,-2.295 -5.771,-5.229 z m 0.352,-0.764 c 0.206,0 0.382,0.162 0.382,0.368 0.099,2.698 2.316,4.861 5.037,4.861 1.651,0 3.118,-0.798 4.043,-2.03 0.1,-0.132 0.268,-0.186 0.428,-0.134 0.299,0.1 0.619,0.153 0.948,0.153 1.621,0 2.943,-1.269 3.027,-2.864 0.008,-0.193 0.161,-0.348 0.359,-0.361 0.688,-0.044 1.338,-0.337 1.827,-0.829 0.535,-0.535 0.841,-1.26 0.841,-2.017 V 9.288 C 11.282,8.532 10.976,7.806 10.441,7.271 9.906,6.737 9.18,6.436 8.431,6.436 H -6.505 c -0.756,0 -1.483,0.301 -2.018,0.835 -0.535,0.535 -0.833,1.261 -0.833,2.017 V 9.29 c 0,0.757 0.298,1.482 0.833,2.017 0.535,0.534 1.262,0.836 2.018,0.836 z"
           style="fill:none;stroke:#007d9e;stroke-width:0.258894;stroke-linecap:butt;stroke-linejoin:miter;stroke-miterlimit:10;stroke-dasharray:none;stroke-opacity:1"
           id="path290" /></g></g></g></svg>
