<?xml version="1.0" encoding="UTF-8" standalone="no"?>
<!-- Created with Inkscape (http://www.inkscape.org/) -->

<svg
   width="219.57008mm"
   height="19.593626mm"
   viewBox="0 0 219.57008 19.593626"
   version="1.1"
   id="svg5"
   xml:space="preserve"
   inkscape:version="1.2 (dc2aedaf03, 2022-05-15)"
   sodipodi:docname="footer_logo.svg"
   xmlns:inkscape="http://www.inkscape.org/namespaces/inkscape"
   xmlns:sodipodi="http://sodipodi.sourceforge.net/DTD/sodipodi-0.dtd"
   xmlns="http://www.w3.org/2000/svg"
   xmlns:svg="http://www.w3.org/2000/svg"><sodipodi:namedview
     id="namedview7"
     pagecolor="#ffffff"
     bordercolor="#000000"
     borderopacity="0.25"
     inkscape:showpageshadow="2"
     inkscape:pageopacity="0.0"
     inkscape:pagecheckerboard="0"
     inkscape:deskcolor="#d1d1d1"
     inkscape:document-units="mm"
     showgrid="false"
     inkscape:zoom="0.5946522"
     inkscape:cx="345.58016"
     inkscape:cy="116.03421"
     inkscape:window-width="1680"
     inkscape:window-height="987"
     inkscape:window-x="-8"
     inkscape:window-y="-8"
     inkscape:window-maximized="1"
     inkscape:current-layer="layer1" /><defs
     id="defs2"><pattern
       id="EMFhbasepattern"
       patternUnits="userSpaceOnUse"
       width="6"
       height="6"
       x="0"
       y="0" /></defs><g
     inkscape:label="Layer 1"
     inkscape:groupmode="layer"
     id="layer1"
     transform="translate(13.016934,-194.5428)"><g
       id="g879"
       transform="translate(-0.88987629,7.4527126)"
       style="fill:#ffffff"><path
         style="fill:#ffffff;stroke-width:0.264732"
         d="m 135.04226,206.44639 c -0.10752,-0.17398 -0.082,-0.42985 0.0568,-0.56861 0.13877,-0.13877 1.73067,-0.42632 3.53758,-0.63901 1.8069,-0.21269 4.00005,-0.5045 4.87367,-0.64846 0.87361,-0.14397 2.77968,-0.38039 4.23571,-0.52538 1.45602,-0.14499 4.61295,-0.38798 7.01539,-0.53997 2.40244,-0.152 7.94195,-0.3488 12.31002,-0.43735 4.68354,-0.0949 10.71161,-0.0352 14.69261,0.1456 3.71287,0.16863 8.95109,0.49206 11.6405,0.71875 2.6894,0.22669 4.96634,0.45944 5.05984,0.51723 0.0935,0.0578 1.76479,0.28925 3.71395,0.51435 1.94917,0.22509 3.9311,0.47966 4.40431,0.56569 0.63452,0.11537 0.86038,0.29657 0.86038,0.69027 0,0.46866 -0.12127,0.51445 -0.99326,0.37501 -0.5463,-0.0874 -3.31605,-0.39533 -6.15502,-0.68437 -2.83896,-0.28905 -7.00825,-0.65295 -9.26509,-0.80867 -2.25683,-0.15571 -5.49206,-0.39905 -7.18939,-0.54075 -1.69733,-0.1417 -7.3968,-0.25764 -12.66549,-0.25764 -5.26869,0 -10.96816,0.11512 -12.66548,0.25583 -1.69733,0.1407 -4.87299,0.38465 -7.05703,0.54212 -2.18404,0.15746 -6.29376,0.52217 -9.13273,0.81047 -2.83896,0.2883 -5.59375,0.59326 -6.12176,0.67769 -0.61062,0.0976 -1.03116,0.0384 -1.15551,-0.1628 z m -33.9427,-1.37057 c -0.72059,-0.16158 -1.355068,-0.53763 -1.800736,-1.06728 -0.517545,-0.61506 -0.668302,-1.05479 -0.608152,-1.77383 0.07502,-0.89683 0.141459,-0.96113 1.072719,-1.03821 0.974969,-0.0807 0.992749,-0.0654 0.992749,0.85107 0,0.65171 0.15446,1.01589 0.51206,1.20727 0.28163,0.15073 1.15663,0.27405 1.94445,0.27405 1.05148,0 1.54891,-0.12875 1.87053,-0.48413 0.24097,-0.26627 0.43813,-0.79816 0.43813,-1.18198 0,-0.44082 -0.20742,-0.80886 -0.56315,-0.99924 -0.30974,-0.16576 -1.50604,-0.36601 -2.65846,-0.445 -1.82663,-0.1252 -2.16178,-0.22812 -2.613634,-0.80256 -0.285077,-0.36241 -0.518321,-0.77116 -0.518321,-0.90833 0,-0.13717 0.346849,-0.59624 0.770777,-1.02017 l 0.770778,-0.77078 -0.903144,-0.90314 c -0.768108,-0.76811 -0.903143,-1.08675 -0.903143,-2.13116 0,-1.0635 0.139403,-1.37737 1.040579,-2.34288 l 1.040578,-1.11485 2.07002,0.0746 c 1.13851,0.041 2.48697,0.099 2.99658,0.12881 0.50961,0.0298 1.17891,-0.0366 1.48733,-0.14756 0.43824,-0.15767 0.66125,-0.0484 1.02066,0.50014 0.37858,0.57778 0.39645,0.74211 0.10107,0.92928 -0.19736,0.12505 -0.74601,0.2292 -1.21922,0.23143 -0.47321,0.002 -0.86038,0.11615 -0.86038,0.25316 0,0.13701 0.11913,0.32273 0.26473,0.41272 0.14561,0.09 0.26474,0.52575 0.26474,0.96836 0,0.44261 -0.17866,1.18124 -0.39702,1.6414 -0.21837,0.46017 -0.6651,1.00574 -0.99275,1.21239 -0.32765,0.20666 -1.17669,0.4688 -1.88677,0.58255 -0.71008,0.11375 -1.51139,0.40622 -1.7807,0.64994 -0.2693,0.24372 -0.43565,0.53049 -0.36966,0.63727 0.066,0.10677 0.98644,0.25373 2.04543,0.32657 1.05899,0.0728 2.24731,0.28388 2.6407,0.46899 0.39339,0.1851 0.91077,0.74858 1.14974,1.25217 0.29083,0.61289 0.37746,1.21961 0.262,1.83506 -0.0949,0.50569 -0.49312,1.25473 -0.88501,1.66454 -0.39189,0.40981 -1.18904,0.87729 -1.77145,1.03884 -0.58241,0.16155 -1.47588,0.28163 -1.98549,0.26685 -0.50961,-0.0148 -1.42723,-0.13914 -2.03916,-0.27636 z m 3.21544,-9.81252 c 0.22666,-0.3236 0.41211,-1.02379 0.41211,-1.55598 0,-0.53218 -0.14891,-1.08411 -0.33091,-1.22652 -0.18201,-0.1424 -0.61174,-0.32787 -0.95498,-0.41215 -0.34323,-0.0843 -0.91123,-0.0441 -1.26222,0.0894 -0.35099,0.13345 -0.76176,0.56772 -0.91283,0.96505 -0.15107,0.39734 -0.20832,0.98679 -0.12722,1.3099 0.0811,0.32311 0.33447,0.77449 0.56305,1.00308 0.22859,0.22858 0.8173,0.41561 1.30825,0.41561 0.62233,0 1.01744,-0.17818 1.30475,-0.58837 z m -82.128088,6.11367 c -0.525349,-0.1515 -1.082223,-0.58811 -1.404579,-1.10123 -0.406146,-0.6465 -0.507038,-1.1634 -0.421093,-2.15743 0.09347,-1.08114 0.272899,-1.45376 1.037338,-2.15431 0.602718,-0.55235 1.40203,-0.94953 2.297329,-1.14153 0.75516,-0.16196 1.664975,-0.29446 2.021814,-0.29446 0.557507,0 0.6488,-0.12293 0.6488,-0.87362 0,-0.48049 -0.142955,-1.01657 -0.317678,-1.19129 -0.174723,-0.17472 -0.804745,-0.31768 -1.40005,-0.31768 -0.595305,0 -1.51983,0.22303 -2.054504,0.49562 -0.913996,0.46598 -0.996503,0.4687 -1.379633,0.0453 -0.224127,-0.24766 -0.407502,-0.5964 -0.407502,-0.775 0,-0.17859 0.665748,-0.6295 1.479438,-1.00202 1.208386,-0.55322 1.768304,-0.65642 3.056137,-0.56326 1.272084,0.092 1.715091,0.25231 2.292992,0.82971 0.699641,0.69903 0.719364,0.8069 0.848653,4.64188 0.0811,2.40566 0.251633,4.06963 0.440326,4.2965 0.239431,0.28789 0.200537,0.50282 -0.1748,0.96593 -0.265518,0.3276 -0.575116,0.59564 -0.687995,0.59564 -0.112879,0 -0.457764,-0.23724 -0.766412,-0.52719 -0.560373,-0.52645 -0.562658,-0.52645 -1.595244,0 -0.568739,0.28995 -1.396049,0.51645 -1.838472,0.50332 -0.442422,-0.0131 -1.196111,-0.13684 -1.674865,-0.27492 z m 3.365101,-1.97496 c 0.711061,-0.59832 0.814508,-0.85476 0.814508,-2.01917 v -1.33381 l -1.326341,0.12745 c -0.750692,0.0721 -1.55497,0.33435 -1.853122,0.60417 -0.335627,0.30374 -0.526781,0.81452 -0.526781,1.4076 0,0.51198 0.197156,1.14873 0.438128,1.415 0.240969,0.26627 0.708345,0.48412 1.038614,0.48412 0.330269,0 0.967017,-0.30841 1.414994,-0.68536 z m 20.669387,2.10113 c -0.218404,-0.072 -0.683561,-0.27102 -1.033679,-0.44238 -0.350121,-0.17136 -0.796856,-0.6949 -0.992744,-1.16343 -0.195891,-0.46853 -0.356163,-1.15944 -0.356163,-1.53536 0,-0.37591 0.176897,-1.02556 0.393103,-1.44365 0.216207,-0.4181 0.75785,-1.0199 1.203651,-1.33734 0.476263,-0.33913 1.569711,-0.69467 2.651312,-0.86209 1.824007,-0.28233 1.840764,-0.29244 1.840764,-1.11152 0,-0.45462 -0.142955,-0.96955 -0.317678,-1.14427 -0.174723,-0.17472 -0.804745,-0.31768 -1.40005,-0.31768 -0.595304,0 -1.526162,0.22626 -2.068574,0.5028 -0.981882,0.50059 -0.987928,0.50033 -1.379633,-0.0589 -0.216386,-0.30893 -0.393431,-0.66091 -0.393431,-0.78217 0,-0.12126 0.665747,-0.52526 1.479437,-0.89778 1.216228,-0.55681 1.764861,-0.65666 3.083767,-0.56126 1.397607,0.10109 1.701595,0.2249 2.359173,0.96086 0.752476,0.84217 0.754843,0.85624 0.754843,4.48798 0,2.6887 0.09679,3.78135 0.369441,4.17061 0.322544,0.4605 0.308757,0.6024 -0.108617,1.11783 -0.262931,0.32471 -0.570415,0.59038 -0.683294,0.59038 -0.112879,0 -0.457763,-0.23724 -0.766411,-0.52719 -0.560374,-0.52645 -0.562658,-0.52645 -1.595244,0 -0.568739,0.28995 -1.39605,0.51779 -1.838472,0.50629 -0.442422,-0.0115 -0.983097,-0.0798 -1.201501,-0.15172 z m 2.654595,-1.8637 c 0.360003,-0.24637 0.742075,-0.57397 0.849047,-0.72801 0.106973,-0.15405 0.19632,-0.8611 0.198549,-1.57124 l 0.004,-1.29116 -1.32634,0.12745 c -0.750692,0.0721 -1.55497,0.33435 -1.853122,0.60417 -0.335624,0.30374 -0.526779,0.81452 -0.526779,1.4076 0,0.51198 0.197156,1.14873 0.438128,1.415 0.24097,0.26627 0.690979,0.48412 1.000022,0.48412 0.309042,0 0.856444,-0.20157 1.216445,-0.44793 z m 16.803187,1.84682 c -0.291205,-0.0704 -0.797685,-0.37539 -1.125512,-0.67764 -0.327828,-0.30226 -0.701307,-0.93078 -0.829956,-1.3967 -0.128649,-0.46593 -0.170699,-1.18955 -0.09344,-1.60805 0.07726,-0.4185 0.280192,-0.96501 0.450965,-1.21446 0.170776,-0.24945 0.628825,-0.70394 1.017888,-1.00998 0.422271,-0.33215 1.482,-0.68661 2.629213,-0.87941 1.91459,-0.32176 1.921473,-0.32593 1.829937,-1.10787 -0.05053,-0.4317 -0.214033,-0.93381 -0.363329,-1.11581 -0.149295,-0.18201 -0.738125,-0.33092 -1.308505,-0.33092 -0.570383,0 -1.497373,0.23484 -2.059978,0.52186 l -1.022921,0.52185 -0.443712,-0.67719 c -0.24404,-0.37245 -0.404409,-0.71362 -0.356374,-0.75814 0.04803,-0.0445 0.563853,-0.34859 1.146262,-0.67572 0.680591,-0.38227 1.680941,-0.64043 2.799888,-0.72256 1.665213,-0.12222 1.783275,-0.0906 2.7135,0.72612 l 0.97254,0.8539 v 3.5596 c 0,2.71944 0.09827,3.74963 0.416343,4.36472 0.383501,0.74161 0.380266,0.84498 -0.04103,1.31051 -0.251556,0.27797 -0.558038,0.50539 -0.681075,0.50539 -0.123034,0 -0.46912,-0.24542 -0.769077,-0.54537 l -0.545377,-0.54538 -1.126595,0.54538 c -0.619628,0.29995 -1.476155,0.53155 -1.903392,0.51466 -0.42724,-0.0169 -1.015055,-0.0883 -1.30626,-0.15879 z m 2.978232,-1.92545 c 0.803257,-0.48975 0.860378,-0.62151 0.860378,-1.9845 0,-1.42866 -0.01616,-1.45991 -0.754692,-1.45991 -0.415078,0 -1.132369,0.13166 -1.593979,0.29257 -0.461607,0.16092 -0.955901,0.51048 -1.09843,0.7768 -0.142529,0.26631 -0.259143,0.78987 -0.259143,1.16344 0,0.37358 0.238258,0.91749 0.529463,1.2087 0.291205,0.2912 0.73794,0.52902 0.992744,0.52847 0.254804,-5.5e-4 0.850451,-0.23705 1.323659,-0.52557 z m 6.525547,1.73693 c -0.451418,-0.19651 -0.898153,-0.55898 -0.992744,-0.80548 -0.09459,-0.24651 -0.171986,-2.22539 -0.171986,-4.39751 v -3.94933 h -0.661829 c -0.558878,0 -0.66183,-0.12354 -0.66183,-0.79419 0,-0.67066 0.102952,-0.7942 0.66183,-0.7942 0.615776,0 0.661829,-0.0901 0.661829,-1.29533 0,-0.93697 0.115852,-1.3398 0.41875,-1.45603 0.230311,-0.0884 0.706828,-0.16069 1.058927,-0.16069 0.599485,0 0.640177,0.0925 0.640177,1.45603 v 1.45602 h 1.191293 c 0.805123,0 1.191292,0.11232 1.191292,0.3465 0,0.19058 -0.148911,0.5413 -0.330914,0.77938 -0.182003,0.23808 -0.747867,0.46933 -1.257476,0.51388 l -0.926561,0.081 -0.06651,3.17678 c -0.04596,2.19522 0.03916,3.38127 0.275475,3.83861 0.264824,0.5125 0.548611,0.66183 1.257801,0.66183 0.747989,0 0.931311,0.10908 1.000358,0.59522 0.06248,0.4399 -0.09744,0.66441 -0.61288,0.86038 -0.383581,0.14583 -0.957705,0.26049 -1.275833,0.25479 -0.318125,-0.006 -0.947752,-0.17114 -1.39917,-0.36766 z m 5.818443,-0.002 c -0.454526,-0.19782 -1.02039,-0.63662 -1.257476,-0.9751 -0.264112,-0.37707 -0.431062,-1.14865 -0.431062,-1.99218 0,-1.19262 0.112031,-1.48879 0.837621,-2.21438 0.460694,-0.46069 1.104795,-0.9392 1.431339,-1.06335 0.326541,-0.12416 1.329752,-0.30901 2.229358,-0.41079 l 1.635648,-0.18505 -0.179231,-0.95539 c -0.09858,-0.52546 -0.31721,-1.04318 -0.485849,-1.15049 -0.16864,-0.10731 -0.758099,-0.19692 -1.309909,-0.19915 -0.551809,-0.002 -1.463603,0.23078 -2.026209,0.5178 l -1.02292,0.52185 -0.443712,-0.67719 c -0.24404,-0.37245 -0.404409,-0.71362 -0.356374,-0.75814 0.04803,-0.0445 0.562375,-0.34587 1.142982,-0.66966 0.597698,-0.33333 1.733572,-0.6502 2.618377,-0.73043 1.17337,-0.10639 1.770171,-0.03 2.395324,0.30668 0.457928,0.24661 0.995609,0.70941 1.194848,1.02844 0.264719,0.42388 0.34943,1.49002 0.314631,3.95979 -0.03733,2.64942 0.04382,3.55656 0.375549,4.19805 0.391789,0.75763 0.389253,0.85578 -0.03421,1.3237 -0.251556,0.27797 -0.558038,0.50539 -0.681075,0.50539 -0.123034,0 -0.469121,-0.24542 -0.769078,-0.54537 l -0.545376,-0.54538 -1.126595,0.54538 c -0.619629,0.29995 -1.476155,0.54071 -1.903392,0.53501 -0.42724,-0.006 -1.148682,-0.17221 -1.60321,-0.37003 z m 3.275181,-1.73455 c 0.803257,-0.48975 0.860378,-0.62151 0.860378,-1.9845 0,-1.42866 -0.01616,-1.45991 -0.754691,-1.45991 -0.415079,0 -1.132369,0.13166 -1.593979,0.29257 -0.461608,0.16092 -0.955901,0.51048 -1.09843,0.7768 -0.142529,0.26631 -0.259144,0.78987 -0.259144,1.16344 0,0.37358 0.238259,0.91749 0.529464,1.2087 0.291205,0.2912 0.737939,0.52902 0.992744,0.52847 0.254804,-5.5e-4 0.85045,-0.23705 1.323658,-0.52557 z m 26.374775,1.73456 c -0.45453,-0.19783 -1.02039,-0.63662 -1.25748,-0.97511 -0.24919,-0.35576 -0.4271,-1.12113 -0.42168,-1.814 0.005,-0.65921 0.15407,-1.4566 0.33092,-1.77198 0.17684,-0.31538 0.65428,-0.83437 1.06097,-1.15332 0.49216,-0.38597 1.40674,-0.67354 2.73481,-0.8599 l 1.99536,-0.28 -0.1777,-0.94725 c -0.0977,-0.52099 -0.23349,-1.03751 -0.30167,-1.14782 -0.0682,-0.11031 -0.65775,-0.20057 -1.31017,-0.20057 -0.65802,0 -1.6417,0.23237 -2.20913,0.52186 l -1.02292,0.52185 -0.44371,-0.67719 c -0.24405,-0.37245 -0.40441,-0.70489 -0.35638,-0.73876 0.048,-0.0339 0.56385,-0.34573 1.14626,-0.69305 0.86176,-0.5139 1.43609,-0.63371 3.08446,-0.64347 1.88583,-0.0112 2.07298,0.0392 2.7135,0.72966 0.37839,0.40791 0.70699,1.06312 0.73023,1.45602 0.0232,0.39291 0.01,1.98355 -0.03,3.53477 -0.0598,2.33224 0.0104,2.9604 0.40558,3.62933 0.46164,0.78148 0.46126,0.82727 -0.011,1.34913 -0.26888,0.29711 -0.58954,0.54019 -0.71257,0.54019 -0.12304,0 -0.46912,-0.24542 -0.76908,-0.54537 l -0.54538,-0.54538 -1.12659,0.54538 c -0.61963,0.29995 -1.47616,0.54071 -1.90339,0.53501 -0.42724,-0.006 -1.14868,-0.17221 -1.60321,-0.37003 z m 3.36668,-1.75549 c 0.68712,-0.48927 0.76888,-0.70039 0.76888,-1.98548 0,-1.40457 -0.0175,-1.438 -0.7547,-1.438 -0.41507,0 -1.1186,0.12686 -1.56338,0.28191 -0.48957,0.17067 -0.93252,0.58084 -1.12247,1.03941 -0.17585,0.42454 -0.22809,1.02745 -0.11884,1.37165 0.10721,0.33778 0.38606,0.75972 0.61968,0.93765 0.23361,0.17793 0.64462,0.3273 0.91335,0.33193 0.26873,0.005 0.8346,-0.23795 1.25748,-0.53907 z m 11.34269,1.89843 c -0.37251,-0.1205 -0.93464,-0.35682 -1.24917,-0.52515 -0.31454,-0.16833 -0.89634,-0.85971 -1.2929,-1.53638 -0.59469,-1.01476 -0.7237,-1.55891 -0.73632,-3.10573 -0.01,-1.2062 0.155,-2.3167 0.46194,-3.11211 0.28598,-0.74106 0.84511,-1.5173 1.39512,-1.93681 0.50484,-0.38506 1.3258,-0.7663 1.82437,-0.8472 0.49857,-0.0809 1.31071,-0.0713 1.80476,0.0214 0.49406,0.0927 1.39146,0.59067 1.99424,1.10662 0.74913,0.64123 1.19074,1.28927 1.39545,2.04776 0.16472,0.61031 0.29556,1.84042 0.29076,2.73359 -0.006,1.19281 -0.18291,1.96591 -0.66482,2.91205 -0.36086,0.70849 -1.0152,1.49751 -1.45418,1.75346 -0.43895,0.25595 -1.31421,0.51986 -1.94503,0.58647 -0.63081,0.0666 -1.45172,0.0225 -1.82422,-0.098 z m 2.7706,-2.22889 c 0.41899,-0.41899 0.67021,-1.06939 0.79317,-2.05349 0.1009,-0.80759 0.0517,-2.03847 -0.11209,-2.80202 -0.16063,-0.74895 -0.5289,-1.57608 -0.81837,-1.83806 -0.29406,-0.26611 -0.93203,-0.47632 -1.44561,-0.47632 -0.59763,0 -1.12563,0.20635 -1.50904,0.58976 -0.53037,0.53037 -0.58977,0.85349 -0.58977,3.2084 0,2.40706 0.0519,2.67383 0.6418,3.30179 0.44377,0.47237 0.91715,0.68316 1.53424,0.68316 0.5801,0 1.10706,-0.21462 1.50567,-0.61322 z m 22.37891,2.21532 c -0.37251,-0.11304 -0.93464,-0.34325 -1.24917,-0.51158 -0.31453,-0.16833 -0.90322,-0.86973 -1.3082,-1.55867 -0.64051,-1.08962 -0.73596,-1.52817 -0.73356,-3.37046 0.002,-1.53477 0.13981,-2.39529 0.50054,-3.12554 0.27378,-0.55423 0.91847,-1.32857 1.43265,-1.72076 0.78113,-0.59579 1.20289,-0.71306 2.56449,-0.71306 1.38822,0 1.77787,0.11308 2.63056,0.76346 0.55052,0.4199 1.22363,1.25381 1.49578,1.85312 0.33571,0.73925 0.49671,1.71026 0.50065,3.01951 0.004,1.38533 -0.1363,2.20699 -0.49788,2.91205 -0.27704,0.54021 -0.79404,1.25308 -1.1489,1.58417 -0.35487,0.33108 -1.05067,0.71825 -1.54623,0.86037 -0.49556,0.14213 -1.14006,0.24817 -1.43223,0.23566 -0.29217,-0.0125 -0.83599,-0.11524 -1.2085,-0.22827 z m 2.8316,-2.27631 c 0.64669,-0.6467 0.67051,-0.7815 0.58361,-3.30233 -0.0792,-2.29614 -0.1651,-2.70253 -0.68037,-3.21734 -0.38775,-0.3874 -0.91117,-0.58923 -1.52809,-0.58923 -0.60088,0 -1.13868,0.20035 -1.49544,0.55712 -0.42495,0.42494 -0.58861,0.99716 -0.68983,2.41196 -0.073,1.02016 -0.0513,2.28904 0.0483,2.81974 0.0996,0.53069 0.41263,1.19651 0.69571,1.47959 0.31622,0.31622 0.87665,0.5147 1.45329,0.5147 0.6528,0 1.1439,-0.2053 1.61282,-0.67421 z m 6.5433,2.35525 c -0.3124,-0.0672 -0.78892,-0.36597 -1.05893,-0.66387 -0.42423,-0.46806 -0.50242,-1.09329 -0.57551,-4.60202 -0.0821,-3.94055 -0.10162,-4.06279 -0.66183,-4.14255 -0.41732,-0.0594 -0.57724,-0.26554 -0.57724,-0.74401 0,-0.47319 0.16038,-0.68471 0.56268,-0.74211 0.43772,-0.0624 0.59445,-0.31716 0.70575,-1.14697 0.0787,-0.58669 0.18287,-1.10062 0.23152,-1.14208 0.0486,-0.0415 0.54741,-0.15845 1.10837,-0.25997 l 1.01994,-0.18458 -0.1844,1.34076 -0.1844,1.34075 h 1.3485 c 0.74167,0 1.3485,0.054 1.3485,0.11991 0,0.0659 -0.13825,0.42334 -0.30723,0.7942 -0.25157,0.55213 -0.49135,0.67428 -1.32365,0.67428 h -1.01644 v 3.55497 c 0,2.96245 0.0734,3.62838 0.44043,3.9954 0.29044,0.29044 0.68672,0.39118 1.1636,0.2958 0.58504,-0.11701 0.75208,-0.0341 0.87456,0.43429 0.0833,0.31841 0.0659,0.66423 -0.0385,0.76849 -0.10443,0.10426 -0.66639,0.244 -1.2488,0.31054 -0.58241,0.0666 -1.31453,0.066 -1.62693,-0.001 z m 14.56656,-0.20831 c -0.45452,-0.19783 -1.02039,-0.63662 -1.25747,-0.97511 -0.24919,-0.35576 -0.42711,-1.12113 -0.42168,-1.814 0.005,-0.65921 0.15406,-1.4566 0.33091,-1.77198 0.17684,-0.31538 0.65768,-0.83704 1.06853,-1.15926 0.49555,-0.38865 1.41534,-0.68213 2.73256,-0.87189 l 1.98556,-0.28605 -0.17546,-0.93526 c -0.0965,-0.5144 -0.23123,-1.02552 -0.29941,-1.13583 -0.0682,-0.11031 -0.65775,-0.20057 -1.31017,-0.20057 -0.65802,0 -1.6417,0.23237 -2.20914,0.52186 l -1.02292,0.52185 -0.44371,-0.67719 c -0.24404,-0.37245 -0.40441,-0.70489 -0.35637,-0.73876 0.048,-0.0339 0.55449,-0.32938 1.12546,-0.6567 0.57097,-0.32733 1.60245,-0.66198 2.29218,-0.74367 0.68973,-0.0817 1.65213,-0.067 2.13865,0.0326 0.51686,0.10581 1.14265,0.50762 1.50534,0.96655 0.5836,0.73847 0.61872,0.99076 0.58709,4.2176 -0.0263,2.68267 0.0591,3.61156 0.39126,4.2538 0.39389,0.7617 0.39152,0.85854 -0.0325,1.32705 -0.25156,0.27797 -0.55804,0.50539 -0.68108,0.50539 -0.12303,0 -0.46912,-0.24542 -0.76907,-0.54537 l -0.54538,-0.54538 -1.1266,0.54538 c -0.61962,0.29995 -1.47615,0.54071 -1.90339,0.53501 -0.42724,-0.006 -1.14868,-0.17221 -1.60321,-0.37003 z m 3.27518,-1.73456 c 0.80326,-0.48975 0.86038,-0.62151 0.86038,-1.9845 0,-1.43844 -0.0114,-1.45991 -0.77696,-1.45991 -0.42733,0 -1.10261,0.12381 -1.50063,0.27514 -0.39802,0.15132 -0.8785,0.47893 -1.06774,0.72801 -0.18924,0.24908 -0.34786,0.78048 -0.35249,1.18088 -0.005,0.40041 0.22984,0.96627 0.52104,1.25748 0.29121,0.2912 0.73794,0.52902 0.99275,0.52847 0.2548,-5.5e-4 0.85045,-0.23705 1.32365,-0.52557 z m 13.65564,1.82446 c -0.46114,-0.1335 -1.16418,-0.62906 -1.56233,-1.10123 -0.39814,-0.47217 -0.89817,-1.27448 -1.11118,-1.78291 -0.26896,-0.64196 -0.35124,-1.53171 -0.26931,-2.91205 0.0664,-1.11933 0.31085,-2.35751 0.55949,-2.83433 0.24283,-0.46568 0.8791,-1.18045 1.41393,-1.58839 0.82178,-0.6268 1.22486,-0.74169 2.60202,-0.74169 1.3616,0 1.78336,0.11727 2.56449,0.71306 0.51418,0.39219 1.13979,1.14488 1.39022,1.67264 0.25044,0.52776 0.52069,1.59271 0.60056,2.36654 0.0799,0.77384 -0.002,2.02209 -0.18271,2.77389 -0.20486,0.85396 -0.64093,1.69881 -1.16204,2.25134 -0.45876,0.48644 -1.30925,1.01634 -1.88995,1.17755 -0.58071,0.16122 -1.2941,0.28304 -1.5853,0.27072 -0.29121,-0.0123 -0.90676,-0.13163 -1.36789,-0.26514 z m 2.67969,-1.72707 c 0.23569,-0.0905 0.60283,-0.50149 0.81585,-0.91342 0.23629,-0.45695 0.38714,-1.50241 0.38689,-2.68142 -2.6e-4,-1.31532 -0.14823,-2.22331 -0.46328,-2.84325 -0.27582,-0.54272 -0.76251,-1.00813 -1.20434,-1.15165 -0.49433,-0.16058 -0.99595,-0.13545 -1.50502,0.0754 -0.46447,0.19239 -0.87399,0.63305 -1.04548,1.12497 -0.15505,0.44479 -0.28191,1.69031 -0.28191,2.76783 0,1.21129 0.14946,2.24815 0.39153,2.71626 0.21534,0.41643 0.54295,0.81806 0.72801,0.89252 0.18507,0.0745 0.65435,0.14479 1.04285,0.15628 0.3885,0.0115 0.8992,-0.0531 1.1349,-0.14354 z m 5.972,1.55387 c -0.50758,-0.25458 -1.07169,-0.76069 -1.25357,-1.1247 -0.18188,-0.364 -0.33245,-1.04124 -0.3346,-1.50497 -0.002,-0.46373 0.10783,-1.13702 0.24439,-1.49619 0.13656,-0.35918 0.66782,-0.97305 1.18059,-1.36415 0.65187,-0.49721 1.49293,-0.79788 2.79613,-0.9996 1.84907,-0.2862 1.86382,-0.29503 1.86382,-1.11509 0,-0.45462 -0.14295,-0.96955 -0.31768,-1.14427 -0.17472,-0.17472 -0.80474,-0.31768 -1.40005,-0.31768 -0.5953,0 -1.51983,0.22303 -2.0545,0.49562 -0.914,0.46598 -0.9965,0.4687 -1.37963,0.0453 -0.22413,-0.24766 -0.4075,-0.5964 -0.4075,-0.775 0,-0.17859 0.66574,-0.6295 1.47943,-1.00202 1.20839,-0.55322 1.76831,-0.65642 3.05614,-0.56326 1.27208,0.092 1.71509,0.25231 2.29299,0.82971 0.69964,0.69903 0.71937,0.8069 0.84866,4.64188 0.0811,2.40566 0.25163,4.06963 0.44032,4.2965 0.23943,0.28789 0.20054,0.50282 -0.1748,0.96593 -0.26552,0.3276 -0.57512,0.59564 -0.68799,0.59564 -0.11288,0 -0.45777,-0.23724 -0.76642,-0.52719 -0.56037,-0.52645 -0.56265,-0.52645 -1.59524,0 -0.56874,0.28995 -1.45561,0.52701 -1.97084,0.52678 -0.51522,-2.2e-4 -1.35206,-0.2087 -1.85965,-0.46328 z m 3.44511,-1.57263 c 0.36001,-0.24637 0.74208,-0.57397 0.84905,-0.72801 0.10697,-0.15405 0.19632,-0.8611 0.19855,-1.57124 l 0.004,-1.29116 -1.32634,0.12745 c -0.75069,0.0721 -1.55497,0.33435 -1.85312,0.60417 -0.33563,0.30374 -0.52678,0.81452 -0.52678,1.4076 0,0.51198 0.19715,1.14873 0.43813,1.415 0.24096,0.26627 0.69097,0.48412 1.00002,0.48412 0.30904,0 0.85644,-0.20157 1.21644,-0.44793 z m -211.6036209,1.60765 c -0.1039689,-0.10397 -0.1890344,-2.90393 -0.1890344,-6.22214 v -6.03311 l -1.9068617,-0.0778 -1.906861,-0.0778 5.83e-4,-0.7942 5.82e-4,-0.7942 4.7326164,-0.0725 c 2.6029387,-0.0399 4.8373483,0.0323 4.9653543,0.16026 0.128006,0.12801 0.1536643,0.54779 0.057019,0.93286 -0.1686876,0.67205 -0.2486744,0.70012 -1.9952758,0.70012 h -1.8195438 l -0.071062,6.15501 -0.071062,6.15502 -0.8037097,0.0787 c -0.4420403,0.0433 -0.888775,-0.006 -0.9927439,-0.11031 z m 6.1276449,-0.40689 c -0.5997545,-0.34778 -1.1955304,-1.02004 -1.5782615,-1.78086 -0.4767535,-0.94773 -0.6164945,-1.66805 -0.6222829,-3.20767 -0.00538,-1.4319 0.133446,-2.27087 0.4979151,-3.009 0.2779585,-0.56293 0.9915352,-1.37781 1.5857259,-1.81085 0.9646471,-0.70302 1.24368259,-0.77586 2.60549859,-0.68014 1.30091761,0.0914 1.66132711,0.23918 2.45135671,1.00491 0.5094127,0.49374 1.0435047,1.31995 1.1868718,1.83602 0.1433668,0.51606 0.2613315,1.4446 0.2621434,2.06341 l 0.00148,1.12511 H 1.2170068 -1.9597739 v 0.64937 c 0,0.35716 0.1423219,0.96174 0.316271,1.34351 0.1739492,0.38178 0.64455032,0.8639 1.04578037,1.07139 0.40123005,0.20748 1.03707461,0.37724 1.4129881,0.37724 0.37591323,0 1.11889713,-0.18193 1.65107513,-0.40429 0.8451393,-0.35312 1.0161642,-0.35572 1.3513562,-0.0205 0.2110679,0.21106 0.3095799,0.57707 0.2189151,0.81334 -0.090664,0.23626 -0.5796457,0.60289 -1.0866245,0.81472 -0.5069789,0.21183 -1.6105994,0.38241 -2.45249,0.37906 -1.06795399,-0.004 -1.8219735,-0.17497 -2.4941535,-0.56475 z m 4.1735986,-6.90784 c -0.090846,-0.47321 -0.4697678,-1.12842 -0.8420492,-1.45602 -0.37228106,-0.32761 -0.90184723,-0.59565 -1.17681348,-0.59565 -0.27496625,0 -0.79553789,0.26804 -1.15682575,0.59565 -0.36128807,0.3276 -0.73478437,0.98281 -0.82999197,1.45602 l -0.1731049,0.86038 H 0.17013713 2.3421166 Z m 7.9526994,7.30218 c -0.09707,-0.0971 -0.1764883,-3.31355 -0.1764883,-7.14775 v -6.97127 h 1.0510163 1.05102 l 0.07409,3.34432 0.07409,3.34432 1.456025,-2.18233 c 0.800813,-1.20028 1.793703,-2.70523 2.206422,-3.34432 0.719057,-1.11346 0.804742,-1.16199 2.051671,-1.16199 0.7157,0 1.301273,0.0795 1.301273,0.17671 0,0.0972 -1.022529,1.59365 -2.272285,3.32545 -1.249759,1.73181 -2.213107,3.30297 -2.140774,3.49146 0.07233,0.18849 1.213988,1.7736 2.537017,3.52247 1.323028,1.74886 2.405506,3.31468 2.405506,3.47959 0,0.17797 -0.474598,0.29983 -1.167761,0.29983 -0.973644,0 -1.270683,-0.12884 -1.786939,-0.7751 -0.340549,-0.4263 -1.333954,-1.80528 -2.207569,-3.06439 -0.873615,-1.2591 -1.792904,-2.54834 -2.042863,-2.86496 -0.43545,-0.55157 -0.454841,-0.42329 -0.463281,3.06439 l -0.0088,3.64006 h -0.882439 c -0.485343,0 -0.96186,-0.0794 -1.058927,-0.17649 z m 22.100768,-0.40315 c -0.123206,-0.33641 -0.79712,-2.72714 -1.49759,-5.31273 -0.700472,-2.58559 -1.224887,-4.74866 -1.165367,-4.80682 0.05952,-0.0581 0.518773,-0.14656 1.020567,-0.19645 0.819821,-0.0815 0.93444,-0.0102 1.130116,0.70347 0.11977,0.43681 0.546811,2.22083 0.948981,3.96449 l 0.731221,3.1703 1.043461,-3.91065 1.043461,-3.91065 1.058281,0.0785 1.058281,0.0785 0.587461,2.11785 c 0.323105,1.16482 0.735684,2.86241 0.916846,3.77243 0.181158,0.91001 0.398707,1.65457 0.483437,1.65457 0.08473,0 0.428087,-1.28064 0.763007,-2.84586 0.334923,-1.56523 0.724851,-3.29261 0.866507,-3.83861 0.243031,-0.93676 0.316698,-0.99275 1.306279,-0.99275 0.576797,0 1.048724,0.063 1.048724,0.14001 0,0.077 -0.601029,2.31068 -1.335619,4.96372 -0.734591,2.65304 -1.397832,5.03219 -1.473865,5.28699 -0.100148,0.33561 -0.415264,0.46328 -1.143469,0.46328 h -1.005224 l -1.025078,-3.82008 c -0.563791,-2.10104 -1.084728,-3.76042 -1.157637,-3.68751 -0.07291,0.0729 -0.557644,1.76216 -1.077186,3.75389 l -0.944626,3.62134 -0.97848,0.0822 c -0.819816,0.0689 -1.014804,-0.017 -1.202489,-0.52947 z m 22.25062,0.26196 c -0.217345,-0.21734 -0.319672,-1.53422 -0.323995,-4.16952 -0.0035,-2.11852 -0.116749,-4.32826 -0.251725,-4.91054 -0.134976,-0.58228 -0.158193,-1.14592 -0.0516,-1.25251 0.106599,-0.1066 0.550888,-0.26524 0.987303,-0.35252 0.686884,-0.13738 0.828036,-0.0632 1.050654,0.55212 l 0.257169,0.71081 0.756463,-0.59867 c 0.463489,-0.36681 1.255545,-0.64663 2.045095,-0.7225 1.196505,-0.11497 1.355794,-0.0567 2.228106,0.81566 l 0.939475,0.93947 -0.07252,4.58676 -0.07252,4.58676 h -0.926561 -0.926561 l -0.07315,-4.21698 c -0.04441,-2.56026 -0.187149,-4.35434 -0.363331,-4.56662 -0.159601,-0.19231 -0.615366,-0.34965 -1.012813,-0.34965 -0.397447,0 -1.127418,0.27261 -1.62216,0.60579 l -0.899526,0.60579 -0.07308,4.02702 c -0.07242,3.99082 -0.07849,4.02701 -0.675065,4.02701 -0.331092,0 -0.744942,-0.14295 -0.919665,-0.31768 z m 35.354922,0.0372 c -0.409874,-0.24352 -0.463281,-0.7546 -0.463281,-4.43337 0,-2.28696 -0.112394,-4.55001 -0.249764,-5.02899 -0.227341,-0.79269 -0.190143,-0.89354 0.414332,-1.12336 0.365253,-0.13887 0.832764,-0.25249 1.038916,-0.25249 0.206149,0 0.449567,0.29782 0.540929,0.66183 0.09136,0.36401 0.253859,0.66183 0.36111,0.66183 0.10725,0 0.408515,-0.23593 0.669474,-0.52429 0.26096,-0.28836 0.875071,-0.59944 1.36469,-0.69129 0.489619,-0.0919 1.277386,-0.0935 1.750594,-0.004 0.572038,0.10862 1.062204,0.45991 1.462608,1.0482 0.57612,0.84646 0.599075,1.07881 0.529464,5.35927 l -0.07277,4.47446 h -0.926561 -0.926561 l -0.07314,-4.21698 c -0.04441,-2.56026 -0.18715,-4.35434 -0.363332,-4.56662 -0.159601,-0.19231 -0.603201,-0.3492 -0.985778,-0.34866 -0.38258,5.6e-4 -1.079645,0.23515 -1.549038,0.52135 l -0.85344,0.52037 -0.07312,4.04527 c -0.06905,3.81981 -0.102632,4.04881 -0.602585,4.10881 -0.291205,0.035 -0.73794,-0.0603 -0.992744,-0.2117 z m 45.290028,0.147 c -0.0873,-0.0873 0.40451,-1.79056 1.09289,-3.78503 0.68839,-1.99446 1.75869,-5.15102 2.37845,-7.01456 l 1.12685,-3.38825 1.35561,0.0791 1.35562,0.0791 2.29926,6.88303 c 1.26459,3.78566 2.20714,6.9805 2.09455,7.09963 -0.1126,0.11914 -0.66403,0.1787 -1.22541,0.13237 l -1.0207,-0.0842 -0.56124,-1.98549 -0.56123,-1.98549 -2.49012,-0.0688 -2.4901,-0.0688 -0.66183,2.05427 c -0.64949,2.01596 -0.67929,2.05575 -1.59786,2.13306 -0.51481,0.0433 -1.00744,0.007 -1.09474,-0.0799 z m 7.64521,-6.28622 c -0.0668,-0.18201 -0.46387,-1.43155 -0.88243,-2.77678 -0.41857,-1.34522 -0.82676,-2.44717 -0.90708,-2.44877 -0.0803,-0.002 -0.52706,1.18736 -0.99274,2.64212 -0.46569,1.45477 -0.8467,2.70563 -0.8467,2.77969 0,0.0741 0.84383,0.13465 1.87518,0.13465 1.38841,0 1.84367,-0.0859 1.75377,-0.33091 z m 22.52226,6.00828 c -0.39548,-0.21464 -1.03746,-0.93356 -1.42661,-1.5976 -0.5181,-0.88408 -0.74268,-1.69843 -0.83878,-3.04152 -0.095,-1.32717 -0.0107,-2.14977 0.30477,-2.97585 0.2398,-0.62791 0.8581,-1.55077 1.37399,-2.0508 0.88311,-0.85594 1.04411,-0.90913 2.75158,-0.90913 1.73559,0 1.85353,0.0411 2.74253,0.9565 0.51092,0.52608 1.05751,1.41955 1.21465,1.98549 0.15714,0.56594 0.28637,1.47572 0.28718,2.02173 l 10e-4,0.99274 h -3.17678 -3.17678 v 0.9118 c 0,0.56409 0.2273,1.17605 0.59606,1.60476 0.39677,0.46128 0.95975,0.74174 1.68389,0.83887 0.74944,0.10052 1.39854,-0.002 2.08665,-0.32806 0.96591,-0.45836 1.01074,-0.45767 1.36053,0.0207 0.19893,0.27206 0.3617,0.5886 0.3617,0.70341 0,0.11482 -0.47177,0.44943 -1.04838,0.7436 -0.73346,0.37418 -1.54857,0.53166 -2.7135,0.52424 -0.94574,-0.006 -1.97578,-0.1792 -2.38418,-0.40086 z m 4.13412,-6.93484 c -0.0929,-0.40041 -0.33493,-0.99416 -0.53786,-1.31946 -0.20292,-0.32529 -0.67405,-0.66802 -1.04695,-0.76161 -0.3729,-0.0936 -0.96943,-0.0374 -1.32563,0.12491 -0.35619,0.16229 -0.76436,0.60212 -0.90704,0.97739 -0.14268,0.37528 -0.25941,0.91282 -0.25941,1.19455 0,0.4639 0.20029,0.51223 2.12289,0.51223 h 2.1229 z m 13.65382,3.19276 c -0.003,-2.30203 -0.11675,-4.66192 -0.25173,-5.2442 -0.13498,-0.58228 -0.16192,-1.1356 -0.0599,-1.22959 0.10205,-0.094 0.57272,-0.25247 1.04592,-0.35218 0.62938,-0.13261 0.86147,-0.0868 0.86443,0.17066 0.002,0.19357 0.1107,0.52042 0.24104,0.72633 0.1937,0.30601 0.39008,0.24557 1.07519,-0.33091 0.48952,-0.41191 1.16012,-0.7053 1.61208,-0.7053 0.50027,0 0.77389,0.13599 0.77389,0.38464 0,0.21155 -0.13825,0.68807 -0.30723,1.05893 -0.21199,0.46527 -0.51972,0.67689 -0.99274,0.6827 -0.37704,0.005 -0.92378,0.18812 -1.21499,0.40775 -0.47728,0.35997 -0.5425,0.79616 -0.66182,4.42583 l -0.13237,4.02652 -0.99274,0.0822 -0.99275,0.0822 z M 22.31653,189.33084 c -0.102144,-0.10214 -0.185717,-0.40411 -0.185717,-0.67105 0,-0.26694 0.119129,-0.49076 0.264732,-0.49738 0.145602,-0.007 1.307113,-0.0174 2.581134,-0.0241 2.25579,-0.0117 2.316403,0.004 2.316403,0.60768 0,0.59858 -0.08168,0.62228 -2.395417,0.69512 -1.317483,0.0415 -2.478993,-0.008 -2.581135,-0.11031 z"
         id="path883" /><path
         style="fill:#ffffff;stroke-width:0.264732"
         d="m 135.17126,206.1882 c 0,-0.139 0.38717,-0.31964 0.86038,-0.40141 0.47321,-0.0818 2.70688,-0.38662 4.96372,-0.67743 2.25684,-0.29081 6.90288,-0.78552 10.32453,-1.09935 5.44513,-0.49941 7.95497,-0.56982 20.11962,-0.56437 12.06945,0.005 14.69967,0.0805 19.98724,0.57042 3.34886,0.31032 8.19825,0.83875 10.77644,1.1743 2.57818,0.33556 4.77214,0.69464 4.87547,0.79797 0.10333,0.10333 0.11529,0.26045 0.0266,0.34916 -0.0887,0.0887 -2.2231,-0.0891 -4.74311,-0.39518 -2.52,-0.30606 -7.02397,-0.74394 -10.00882,-0.97306 -2.98485,-0.22913 -6.73742,-0.52094 -8.33905,-0.64847 -1.60162,-0.12753 -7.31983,-0.23593 -12.70712,-0.24088 -5.38729,-0.005 -11.16506,0.10162 -12.83949,0.23684 -1.67443,0.13521 -6.02265,0.49034 -9.66271,0.78917 -3.64006,0.29884 -7.92871,0.72048 -9.53034,0.93698 -1.60163,0.21651 -3.18009,0.39463 -3.50769,0.39584 -0.32761,0.001 -0.59565,-0.11153 -0.59565,-0.25053 z m -34.01803,-1.26097 c -0.2912,-0.0707 -0.91663,-0.42038 -1.389839,-0.77696 -0.71599,-0.53953 -0.860378,-0.82378 -0.860378,-1.69378 0,-0.98513 0.04583,-1.04546 0.794195,-1.04546 0.645922,0 0.794952,0.11121 0.798252,0.59565 0.002,0.3276 0.0916,0.72672 0.19855,0.88693 0.10697,0.1602 0.4547,0.42824 0.77273,0.59565 0.31804,0.16739 1.10609,0.30436 1.75124,0.30436 0.78583,0 1.40323,-0.1811 1.87053,-0.54868 0.45736,-0.35976 0.69753,-0.80435 0.69753,-1.29124 0,-0.40842 -0.179,-0.89112 -0.39777,-1.07269 -0.21877,-0.18156 -1.43765,-0.43552 -2.70861,-0.56434 -1.71924,-0.17426 -2.44289,-0.36627 -2.826623,-0.75 -0.436942,-0.43695 -0.46863,-0.61925 -0.207335,-1.19273 0.169643,-0.37232 0.608018,-0.81345 0.974168,-0.98028 0.36615,-0.16683 0.66573,-0.40333 0.66573,-0.52556 0,-0.12223 -0.16811,-0.22224 -0.37357,-0.22224 -0.20546,0 -0.68197,-0.36653 -1.058924,-0.81451 -0.518916,-0.61669 -0.685361,-1.10884 -0.685361,-2.02647 0,-1.0717 0.123855,-1.32979 1.070075,-2.22991 0.99049,-0.94223 1.18497,-1.01794 2.61499,-1.01794 0.8497,0 1.95193,0.17007 2.4494,0.37792 0.79555,0.33241 1.00784,0.32787 1.76255,-0.0376 0.80317,-0.38899 0.88208,-0.38352 1.23348,0.0854 0.32877,0.43869 0.31937,0.54413 -0.0757,0.84861 -0.24808,0.19122 -0.78379,0.30045 -1.19045,0.24273 -0.59535,-0.0845 -0.70352,-0.0233 -0.5553,0.31415 0.10124,0.23051 0.23883,0.80894 0.30576,1.28542 0.0669,0.47647 -0.0276,1.22665 -0.21,1.66706 -0.18242,0.4404 -0.66637,0.97381 -1.07543,1.18535 -0.40907,0.21154 -1.07729,0.38506 -1.48492,0.3856 -0.40764,5.6e-4 -1.13646,0.24199 -1.61959,0.53655 -0.55312,0.33723 -0.84624,0.7045 -0.79153,0.99175 0.0713,0.3741 0.48526,0.48211 2.30033,0.60014 2.0983,0.13646 2.25463,0.19006 3.00572,1.03067 0.6913,0.7737 0.77556,1.03512 0.66108,2.05084 -0.0722,0.64026 -0.33483,1.3891 -0.58369,1.66409 -0.24886,0.27498 -0.84682,0.6871 -1.32879,0.91582 -0.52058,0.24703 -1.50488,0.40337 -2.4247,0.38513 -0.85161,-0.0169 -1.78664,-0.0886 -2.07785,-0.15934 z m 3.18882,-9.46063 c 0.44554,-0.44554 0.64979,-0.94483 0.64979,-1.58839 0,-0.58562 -0.19911,-1.13771 -0.52946,-1.46806 -0.33717,-0.33717 -0.88244,-0.52946 -1.50136,-0.52946 -0.53455,0 -1.18976,0.19716 -1.45603,0.43813 -0.32251,0.29187 -0.48131,0.80002 -0.4757,1.52221 0.005,0.59624 0.15354,1.27322 0.33091,1.50441 0.17737,0.23118 0.50119,0.48982 0.71959,0.57474 0.21841,0.0849 0.67056,0.16382 1.00478,0.17532 0.33422,0.0115 0.90009,-0.27151 1.25748,-0.6289 z m -105.1017632,5.65112 c -0.5775874,-0.13845 -1.3334643,-0.51627 -1.6797265,-0.83959 -0.3462622,-0.32332 -0.8017384,-0.91882 -1.0121694,-1.32333 -0.2104311,-0.40451 -0.4529179,-1.48847 -0.5388599,-2.4088 -0.1134291,-1.21469 -0.032782,-2.04508 0.2942334,-3.02964 0.31609,-0.95165 0.7524147,-1.59543 1.4624874,-2.15781 0.8560694,-0.67802 1.24224437,-0.80152 2.50635821,-0.80152 1.36264829,0 1.58870879,0.088 2.56476679,0.99846 0.9637018,0.89893 1.0912165,1.16943 1.2791847,2.7135 0.1148292,0.94327 0.1575855,1.80439 0.095014,1.91359 -0.062572,0.1092 -1.5518746,0.19855 -3.30956191,0.19855 H -2.2937819 l 0.154904,0.95456 c 0.085197,0.52501 0.3385615,1.23486 0.5630315,1.57744 0.2244702,0.34259 0.90027553,0.77034 1.50179022,0.95055 0.92659572,0.27762 1.28056058,0.26047 2.31714438,-0.11229 1.046036,-0.37615 1.2769898,-0.38645 1.5924201,-0.071 0.3154299,0.31543 0.2386877,0.44834 -0.5291352,0.91644 -0.4939404,0.30113 -1.1363321,0.54958 -1.427537,0.55212 -0.2912049,0.003 -0.767722,0.0532 -1.05892687,0.11256 -0.29120489,0.0594 -1.00203499,-0.005 -1.57962243,-0.14377 z m 3.093185,-7.11918 c -0.044307,-0.54863 -0.3347053,-1.18751 -0.7119679,-1.56633 -0.3955886,-0.39722 -0.9430215,-0.63976 -1.44396328,-0.63976 -0.44375259,0 -1.04213444,0.21295 -1.32973712,0.47323 -0.2876027,0.26027 -0.6549979,0.87345 -0.816434,1.3626 -0.1614358,0.48916 -0.2155758,1.01549 -0.120311,1.16963 0.1055956,0.17086 1.0171678,0.25039 2.335225,0.20373 l 2.1620161,-0.0765 z M 21.93025,201.0155 c -0.479512,-0.20839 -0.979037,-0.68159 -1.12511,-1.06579 -0.144496,-0.38005 -0.262717,-1.17548 -0.262717,-1.76762 0,-0.88923 0.162656,-1.23002 0.934558,-1.95802 0.514006,-0.48477 1.377693,-1.00447 1.919305,-1.15489 0.54161,-0.15042 1.491046,-0.27415 2.109857,-0.27496 1.109069,-0.001 1.125109,-0.0147 1.125109,-0.92804 0,-0.59064 -0.203173,-1.12974 -0.560405,-1.48697 -0.448643,-0.44864 -0.78503,-0.53508 -1.686754,-0.43345 -0.619493,0.0698 -1.489235,0.30799 -1.932761,0.52925 -0.578484,0.28859 -0.887389,0.32131 -1.092927,0.11577 -0.157587,-0.15759 -0.286519,-0.41765 -0.286519,-0.57792 0,-0.16027 0.539269,-0.55339 1.198374,-0.87361 0.830723,-0.4036 1.689754,-0.58222 2.800047,-0.58222 1.417294,0 1.690754,0.0891 2.375504,0.77383 l 0.773832,0.77383 v 3.66771 c 0,2.79648 0.09233,3.79952 0.388695,4.22264 0.351111,0.50128 0.335868,0.60275 -0.157616,1.04935 -0.53555,0.48467 -0.556186,0.48222 -1.047205,-0.12416 l -0.500888,-0.61857 -1.145831,0.55468 c -0.630207,0.30508 -1.554954,0.55003 -2.054993,0.54433 -0.500041,-0.006 -1.297241,-0.17902 -1.771555,-0.38517 z m 3.800915,-1.56348 c 0.759343,-0.75935 0.900087,-1.08807 0.900087,-2.10223 0,-0.66118 -0.127587,-1.281 -0.283527,-1.37737 -0.155941,-0.0964 -0.826109,-0.0939 -1.489262,0.006 -0.734429,0.11013 -1.451444,0.42652 -1.834329,0.8094 -0.402233,0.40223 -0.628589,0.9366 -0.628589,1.48394 0,0.51385 0.229808,1.09997 0.575609,1.46806 0.316587,0.33699 0.864582,0.6127 1.217766,0.6127 0.377319,0 1.013369,-0.37121 1.542245,-0.90008 z m 19.760208,1.56348 c -0.479511,-0.20839 -0.979036,-0.68159 -1.12511,-1.06579 -0.144496,-0.38005 -0.262717,-1.17548 -0.262717,-1.76762 0,-0.88923 0.162657,-1.23002 0.934559,-1.95802 0.514006,-0.48477 1.377693,-1.00447 1.919305,-1.15489 0.541609,-0.15042 1.491046,-0.27415 2.109856,-0.27496 1.094502,-0.001 1.12511,-0.0251 1.12511,-0.86914 0,-0.47721 -0.18545,-1.13242 -0.412108,-1.45602 -0.30114,-0.42994 -0.675389,-0.5868 -1.389842,-0.58256 -0.537754,0.003 -1.471598,0.23007 -2.07521,0.50415 -0.800803,0.36363 -1.176513,0.4193 -1.389842,0.20597 -0.160801,-0.1608 -0.292364,-0.42349 -0.292364,-0.58376 0,-0.16027 0.539269,-0.55339 1.198374,-0.87361 0.830723,-0.4036 1.689753,-0.58222 2.800046,-0.58222 1.417294,0 1.690754,0.0891 2.375504,0.77383 l 0.773832,0.77383 v 3.67601 c 0,2.7118 0.09605,3.80737 0.366185,4.1768 0.279263,0.38192 0.295568,0.61386 0.06869,0.97716 -0.163623,0.262 -0.440781,0.47637 -0.615904,0.47637 -0.175123,0 -0.495549,-0.2529 -0.712057,-0.56201 l -0.393651,-0.56202 -1.160967,0.56202 c -0.638533,0.30911 -1.57009,0.55735 -2.070128,0.55165 -0.500041,-0.006 -1.297241,-0.17902 -1.771556,-0.38517 z m 3.856551,-1.489 c 0.718569,-0.70254 0.844452,-1.01592 0.844452,-2.10223 0,-0.70215 -0.127588,-1.35548 -0.283528,-1.45185 -0.15594,-0.0964 -0.826108,-0.0939 -1.489261,0.006 -0.73443,0.11013 -1.451445,0.42652 -1.834329,0.8094 -0.373677,0.37368 -0.62859,0.94106 -0.62859,1.39912 0,0.42379 0.246905,1.08441 0.548678,1.46805 0.354026,0.45008 0.805785,0.69754 1.273402,0.69754 0.454375,0 1.039739,-0.30799 1.569176,-0.82561 z m 16.331258,1.70949 c -0.291205,-0.0784 -0.795681,-0.38796 -1.121057,-0.68792 -0.325377,-0.29996 -0.664784,-0.93551 -0.754237,-1.41234 -0.08946,-0.47683 -0.0206,-1.29735 0.152994,-1.82336 0.201249,-0.60979 0.674378,-1.1938 1.305514,-1.61146 0.690968,-0.45727 1.522885,-0.70485 2.755002,-0.8199 l 1.765125,-0.16483 v -1.00174 c 0,-0.55769 -0.184404,-1.18614 -0.416007,-1.41774 -0.230391,-0.2304 -0.850514,-0.41342 -1.389841,-0.4102 -0.535608,0.003 -1.460581,0.22688 -2.055497,0.49707 -1.063602,0.48305 -1.08711,0.48253 -1.408182,-0.0316 -0.179589,-0.28757 -0.288489,-0.55154 -0.241999,-0.5866 0.04649,-0.0351 0.628439,-0.32129 1.293217,-0.63605 0.820713,-0.3886 1.718313,-0.5723 2.796337,-0.5723 1.426904,0 1.666368,0.0823 2.365188,0.81296 l 0.777541,0.81295 -0.07644,3.41606 c -0.061,2.72597 0.0092,3.5817 0.347548,4.23597 0.330888,0.63987 0.355087,0.90292 0.110208,1.19798 -0.172579,0.20795 -0.47113,0.37808 -0.66345,0.37808 -0.192319,0 -0.528973,-0.25599 -0.748118,-0.56886 -0.382807,-0.54654 -0.425424,-0.55119 -1.085805,-0.11849 -0.378048,0.24771 -1.247882,0.49639 -1.932968,0.55262 -0.685083,0.0562 -1.483866,0.0381 -1.775071,-0.0403 z m 3.2305,-1.56874 c 0.857251,-0.65386 0.894327,-0.75271 0.819183,-2.18404 l -0.07871,-1.49918 -0.947841,0.0262 c -0.521312,0.0144 -1.273722,0.108 -1.672019,0.20797 -0.49531,0.12431 -0.847851,0.47774 -1.115502,1.11832 -0.215402,0.51553 -0.312495,1.19562 -0.215974,1.51279 0.09644,0.31692 0.358418,0.78469 0.582166,1.03949 0.223749,0.25481 0.704711,0.46329 1.06881,0.46329 0.364096,0 1.066043,-0.30819 1.559884,-0.68486 z m 6.441902,1.4499 c -0.358672,-0.14317 -0.716059,-0.32383 -0.794195,-0.40145 -0.07813,-0.0776 -0.201625,-2.06748 -0.274426,-4.4219 -0.129618,-4.19186 -0.144734,-4.2825 -0.728012,-4.36534 -0.374011,-0.0531 -0.595647,-0.2679 -0.595647,-0.57723 0,-0.30934 0.221636,-0.52412 0.595647,-0.57724 0.51701,-0.0734 0.606082,-0.26436 0.674687,-1.44627 0.07419,-1.2782 0.126227,-1.36861 0.848587,-1.47463 0.763693,-0.11209 0.770139,-0.10173 0.84752,1.36168 l 0.07797,1.47463 1.141436,0.0822 c 0.904472,0.0651 1.123834,0.17505 1.056642,0.52946 -0.06059,0.31964 -0.405196,0.47049 -1.207619,0.52867 l -1.122825,0.0814 v 3.78236 c 0,3.42367 0.04933,3.827 0.520187,4.25312 0.325612,0.29468 0.771212,0.42278 1.191293,0.34248 0.510903,-0.0977 0.671106,-0.018 0.671106,0.33358 0,0.2552 -0.266538,0.53331 -0.595647,0.62151 -0.327605,0.0878 -0.833905,0.1537 -1.12511,0.14646 -0.291204,-0.007 -0.822923,-0.13031 -1.181598,-0.27349 z m 5.913485,0.12565 c -0.309511,-0.0686 -0.825574,-0.40447 -1.14681,-0.74641 -0.321234,-0.34194 -0.647891,-1.09758 -0.725905,-1.67921 -0.10139,-0.75593 -7.94e-4,-1.29704 0.352615,-1.89743 0.271953,-0.46196 0.871653,-1.0735 1.332667,-1.35899 0.48932,-0.30302 1.563675,-0.58682 2.581134,-0.68183 l 1.742925,-0.16275 v -1.00174 c 0,-0.55769 -0.184404,-1.18614 -0.416007,-1.41774 -0.230391,-0.2304 -0.850514,-0.41342 -1.389842,-0.4102 -0.535608,0.003 -1.46058,0.22688 -2.055496,0.49707 -1.063602,0.48305 -1.08711,0.48253 -1.408182,-0.0316 -0.179589,-0.28757 -0.288489,-0.55676 -0.241999,-0.5982 0.04649,-0.0414 0.643854,-0.32767 1.327478,-0.63605 0.807641,-0.36433 1.782098,-0.5607 2.782386,-0.5607 1.281784,0 1.660832,0.11256 2.264746,0.67254 0.405587,0.37609 0.743933,0.98874 0.767563,1.38985 0.02324,0.39451 0.01006,1.97837 -0.02928,3.51968 -0.05675,2.2229 0.02155,2.98241 0.378659,3.67297 0.39655,0.76685 0.403719,0.91707 0.06017,1.26062 -0.306565,0.30656 -0.509942,0.32585 -0.950379,0.0901 -0.30819,-0.16494 -0.560347,-0.41483 -0.560347,-0.55531 0,-0.14048 -0.139532,-0.25541 -0.31007,-0.25541 -0.170538,0 -0.511589,0.18237 -0.757887,0.40527 -0.246301,0.22289 -1.030021,0.45136 -1.741601,0.50769 -0.711581,0.0563 -1.547021,0.0463 -1.856532,-0.0223 z m 3.263785,-1.57555 c 0.857251,-0.65386 0.894327,-0.75271 0.819183,-2.18404 -0.06867,-1.30793 -0.152078,-1.50963 -0.653848,-1.58109 -0.316328,-0.0451 -1.060092,0.0487 -1.652807,0.20828 -0.780837,0.21026 -1.193459,0.51411 -1.498072,1.10316 -0.261293,0.50529 -0.354352,1.07773 -0.245875,1.51248 0.09599,0.38473 0.362412,0.90798 0.592038,1.16278 0.229626,0.25481 0.715398,0.46329 1.079497,0.46329 0.364096,0 1.066042,-0.30819 1.559884,-0.68486 z m 26.078626,1.34494 c -0.57499,-0.24983 -1.00675,-0.70474 -1.27249,-1.34073 -0.25445,-0.60899 -0.33569,-1.26538 -0.22116,-1.78686 0.0996,-0.45334 0.31481,-1.04342 0.4783,-1.31127 0.16349,-0.26785 0.68466,-0.72836 1.15817,-1.02336 0.51209,-0.31903 1.58475,-0.60905 2.64732,-0.71576 l 1.78639,-0.1794 -0.0647,-1.05614 c -0.039,-0.63607 -0.24957,-1.19653 -0.52946,-1.40908 -0.30705,-0.23318 -0.88658,-0.30536 -1.70798,-0.21271 -0.68378,0.0771 -1.58393,0.3164 -2.00032,0.53173 -0.70165,0.36284 -0.78157,0.35229 -1.0915,-0.14399 -0.18393,-0.29452 -0.29639,-0.568 -0.2499,-0.60775 0.0465,-0.0397 0.66553,-0.32596 1.37566,-0.63605 0.82818,-0.36164 1.82486,-0.56063 2.77968,-0.55498 1.07109,0.006 1.65987,0.15162 2.0994,0.51802 0.33596,0.28007 0.72206,0.89699 0.85798,1.37094 0.13593,0.47395 0.17579,2.06039 0.0886,3.52542 -0.12698,2.13336 -0.0724,2.86997 0.27432,3.6997 0.37256,0.89166 0.38084,1.08801 0.0595,1.4094 -0.29122,0.29121 -0.49673,0.30739 -0.93375,0.0735 -0.30819,-0.16494 -0.56035,-0.41483 -0.56035,-0.55531 0,-0.14048 -0.17869,-0.25541 -0.3971,-0.25541 -0.2184,0 -0.39709,0.10747 -0.39709,0.23883 0,0.13136 -0.37517,0.36962 -0.8337,0.52946 -0.45854,0.15985 -1.2031,0.28597 -1.65458,0.28027 -0.45148,-0.006 -1.2125,-0.18052 -1.69116,-0.38848 z m 3.57133,-1.34494 c 0.85725,-0.65386 0.89432,-0.75271 0.81918,-2.18404 l -0.0787,-1.49918 -0.98086,0.0291 c -0.53947,0.016 -1.33841,0.17725 -1.77543,0.35827 -0.52004,0.21541 -0.89251,0.62585 -1.07801,1.18793 -0.15589,0.47234 -0.20336,1.08546 -0.10549,1.36249 0.0979,0.27703 0.42871,0.70951 0.73521,0.96108 0.3065,0.25156 0.78428,0.46004 1.06174,0.46328 0.27746,0.003 0.90853,-0.3023 1.40237,-0.67897 z m 10.41852,1.16636 c -0.798,-0.41657 -1.34962,-0.95422 -1.7163,-1.6728 -0.40941,-0.80234 -0.54118,-1.5721 -0.54381,-3.17678 -0.003,-1.54934 0.13079,-2.38868 0.49666,-3.12676 0.27507,-0.5549 0.9277,-1.29946 1.4503,-1.65458 0.68219,-0.46355 1.30989,-0.64566 2.22553,-0.64566 0.70145,0 1.61264,0.17442 2.02487,0.38759 0.41223,0.21317 1.05283,0.74807 1.42356,1.18865 0.38079,0.45254 0.80687,1.44087 0.97934,2.27168 0.16792,0.80884 0.226,1.97154 0.12907,2.58378 -0.0969,0.61223 -0.41652,1.6227 -0.71019,2.24549 -0.31024,0.6579 -0.86132,1.30161 -1.31528,1.53636 -0.42972,0.22222 -1.34077,0.46543 -2.02455,0.54047 -0.96954,0.10639 -1.50214,0.001 -2.4192,-0.47744 z m 2.87054,-0.86507 c 0.40796,-0.21096 0.92064,-0.6577 1.1393,-0.99275 0.21866,-0.33504 0.47731,-1.14525 0.57478,-1.80047 0.0975,-0.65521 0.054,-1.8403 -0.0966,-2.63354 -0.15252,-0.80338 -0.52742,-1.7122 -0.84634,-2.05167 -0.39212,-0.41739 -0.87309,-0.60942 -1.5264,-0.60942 -0.52463,0 -1.2103,0.17961 -1.52371,0.39913 -0.3609,0.25278 -0.68641,0.92003 -0.88777,1.81979 -0.19705,0.88053 -0.24471,2.00669 -0.12535,2.96204 0.15642,1.25191 0.35682,1.70561 1.06713,2.41592 0.48099,0.48099 1.01149,0.87454 1.17889,0.87454 0.16739,0 0.63813,-0.17261 1.04608,-0.38357 z m 22.57441,1.12146 c -0.48429,-0.16312 -1.16033,-0.66392 -1.5023,-1.11288 -0.34198,-0.44897 -0.76447,-1.38399 -0.93887,-2.07783 -0.17439,-0.69384 -0.26414,-1.88513 -0.19943,-2.64732 0.0647,-0.76218 0.3346,-1.8398 0.59975,-2.3947 0.26515,-0.5549 0.90967,-1.29946 1.43226,-1.65458 0.70552,-0.47941 1.30397,-0.64566 2.32418,-0.64566 1.14583,0 1.56423,0.14489 2.51968,0.87253 0.74679,0.56873 1.27048,1.23698 1.5041,1.9193 0.19713,0.57573 0.36357,1.83533 0.36985,2.7991 0.009,1.37102 -0.12666,1.99958 -0.62315,2.8886 -0.34902,0.62495 -0.93409,1.35759 -1.30016,1.62809 -0.36607,0.27049 -1.25954,0.54358 -1.98549,0.60686 -0.72595,0.0633 -1.71614,-0.0184 -2.20042,-0.18151 z m 2.60994,-1.13947 c 0.42711,-0.22087 0.96854,-0.77281 1.20317,-1.22654 0.32293,-0.62448 0.40444,-1.39032 0.3354,-3.15132 -0.0795,-2.02796 -0.17354,-2.41395 -0.733,-3.00917 -0.47543,-0.50581 -0.90745,-0.68281 -1.66661,-0.68281 -0.72571,0 -1.20828,0.18346 -1.65341,0.62859 -0.39053,0.39054 -0.69957,1.10195 -0.81603,1.87852 -0.10309,0.68746 -0.12111,1.80992 -0.0401,2.49437 0.0811,0.68444 0.28405,1.54438 0.45108,1.91098 0.16704,0.3666 0.62225,0.86416 1.0116,1.1057 0.38934,0.24154 0.80315,0.44234 0.91959,0.44621 0.11643,0.004 0.56115,-0.17367 0.98826,-0.39453 z m 6.96763,1.19754 c -0.31271,-0.12617 -0.67009,-0.38666 -0.79419,-0.57886 -0.12411,-0.19221 -0.28521,-2.19597 -0.35801,-4.45281 -0.12928,-4.00784 -0.14623,-4.10531 -0.72801,-4.18794 -0.37401,-0.0531 -0.59565,-0.2679 -0.59565,-0.57723 0,-0.30934 0.22164,-0.52412 0.59565,-0.57724 0.4801,-0.0682 0.61173,-0.27968 0.67858,-1.09026 0.0651,-0.78994 0.225,-1.05968 0.74524,-1.25747 0.36428,-0.1385 0.77966,-0.25181 0.92307,-0.25181 0.14574,0 0.22572,0.55466 0.18132,1.25747 l -0.0794,1.25748 1.25747,0.0807 c 0.69161,0.0444 1.25565,0.1635 1.25343,0.26473 -0.002,0.10122 -0.0931,0.32408 -0.20199,0.49523 -0.10886,0.17116 -0.6729,0.34985 -1.25342,0.3971 l -1.05549,0.0859 -0.0741,3.54207 c -0.0604,2.88843 0.004,3.66119 0.34886,4.18759 0.32809,0.50073 0.61102,0.62663 1.26137,0.56127 0.60697,-0.061 0.86134,0.0342 0.92144,0.3448 0.0511,0.26392 -0.15116,0.49178 -0.52544,0.59203 -0.33465,0.0896 -0.90629,0.15706 -1.27029,0.14982 -0.36401,-0.007 -0.91768,-0.1164 -1.23039,-0.24257 z m 6.86257,0.0116 c -0.46956,-0.1147 -1.14094,-0.39671 -1.49195,-0.6267 -0.35101,-0.22999 -0.89008,-0.93847 -1.19793,-1.5744 -0.41128,-0.8496 -0.55972,-1.66287 -0.55972,-3.06664 0,-1.05073 0.1639,-2.30267 0.36421,-2.78209 0.20032,-0.47942 0.82311,-1.24993 1.38398,-1.71225 0.87527,-0.72147 1.22691,-0.84002 2.48165,-0.83664 1.26081,0.003 1.6005,0.12174 2.46954,0.86038 0.68755,0.58438 1.085,1.19282 1.25116,1.91536 0.13393,0.58241 0.24636,1.50567 0.24983,2.05168 l 0.006,0.99274 h -3.17678 -3.17679 v 0.92238 c 0,0.63225 0.22901,1.17866 0.72802,1.73711 0.51209,0.57308 1.04207,0.85407 1.78694,0.94743 0.74327,0.0932 1.35624,-0.0223 2.05635,-0.38729 0.96312,-0.50213 1.00637,-0.5033 1.25747,-0.0341 0.14303,0.26725 0.26005,0.55938 0.26005,0.64918 0,0.0898 -0.38717,0.32257 -0.86037,0.51725 -0.47321,0.19469 -1.3369,0.41723 -1.91931,0.49455 -0.58241,0.0773 -1.44311,0.0467 -1.91267,-0.0679 z m 3.16663,-6.86772 c -0.0383,-0.34822 -0.21812,-0.94278 -0.39951,-1.32124 -0.1814,-0.37847 -0.66523,-0.84888 -1.07519,-1.04537 -0.60824,-0.29152 -0.89385,-0.29575 -1.55236,-0.023 -0.49419,0.2047 -0.94827,0.67242 -1.17151,1.20672 -0.20049,0.47984 -0.36454,1.11917 -0.36454,1.42072 0,0.5186 0.12538,0.54413 2.31641,0.47178 2.26743,-0.0749 2.31492,-0.0899 2.2467,-0.70962 z m 5.06632,6.95083 c -0.30951,-0.0686 -0.83411,-0.41355 -1.16577,-0.76659 -0.42482,-0.4522 -0.61057,-0.98375 -0.62855,-1.79875 -0.014,-0.63627 0.1457,-1.47688 0.35497,-1.86801 0.20927,-0.39113 0.75977,-0.94556 1.22333,-1.23206 0.47068,-0.29089 1.58852,-0.59697 2.53156,-0.69318 0.9288,-0.0948 1.76279,-0.28533 1.85332,-0.42349 0.0905,-0.13817 0.0694,-0.6735 -0.047,-1.18962 -0.11641,-0.51612 -0.36918,-1.0458 -0.56171,-1.17707 -0.19253,-0.13126 -0.90952,-0.17977 -1.5933,-0.10779 -0.68378,0.072 -1.58393,0.30704 -2.00033,0.52237 -0.70165,0.36284 -0.78156,0.35229 -1.0915,-0.14399 -0.18393,-0.29452 -0.29638,-0.568 -0.24989,-0.60775 0.0465,-0.0397 0.66553,-0.32596 1.37565,-0.63605 0.82819,-0.36164 1.82486,-0.56063 2.77969,-0.55498 1.05519,0.006 1.66092,0.15262 2.08062,0.50282 0.32564,0.2717 0.72095,0.83301 0.87849,1.24735 0.18456,0.48544 0.22225,1.74334 0.10598,3.53731 -0.14688,2.26612 -0.10065,2.97494 0.24849,3.81055 0.32311,0.77331 0.35516,1.11547 0.12991,1.38687 -0.16446,0.19816 -0.39892,0.36029 -0.52102,0.36029 -0.1221,0 -0.45983,-0.25528 -0.75052,-0.56729 -0.50614,-0.54328 -0.5575,-0.54829 -1.21347,-0.11849 -0.37672,0.24685 -1.24548,0.49233 -1.93057,0.54553 -0.68508,0.0532 -1.49884,0.0406 -1.80835,-0.028 z m 3.26378,-1.57555 c 0.85725,-0.65386 0.89433,-0.75271 0.81919,-2.18404 l -0.0787,-1.49918 -1.19089,0.0567 c -0.65498,0.0312 -1.45595,0.19851 -1.77993,0.3719 -0.32398,0.17339 -0.71865,0.70793 -0.87704,1.18786 -0.21393,0.64821 -0.2067,1.02913 0.0281,1.48123 0.17386,0.33473 0.43402,0.75752 0.57813,0.93952 0.14411,0.182 0.5638,0.33092 0.93263,0.33092 0.36884,0 1.07466,-0.30819 1.5685,-0.68486 z m 13.48534,1.48634 c -0.41605,-0.1328 -0.99459,-0.4568 -1.28565,-0.72001 -0.29105,-0.26322 -0.7683,-0.94708 -1.06055,-1.51971 -0.44376,-0.8695 -0.51335,-1.41779 -0.42212,-3.32594 0.087,-1.82043 0.22862,-2.45246 0.69663,-3.10972 0.32307,-0.45371 0.9865,-1.07158 1.47429,-1.37305 0.58104,-0.3591 1.33422,-0.54813 2.18403,-0.54813 0.93874,0 1.55967,0.1784 2.24732,0.64566 0.5226,0.35512 1.17141,1.09968 1.44181,1.65458 0.30233,0.62044 0.52836,1.7734 0.58703,2.9944 0.0814,1.6933 0.003,2.15772 -0.53028,3.1559 -0.34413,0.64373 -0.92056,1.39057 -1.28097,1.65965 -0.3604,0.26908 -1.24923,0.54292 -1.97518,0.60853 -0.72595,0.0656 -1.66031,0.0106 -2.07636,-0.12216 z m 2.65951,-1.31817 c 0.56722,-0.34585 0.93583,-0.84489 1.12364,-1.52121 0.15372,-0.55359 0.28017,-1.61417 0.28098,-2.35686 7.9e-4,-0.74268 -0.13107,-1.75528 -0.29307,-2.25022 -0.16199,-0.49493 -0.53258,-1.10836 -0.82352,-1.36316 -0.30047,-0.26315 -0.95382,-0.46328 -1.51244,-0.46328 -0.71481,0 -1.15876,0.18657 -1.62524,0.683 -0.55402,0.58959 -0.65462,0.98934 -0.73559,2.92292 -0.0595,1.41989 0.0297,2.53817 0.24364,3.05456 0.18558,0.44804 0.70431,1.03835 1.15272,1.31179 0.44841,0.27344 0.93442,0.49717 1.08002,0.49717 0.1456,0 0.64459,-0.23162 1.10886,-0.51471 z m 5.9707,1.18008 c -0.47951,-0.20839 -0.97904,-0.68159 -1.12511,-1.06579 -0.1445,-0.38005 -0.26272,-1.17548 -0.26272,-1.76762 0,-0.88923 0.16266,-1.23002 0.93456,-1.95802 0.51401,-0.48477 1.37769,-1.00447 1.91931,-1.15489 0.54161,-0.15042 1.49104,-0.27415 2.10985,-0.27496 1.0945,-10e-4 1.12511,-0.0251 1.12511,-0.86914 0,-0.47721 -0.18545,-1.13242 -0.4121,-1.45602 -0.30115,-0.42994 -0.67539,-0.5868 -1.38985,-0.58256 -0.53775,0.003 -1.4716,0.23007 -2.07521,0.50415 -0.8008,0.36363 -1.17651,0.4193 -1.38984,0.20597 -0.1608,-0.1608 -0.29236,-0.42349 -0.29236,-0.58376 0,-0.16027 0.53927,-0.55339 1.19837,-0.87361 0.83072,-0.4036 1.68975,-0.58222 2.80005,-0.58222 1.41729,0 1.69075,0.0891 2.3755,0.77383 l 0.77383,0.77383 v 3.66771 c 0,2.79648 0.0923,3.79952 0.3887,4.22264 0.35012,0.49987 0.33671,0.60199 -0.13514,1.02901 -0.50503,0.45704 -0.54565,0.45357 -1.13136,-0.0967 l -0.60752,-0.57073 -1.03407,0.52719 c -0.56874,0.28996 -1.45561,0.52254 -1.97084,0.51684 -0.51522,-0.006 -1.32485,-0.17902 -1.79916,-0.38517 z m 3.77773,-1.49599 c 0.88498,-0.77703 0.94303,-0.9228 0.86959,-2.18404 l -0.0787,-1.35144 -1.3004,0.0465 c -0.80856,0.0289 -1.55952,0.23914 -1.98549,0.55576 -0.48369,0.35953 -0.70977,0.80221 -0.76905,1.50587 -0.0628,0.74537 0.0656,1.15588 0.50942,1.62827 0.32637,0.3474 0.86631,0.63164 1.19987,0.63164 0.33356,0 1.03319,-0.37467 1.55474,-0.8326 z m -211.9823375,-4.52822 -0.071062,-6.15501 -1.8531215,-0.0294 c -1.796303,-0.0285 -1.855691,-0.0508 -1.936889,-0.72802 l -0.08377,-0.69859 h 4.8003395 4.8003394 l -0.083767,0.69859 c -0.081199,0.67718 -0.1405869,0.6995 -1.9368891,0.72802 l -1.853122,0.0294 -0.071062,6.15501 -0.071062,6.15501 H -7.2544101 -8.038847 Z m 18.3277925,-0.72801 v -6.88303 l 0.860379,-1.9e-4 0.860378,-1.8e-4 -0.07476,6.88321 -0.07476,6.88321 h -0.785618 -0.785621 z m 6.025684,5.30532 c -0.620481,-0.86773 -1.765586,-2.47646 -2.544681,-3.57496 l -1.416532,-1.99728 2.210727,-3.30313 2.21073,-3.30313 1.131212,-0.005 1.131214,-0.005 -0.469385,0.72742 c -0.258161,0.40008 -1.225846,1.74028 -2.150411,2.97823 -0.924567,1.23795 -1.7383,2.39155 -1.808295,2.56357 -0.07,0.17201 0.150387,0.70339 0.489738,1.18084 0.339349,0.47745 1.546301,2.09387 2.682111,3.59204 l 2.065109,2.72395 h -1.201694 c -1.165148,0 -1.236009,-0.048 -2.329843,-1.5777 z m 16.114106,1.11442 c -0.07335,-0.2548 -0.688292,-2.52684 -1.366545,-5.04898 -0.678256,-2.52213 -1.191894,-4.62699 -1.141418,-4.67747 0.05047,-0.0505 0.406417,-0.17074 0.790982,-0.26726 0.696035,-0.17469 0.702269,-0.16247 1.372636,2.69198 0.370387,1.57711 0.774042,3.40356 0.897012,4.05877 0.122971,0.65521 0.328749,1.19129 0.457284,1.19129 0.128536,0 0.435969,-0.84198 0.683186,-1.87106 0.247217,-1.02908 0.578319,-2.27994 0.735779,-2.77968 0.157463,-0.49975 0.416717,-1.41493 0.57612,-2.03374 0.269984,-1.04807 0.351868,-1.12511 1.195981,-1.12511 0.825383,0 0.928835,0.0885 1.160621,0.99275 0.139958,0.54601 0.590219,2.33295 1.000583,3.97097 0.410363,1.63803 0.834257,2.97823 0.941984,2.97823 0.10773,0 0.2515,-0.26804 0.319494,-0.59564 0.06799,-0.32761 0.450465,-2.11455 0.84994,-3.97098 l 0.726315,-3.37533 h 0.8937 c 0.726315,0 0.868304,0.0868 0.758099,0.46328 -0.07458,0.25481 -0.394929,1.41632 -0.711882,2.58114 -0.316953,1.16482 -0.859605,3.08811 -1.205895,4.27399 -0.346288,1.18588 -0.629617,2.35458 -0.629617,2.59711 0,0.34645 -0.208731,0.42337 -0.973697,0.35882 l -0.973696,-0.0822 -0.837347,-3.17678 c -0.46054,-1.74723 -0.918116,-3.50438 -1.016834,-3.90479 -0.09872,-0.40041 -0.273365,-0.72801 -0.388102,-0.72801 -0.114738,0 -0.482545,1.10194 -0.817352,2.44877 -0.334806,1.34682 -0.794274,3.13376 -1.021038,3.97097 -0.395064,1.45857 -0.448479,1.52221 -1.277619,1.52221 -0.596825,0 -0.906698,-0.14375 -0.998674,-0.46328 z m 22.120202,0.12618 c -0.166593,-0.20073 -0.31357,-2.28802 -0.363329,-5.15981 l -0.08356,-4.82272 0.705507,-0.24557 c 0.388028,-0.13506 0.775198,-0.17588 0.860378,-0.0907 0.08518,0.0852 0.154871,0.43284 0.154871,0.77258 0,0.33974 0.06193,0.61771 0.137626,0.61771 0.0757,0 0.60941,-0.29782 1.186033,-0.66183 0.710685,-0.44864 1.426266,-0.66183 2.221424,-0.66183 0.984866,0 1.282957,0.13065 1.858385,0.81451 0.678243,0.80604 0.685362,0.86104 0.685362,5.29463 v 4.48013 h -0.794195 -0.794196 v -4.10334 c 0,-3.81808 -0.03872,-4.14207 -0.55704,-4.66038 -0.426557,-0.42656 -0.752114,-0.51886 -1.389842,-0.39404 -0.458041,0.0897 -1.130624,0.38276 -1.49463,0.65136 -0.648958,0.47886 -0.663251,0.56632 -0.734909,4.49738 l -0.07308,4.00902 h -0.622519 c -0.342386,0 -0.748415,-0.15169 -0.902288,-0.3371 z m 35.186494,-0.14197 c -0.141015,-0.26349 -0.294117,-2.58541 -0.340228,-5.15982 l -0.08384,-4.68076 0.705508,-0.24556 c 0.388028,-0.13506 0.775198,-0.17587 0.860378,-0.0907 0.08518,0.0852 0.15487,0.43284 0.15487,0.77258 0,0.33974 0.127077,0.61771 0.282395,0.61771 0.155318,0 0.672861,-0.29782 1.150098,-0.66183 0.626374,-0.47776 1.196714,-0.66183 2.050662,-0.66183 0.950522,0 1.322732,0.14589 1.894317,0.7425 l 0.711358,0.7425 v 4.55213 4.55214 h -0.794195 -0.794195 v -4.2296 c 0,-4.20082 -0.0044,-4.23251 -0.651071,-4.65621 -0.436355,-0.28591 -0.912435,-0.36919 -1.443593,-0.25253 -0.435886,0.0957 -1.095939,0.41274 -1.466783,0.70444 -0.668728,0.52602 -0.674261,0.56281 -0.674261,4.48214 v 3.95176 h -0.652516 c -0.358883,0 -0.767891,-0.21558 -0.908906,-0.47907 z m 47.837029,-6.38299 2.30266,-6.89238 1.23332,-0.006 1.23332,-0.006 2.17661,6.55211 c 1.19714,3.60366 2.23335,6.70102 2.3027,6.88303 0.0874,0.22933 -0.18734,0.33089 -0.89498,0.33083 l -1.02106,-8e-5 -0.67328,-2.05159 -0.67327,-2.05159 -2.55562,-0.0756 -2.55563,-0.0756 -0.64817,2.06109 c -0.6379,2.0284 -0.66309,2.06237 -1.58872,2.14243 l -0.94053,0.0813 z m 5.5577,0.97178 c -0.0511,-0.182 -0.49701,-1.61155 -0.99088,-3.17678 -0.49387,-1.56523 -0.98581,-2.84587 -1.09321,-2.84587 -0.1074,0 -0.62327,1.35897 -1.14639,3.01992 -0.52311,1.66096 -0.95112,3.09051 -0.95112,3.17678 0,0.0863 0.96177,0.15686 2.13727,0.15686 1.58289,0 2.11316,-0.0858 2.04433,-0.33091 z m 39.97846,0.79419 c -0.0452,-2.80284 -0.0735,-5.12462 -0.0629,-5.15951 0.0106,-0.0349 0.39779,-0.13912 0.86038,-0.23164 0.77406,-0.15481 0.84107,-0.11284 0.84107,0.52671 0,0.38221 0.1424,0.69492 0.31643,0.69492 0.17404,0 0.62077,-0.28248 0.99274,-0.62773 0.37198,-0.34525 1.00393,-0.70491 1.40433,-0.79924 0.50256,-0.11839 0.72689,-0.0675 0.7244,0.16445 -0.002,0.18478 -0.0754,0.604 -0.16324,0.93161 -0.0921,0.3435 -0.36541,0.59564 -0.64576,0.59564 -0.26737,0 -0.77642,0.13227 -1.13123,0.29393 -0.35479,0.16165 -0.77735,0.58421 -0.93901,0.93901 -0.16888,0.37065 -0.29393,2.16026 -0.29393,4.20652 v 3.56142 h -0.91051 -0.91052 z m -160.592373,-7.2801 c 0.07379,-0.38642 0.435444,-0.47623 2.180047,-0.54137 1.150371,-0.043 2.249018,-0.0177 2.441436,0.0562 0.192417,0.0738 0.279549,0.31746 0.193625,0.54137 -0.124504,0.32446 -0.638213,0.40712 -2.529898,0.40712 -2.117857,0 -2.364139,-0.0499 -2.28521,-0.46328 z"
         id="path881" /></g><path
       style="fill:#000000;stroke-width:0.264583"
       id="path769"
       d="" /><path
       style="fill:#000000;stroke-width:0.264583"
       id="path767"
       d="" /><path
       style="fill:#000000;stroke-width:0.264583"
       id="path358"
       d="" /><path
       style="fill:#000000;stroke-width:0.264583"
       id="path356"
       d="" /></g></svg>
