<?xml version="1.0" encoding="UTF-8" standalone="no"?>
<!-- Created with Inkscape (http://www.inkscape.org/) -->

<svg
   width="1343.0698"
   height="354.60602"
   viewBox="0 0 355.35388 93.822842"
   version="1.1"
   id="svg1"
   xml:space="preserve"
   inkscape:version="1.3.2 (091e20e, 2023-11-25, custom)"
   sodipodi:docname="TimaMatawhanui_Logo2.svg"
   inkscape:export-filename="TimaMatawhanui_Logo_no_bckgrnd.png"
   inkscape:export-xdpi="96"
   inkscape:export-ydpi="96"
   xmlns:inkscape="http://www.inkscape.org/namespaces/inkscape"
   xmlns:sodipodi="http://sodipodi.sourceforge.net/DTD/sodipodi-0.dtd"
   xmlns="http://www.w3.org/2000/svg"
   xmlns:svg="http://www.w3.org/2000/svg"><sodipodi:namedview
     id="namedview1"
     pagecolor="#ffffff"
     bordercolor="#000000"
     borderopacity="0.25"
     inkscape:showpageshadow="2"
     inkscape:pageopacity="0.0"
     inkscape:pagecheckerboard="0"
     inkscape:deskcolor="#d1d1d1"
     inkscape:document-units="mm"
     inkscape:zoom="0.94615212"
     inkscape:cx="552.23678"
     inkscape:cy="118.90266"
     inkscape:window-width="2880"
     inkscape:window-height="1526"
     inkscape:window-x="-11"
     inkscape:window-y="-2"
     inkscape:window-maximized="1"
     inkscape:current-layer="g37"
     inkscape:export-bgcolor="#ffffff00" /><defs
     id="defs1" /><g
     inkscape:label="Layer 1"
     inkscape:groupmode="layer"
     id="layer1"
     transform="translate(-148.0213,-123.96943)"
     style="display:inline"><g
       id="g37"
       transform="matrix(-1,0,0,1,510.3981,-12.958756)"><rect
         style="display:none;fill:#203864;fill-opacity:1;stroke:#ffffff;stroke-width:0.351512"
         id="rect5"
         width="355.14612"
         height="94.240646"
         x="-362.0979"
         y="137.23721"
         transform="scale(-1,1)" /><g
         id="g34"
         transform="translate(118.82618,101.47585)"><path
           style="fill:#f9f9f9;stroke-width:0.419371"
           d="m 216.75244,91.35714 c 0.0371,-0.06002 0.013,-0.210914 -0.0536,-0.335329 -0.0666,-0.124415 -1.78278,-2.559597 -3.81377,-5.41152 -2.03099,-2.851927 -4.90911,-6.895467 -6.39583,-8.985645 -1.81744,-2.555143 -2.76778,-3.80033 -2.90045,-3.80033 -0.10853,0 -0.24915,0.09684 -0.31249,0.215191 -0.0634,0.118355 -0.38837,0.52845 -0.72229,0.911319 -0.33391,0.382873 -0.75544,0.97442 -0.93673,1.314559 -0.18129,0.340139 -0.55509,0.866257 -0.83065,1.169152 -0.27557,0.302899 -0.66529,0.842281 -0.86604,1.198629 -0.20076,0.356348 -0.6071,0.930559 -0.90299,1.276024 -0.29589,0.345465 -0.6539,0.852807 -0.79557,1.127428 -0.14167,0.274625 -0.53634,0.823866 -0.87704,1.220545 -0.3407,0.396679 -0.72601,0.93833 -0.85623,1.20367 -0.13022,0.26534 -0.48435,0.764656 -0.78694,1.109584 -0.3026,0.344932 -0.68151,0.851839 -0.84204,1.126459 -0.16052,0.274625 -0.52543,0.790401 -0.8109,1.146179 -0.28548,0.355773 -0.67025,0.930542 -0.85505,1.277265 -0.18481,0.346723 -0.47137,0.754675 -0.63681,0.906558 -0.36963,0.339338 -1.15689,1.527844 -1.15689,1.746529 0,0.08797 -0.20194,0.389373 -0.44877,0.669777 -0.2768,0.314461 -0.43625,0.597364 -0.41609,0.738256 l 0.0327,0.228427 13.05853,0.02818 c 8.47047,0.01828 13.08224,-0.01015 13.12599,-0.08093 z"
           id="path23" /><path
           style="fill:#f9f9f9;stroke-width:0.419371"
           d="m 107.73008,54.068419 c -0.11804,-0.06318 -0.21462,-0.158319 -0.21462,-0.211432 0,-0.144302 12.96634,-18.252838 13.10264,-18.29889 0.0645,-0.02179 0.24388,0.07807 0.3986,0.221917 0.24101,0.224081 12.37236,17.111292 12.80682,17.827493 0.3621,0.596915 0.84226,0.575774 -13.07702,0.575774 -8.61241,0 -12.87203,-0.03759 -13.01642,-0.114862 z"
           id="path22" /><path
           style="fill:#f9f9f9;stroke-width:0.419371"
           d="m 80.774452,91.35199 c 0,-0.123362 0.241406,-0.535298 0.536456,-0.915407 0.806496,-1.039 2.681342,-3.699153 2.681342,-3.804465 0,-0.05077 0.122162,-0.21986 0.271472,-0.375765 0.218825,-0.228494 2.467868,-3.343245 3.44564,-4.771941 0.536048,-0.783263 1.410302,-1.991257 1.810692,-2.501916 0.239247,-0.305135 0.664229,-0.904311 0.944407,-1.331503 0.280177,-0.427188 0.643428,-0.941617 0.807226,-1.143167 0.504582,-0.620895 2.02169,-2.769382 2.202682,-3.119385 0.0942,-0.182162 0.171275,-0.438134 0.171275,-0.568822 0,-0.130693 0.102541,-0.370342 0.227866,-0.532563 0.658936,-0.852917 0.956417,-1.265616 1.608706,-2.231808 0.393227,-0.58246 0.800294,-1.183848 0.904596,-1.336416 0.104301,-0.152568 0.56628,-0.77787 1.026624,-1.389559 1.029517,-1.367992 1.3363,-1.800402 1.3363,-1.883509 0,-0.03534 0.362001,-0.542653 0.804449,-1.12736 0.721645,-0.953668 1.242335,-1.685664 2.689175,-3.780451 0.24324,-0.352178 0.59694,-0.818516 0.78599,-1.036307 0.18905,-0.21779 0.68633,-0.916829 1.10507,-1.553419 0.41873,-0.63659 1.0387,-1.518343 1.3777,-1.95945 0.33899,-0.441106 0.78022,-1.0278 0.98049,-1.303762 0.20027,-0.275963 0.42963,-0.501751 0.50968,-0.501751 0.18082,0 1.02911,0.992959 1.17411,1.374333 0.0588,0.154777 0.42104,0.659752 0.80487,1.122165 0.73481,0.885245 0.93838,1.164292 1.46761,2.011793 0.17925,0.287037 0.55373,0.811424 0.83219,1.165304 0.27846,0.35388 0.63112,0.849798 0.78369,1.102039 0.15257,0.252242 0.53953,0.762034 0.85993,1.132872 0.32039,0.370839 0.58253,0.718159 0.58253,0.771823 0,0.148463 0.82767,1.331759 1.10702,1.582677 0.13548,0.121693 0.44893,0.568158 0.69655,0.992146 0.24762,0.423987 0.63211,0.973528 0.85443,1.221201 0.22231,0.247674 0.57653,0.743918 0.78714,1.102764 0.21061,0.358847 0.59098,0.885835 0.84526,1.171083 0.25428,0.285252 0.64333,0.827478 0.86456,1.204949 0.22123,0.377472 0.64679,0.965778 0.94569,1.307343 0.51053,0.58342 0.78383,1.188534 0.61367,1.358736 -0.0414,0.04139 -5.96301,0.08837 -13.15914,0.104373 -11.774936,0.02617 -13.08388,0.04642 -13.08388,0.202414 0,0.09533 2.862261,4.176615 6.36058,9.069515 3.49832,4.8929 6.39729,8.958596 6.44215,9.034879 0.0448,0.07628 0.0507,0.188633 0.013,0.24966 -0.0451,0.07295 -4.51347,0.110957 -13.044182,0.110957 -12.947558,0 -12.975599,-4.19e-4 -12.975599,-0.2243 z"
           id="path21" /><path
           style="fill:#f9f9f9;stroke-width:0.419371"
           d="m 134.51823,91.409119 c -0.0409,-0.106659 2.23306,-3.378808 6.28211,-9.039614 3.49044,-4.879841 6.37257,-8.973073 6.40474,-9.096062 0.0583,-0.223126 0.0297,-0.223688 -12.91912,-0.25317 -13.33442,-0.03036 -13.34452,-0.03066 -13.34452,-0.426059 0,-0.05057 2.77898,-3.976548 6.17551,-8.724397 3.39653,-4.747849 6.32713,-8.844661 6.51244,-9.104026 0.38812,-0.543232 0.71193,-0.608639 1.09865,-0.221917 0.13731,0.137311 0.32455,0.250841 0.41609,0.252289 0.0993,0.0016 0.15229,0.08426 0.13134,0.205047 -0.0193,0.111328 0.0365,0.284903 0.12399,0.385722 0.0875,0.10082 0.34047,0.445448 0.56215,0.76584 1.0668,1.541789 1.22411,1.753687 1.36325,1.83633 0.0822,0.0488 0.1494,0.144128 0.1494,0.211834 0,0.06771 0.21199,0.402262 0.47108,0.743457 0.813,1.070624 0.95648,1.275215 1.18412,1.688515 0.1219,0.221325 0.29867,0.431966 0.39281,0.468091 0.0941,0.03612 0.17117,0.137422 0.17117,0.225104 0,0.08768 0.16227,0.359742 0.36061,0.604577 0.19834,0.244836 0.62764,0.82377 0.954,1.286521 0.32637,0.462752 0.66341,0.841367 0.74898,0.841367 0.0856,0 0.15557,0.105662 0.15557,0.234805 0,0.129143 0.24966,0.552488 0.5548,0.940766 0.30513,0.388278 0.55479,0.73414 0.55479,0.768582 0,0.03444 0.20346,0.332102 0.45213,0.661467 0.29827,0.395056 0.50787,0.577457 0.61591,0.535997 0.12744,-0.0489 0.14824,-9.64e-4 0.0938,0.216067 -0.0499,0.199032 -0.0118,0.322222 0.13307,0.430129 0.11168,0.08317 0.2986,0.325975 0.41536,0.53957 0.11676,0.213595 0.36337,0.582206 0.54801,0.81913 0.55795,0.715966 0.82888,1.103331 1.05682,1.510997 0.11943,0.213598 0.32116,0.451193 0.44829,0.527996 0.12713,0.0768 0.23115,0.236597 0.23115,0.355102 0,0.118502 0.0636,0.255393 0.14136,0.304195 0.20659,0.129674 0.48208,0.600602 0.54365,0.929326 0.0294,0.157189 2.9831,4.382589 6.56369,9.389776 3.58059,5.007192 6.51016,9.160192 6.51016,9.228898 0,0.09188 -3.46401,0.124913 -13.09659,0.124913 -11.56445,0 -13.1041,-0.01954 -13.16074,-0.167165 z"
           id="path20" /><path
           style="fill:#f9f9f9;stroke-width:0.419371"
           d="m 160.88651,91.465719 c 0,-0.122339 -1.24203,-1.957518 -2.76008,-4.07818 -10.20378,-14.254377 -10.21973,-14.277212 -10.22091,-14.637498 -8.4e-4,-0.2869 0.88053,-1.584177 4.7875,-7.045865 2.63376,-3.681821 5.48084,-7.663136 6.32684,-8.847368 1.56828,-2.195274 1.79821,-2.617977 1.52106,-2.796229 -0.0883,-0.05683 -5.75651,-0.08715 -13.33006,-0.07131 -12.07051,0.02524 -13.17633,0.0125 -13.17632,-0.151771 1e-5,-0.165368 -12.3827,-17.588053 -12.90759,-18.161189 -0.12807,-0.139849 -0.33227,-0.239711 -0.45378,-0.221917 -0.15047,0.02204 -2.2844,2.915859 -6.69233,9.075475 -3.55928,4.973716 -6.4973,9.142983 -6.52894,9.265038 -0.0572,0.220557 -0.13754,0.221726 -13.117821,0.190792 -7.183172,-0.01712 -13.169331,-0.0045 -13.302575,0.028 -0.439531,0.107265 -0.417638,0.446185 0.06855,1.061265 0.246793,0.312215 0.526438,0.731458 0.621435,0.931649 0.095,0.200191 0.418179,0.658253 0.718181,1.017915 0.300002,0.359661 0.727624,0.953518 0.950271,1.319681 0.222646,0.366164 0.591252,0.868394 0.819124,1.116067 0.227872,0.247674 0.629617,0.818968 0.892766,1.269542 0.26315,0.450574 0.660346,1.021868 0.882663,1.269541 0.222317,0.247674 0.57653,0.743413 0.787138,1.101643 0.210612,0.35823 0.637331,0.938136 0.948265,1.288682 0.310934,0.350546 0.671584,0.85635 0.801447,1.12401 0.129858,0.26766 0.465795,0.736311 0.746518,1.041447 0.280726,0.305136 0.657846,0.831255 0.838045,1.169153 0.180204,0.337898 0.602821,0.929887 0.939156,1.315531 0.336331,0.385645 0.729286,0.93305 0.873227,1.216457 0.143944,0.283406 0.404244,0.66448 0.578438,0.846831 0.638081,0.667957 0.926021,1.19784 0.92652,1.705028 4.15e-4,0.425414 -0.107648,0.637603 -0.90413,1.775339 -0.497533,0.710699 -1.099515,1.541834 -1.337738,1.846972 -0.405654,0.519596 -0.980691,1.325355 -2.396613,3.358192 -0.323934,0.46507 -0.760835,1.035817 -0.970889,1.26832 -0.210055,0.232507 -0.381917,0.46767 -0.381917,0.522591 0,0.108738 -2.610205,3.818136 -3.13051,4.448807 -0.176216,0.213598 -0.54955,0.73608 -0.82963,1.16107 -0.476971,0.723755 -2.174673,3.063769 -2.722723,3.752845 -0.192199,0.241658 -0.219681,0.350644 -0.125905,0.499311 0.112182,0.177847 0.968185,0.190181 13.199455,0.190181 14.941202,0 13.513842,0.121957 12.667422,-1.082342 -0.26788,-0.381145 -3.14264,-4.404949 -6.38835,-8.941787 -3.245708,-4.536834 -5.90129,-8.319135 -5.90129,-8.405106 0,-0.133557 1.880975,-0.156321 12.9176,-0.156321 7.10468,0 12.99657,-0.03032 13.09311,-0.06735 0.099,-0.03799 0.17533,-0.195259 0.1751,-0.360617 -4.2e-4,-0.292662 -0.34302,-0.970768 -0.59665,-1.180931 -0.24405,-0.202229 -0.97329,-1.215119 -1.11841,-1.553421 -0.0785,-0.183081 -0.39666,-0.620501 -0.70696,-0.972047 -0.3103,-0.351543 -0.74652,-0.950719 -0.96938,-1.331502 -0.22286,-0.380782 -0.59631,-0.900035 -0.82989,-1.153896 -0.23357,-0.25386 -0.54771,-0.703242 -0.69808,-0.998626 -0.15038,-0.295385 -0.5259,-0.82469 -0.83449,-1.176233 -0.3086,-0.351544 -0.74218,-0.95072 -0.96351,-1.331503 -0.22134,-0.380783 -0.56943,-0.867092 -0.77354,-1.080687 -0.20411,-0.213595 -0.56187,-0.69339 -0.79502,-1.066212 -0.23314,-0.372821 -0.63703,-0.940187 -0.89751,-1.260812 -0.26048,-0.320626 -0.65279,-0.888708 -0.87181,-1.262403 -0.21902,-0.373696 -0.73479,-1.054614 -1.14617,-1.513151 -0.41137,-0.458537 -0.78178,-0.972273 -0.82312,-1.141637 -0.0413,-0.169363 -0.24865,-0.499969 -0.4607,-0.734678 -0.40815,-0.451778 -0.50609,-0.747248 -0.21003,-0.633638 0.0965,0.03704 5.99377,0.06735 13.10498,0.06735 10.48936,0 12.91914,0.02692 12.87473,0.142657 -0.0301,0.07846 -2.84035,4.035521 -6.24498,8.793464 -3.40462,4.757944 -6.28981,8.819058 -6.41152,9.024701 -0.15641,0.264283 -0.18986,0.423715 -0.1141,0.543827 0.28096,0.445406 0.68903,0.459262 13.6734,0.464361 10.75862,0.0042 12.45862,0.02663 12.40613,0.163438 -0.0335,0.08719 -2.8876,4.112543 -6.34252,8.945222 -4.39511,6.147792 -6.27154,8.857741 -6.24793,9.023279 l 0.0338,0.236597 13.2318,0.02818 c 13.17736,0.02806 13.23181,0.02726 13.23181,-0.194236 z"
           id="path19" /><path
           style="fill:#f9f9f9;stroke-width:0.419371"
           d="m 107.45998,91.483169 c 0,-0.249521 12.96923,-18.322371 13.14858,-18.32279 0.2111,-4.2e-4 1.11864,1.028439 1.41892,1.608694 0.12548,0.242467 0.48026,0.740437 0.78842,1.106602 0.30816,0.366161 0.66837,0.864323 0.80048,1.107021 0.28133,0.516867 1.00153,1.525303 1.42822,1.999816 0.16463,0.183081 0.42719,0.557567 0.58346,0.832192 0.15628,0.27462 0.47825,0.724001 0.7155,0.998626 0.23724,0.274621 0.6032,0.787835 0.81324,1.140471 0.21004,0.352636 0.59207,0.881417 0.84895,1.175065 0.25688,0.293651 0.65328,0.85167 0.8809,1.240041 0.22762,0.388371 0.59972,0.908148 0.82689,1.155061 0.22717,0.246913 0.59107,0.753136 0.80867,1.124933 0.2176,0.371802 0.61401,0.921047 0.88093,1.220545 0.26692,0.299498 0.62012,0.794201 0.78489,1.099335 0.16477,0.305138 0.57485,0.879345 0.91128,1.276024 0.60876,0.717778 0.80012,1.101289 0.66146,1.325648 -0.0508,0.08217 -4.03292,0.109208 -13.18677,0.08953 -10.87005,-0.02336 -13.11402,-0.05363 -13.11402,-0.176811 z"
           id="path18" /><path
           style="fill:#f9f9f9;stroke-width:0.419371"
           d="m 120.97766,109.63481 c 0.72064,-0.97829 11.88173,-16.517441 12.24639,-17.050193 0.14256,-0.208272 0.23192,-0.464612 0.19858,-0.569652 -0.0435,-0.137122 0.0186,-0.210856 0.22017,-0.261457 0.51164,-0.128407 0.31282,-0.757556 -0.54439,-1.722729 -0.26831,-0.302098 -0.67091,-0.861652 -0.89468,-1.243447 -0.22376,-0.3818 -0.63172,-0.944294 -0.90656,-1.24999 -0.27485,-0.305692 -0.61631,-0.785884 -0.75881,-1.067093 -0.1425,-0.281209 -0.34549,-0.582988 -0.45108,-0.670624 -0.2721,-0.225827 -0.97407,-1.19392 -1.24397,-1.715579 -0.12558,-0.242703 -0.50629,-0.765826 -0.84604,-1.162505 -0.33974,-0.396678 -0.71267,-0.920955 -0.82871,-1.165062 -0.11605,-0.244112 -0.32215,-0.543698 -0.45801,-0.665752 -0.32598,-0.292863 -0.89482,-1.116293 -1.13179,-1.63833 -0.1043,-0.229782 -0.26607,-0.447117 -0.35949,-0.482965 -0.18706,-0.07178 -1.39291,-1.740523 -1.39291,-1.927608 0,-0.06435 -0.19006,-0.328095 -0.42236,-0.586096 -0.50223,-0.557793 -1.08889,-1.378791 -1.50469,-2.105733 -0.16581,-0.289881 -0.34522,-0.527052 -0.3987,-0.527052 -0.0535,0 -0.20695,-0.17752 -0.34104,-0.394486 -0.50029,-0.809482 -0.20203,-1.167755 -7.33461,8.810437 -4.17683,5.843207 -6.53142,9.230914 -6.53142,9.397186 0,0.143001 -0.0499,0.290863 -0.11096,0.328581 -0.21713,0.134195 -0.10494,0.474955 0.3145,0.955264 0.234,0.267961 0.48101,0.649337 0.54891,0.847511 0.1336,0.389876 0.52776,0.966184 1.08164,1.58146 0.19228,0.213598 0.48039,0.618488 0.64024,0.89976 0.15986,0.281272 0.50488,0.775224 0.76672,1.09767 0.26183,0.322446 0.67579,0.902385 0.9199,1.288756 0.2441,0.386366 0.61859,0.892278 0.83218,1.124245 0.2136,0.231971 0.58236,0.754633 0.81946,1.161473 0.23711,0.40684 0.6501,0.97982 0.91778,1.27328 0.26767,0.29346 0.63399,0.79244 0.81405,1.10886 0.18006,0.31642 0.55348,0.82989 0.82984,1.14105 0.27635,0.31116 0.62236,0.80124 0.76891,1.08908 0.14654,0.28783 0.50854,0.79954 0.80443,1.13714 0.29589,0.33759 0.73734,0.9555 0.981,1.37311 0.24366,0.41761 0.61908,0.9403 0.83427,1.16152 0.2152,0.22123 0.53018,0.58947 0.69996,0.81832 0.16979,0.22886 0.3807,0.4161 0.4687,0.4161 0.088,0 0.42666,-0.36201 0.75259,-0.80445 z"
           id="path17" /><path
           style="fill:#f9f9f9;stroke-width:0.419371"
           d="m 178.46991,108.03762 c 1.12569,-1.57145 3.7112,-5.17898 5.74557,-8.01674 5.21983,-7.2812 5.09986,-7.108582 5.09986,-7.338083 0,-0.202359 -0.35504,-0.207249 -13.06385,-0.179818 -14.74005,0.03183 -13.55907,-0.05226 -12.67893,0.902578 0.25173,0.273091 0.50396,0.664116 0.56051,0.868941 0.0566,0.204825 0.35378,0.670306 0.66048,1.034399 0.30672,0.364098 0.64438,0.805691 0.75038,0.981328 0.37709,0.624816 0.95202,1.464074 1.3775,2.010795 0.23747,0.305134 0.61105,0.829415 0.83019,1.165063 0.21913,0.335652 0.56143,0.785037 0.76066,0.998617 0.19923,0.2136 0.45034,0.56312 0.55801,0.77672 0.23514,0.46646 0.94116,1.43656 1.20467,1.65525 0.10408,0.0864 0.38209,0.48577 0.61781,0.88754 0.23572,0.40176 0.60791,0.93021 0.8271,1.17432 0.21919,0.2441 0.57794,0.75003 0.79724,1.12426 0.21929,0.37424 0.61527,0.92798 0.87994,1.23055 0.26468,0.30256 0.65497,0.8452 0.86731,1.20586 0.21234,0.36066 0.68963,1.00527 1.06064,1.43246 0.371,0.42719 0.67473,0.81416 0.67494,0.85993 2.1e-4,0.0458 0.0955,0.0832 0.21182,0.0832 0.14948,0 0.81117,-0.83723 2.25815,-2.85719 z"
           id="path16" /><path
           style="fill:#f9f9f9;stroke-width:0.419371"
           d="m 230.95141,128.82478 c 0.28633,-0.41026 1.57418,-2.20174 6.99771,-9.73424 4.75764,-6.60768 5.6015,-7.81298 5.6015,-8.0007 0,-0.20652 -0.28728,-0.21052 -13.11933,-0.18295 -11.65312,0.025 -13.12297,0.0471 -13.1519,0.19737 -0.0179,0.0931 0.1936,0.43417 0.47005,0.75804 0.27645,0.32386 0.50264,0.67914 0.50264,0.7895 0,0.20222 0.81219,1.3799 1.13282,1.6426 0.095,0.0778 0.36581,0.47269 0.60179,0.87748 0.236,0.40478 0.63402,0.96524 0.8845,1.24546 0.25049,0.28023 0.54444,0.68427 0.65322,0.89786 0.23322,0.45794 0.7455,1.1447 1.1962,1.60363 0.17695,0.18019 0.43922,0.55467 0.58282,0.83219 0.14361,0.27752 0.50133,0.79907 0.79494,1.15899 0.2936,0.35993 0.72458,0.9591 0.95773,1.33151 0.23315,0.3724 0.59091,0.85185 0.79502,1.06544 0.20411,0.2136 0.55848,0.71062 0.78748,1.10449 0.22901,0.39387 0.60224,0.91815 0.82941,1.16507 0.22717,0.24691 0.58871,0.74851 0.80343,1.11468 0.21472,0.36616 0.63748,0.94759 0.93948,1.29207 0.302,0.34448 0.6595,0.78138 0.79444,0.97089 0.3289,0.4619 0.55497,0.43099 0.94605,-0.12938 z"
           id="path15" /><path
           style="fill:#f9f9f9;stroke-width:0.419371"
           d="m 133.77807,91.506339 c 0.0929,-0.24209 -0.20277,-0.753903 -0.82492,-1.427974 -0.28163,-0.305134 -0.37674,-0.38003 -0.21134,-0.166436 0.82904,1.070612 0.95986,1.269478 0.95986,1.459109 0,0.198559 -0.42826,0.205269 -13.10497,0.205269 -12.43512,0 -13.1012,-0.0099 -13.03106,-0.194177 0.0564,-0.148055 0.043,-0.163529 -0.0561,-0.06515 -0.0715,0.07097 -0.0965,0.183315 -0.0555,0.24966 0.053,0.08576 3.85816,0.120623 13.1646,0.120623 11.99908,0 13.09582,-0.01506 13.15947,-0.180925 z m 26.99749,-0.05495 c 0,-0.0687 -2.92957,-4.221705 -6.51016,-9.228897 -3.58059,-5.007187 -6.53425,-9.232588 -6.56369,-9.389776 -0.0616,-0.328724 -0.33706,-0.799652 -0.54365,-0.929326 -0.0778,-0.0488 -0.14136,-0.185693 -0.14136,-0.304195 0,-0.118506 -0.10402,-0.278303 -0.23115,-0.355102 -0.12713,-0.0768 -0.32886,-0.314398 -0.44829,-0.527996 -0.22794,-0.407666 -0.49887,-0.795031 -1.05682,-1.510998 -0.18464,-0.236923 -0.43125,-0.605534 -0.54801,-0.819129 -0.11676,-0.213596 -0.30368,-0.456402 -0.41536,-0.539571 -0.14491,-0.107906 -0.18302,-0.231096 -0.13307,-0.430128 0.0545,-0.217026 0.0337,-0.264969 -0.0938,-0.216067 -0.10804,0.04146 -0.31764,-0.140941 -0.61591,-0.535998 -0.24867,-0.329364 -0.45213,-0.627024 -0.45213,-0.661466 0,-0.03444 -0.24966,-0.380304 -0.55479,-0.768583 -0.30514,-0.388278 -0.5548,-0.811622 -0.5548,-0.940765 0,-0.129143 -0.07,-0.234805 -0.15557,-0.234805 -0.0856,0 -0.42261,-0.378615 -0.74898,-0.841367 -0.32636,-0.462751 -0.75566,-1.041686 -0.954,-1.286521 -0.19834,-0.244836 -0.36061,-0.516895 -0.36061,-0.604577 0,-0.08768 -0.077,-0.188979 -0.17117,-0.225104 -0.0941,-0.03612 -0.27091,-0.246766 -0.39281,-0.468092 -0.22764,-0.413299 -0.37112,-0.61789 -1.18412,-1.688515 -0.25909,-0.341195 -0.47108,-0.67575 -0.47108,-0.743456 0,-0.06771 -0.0672,-0.163032 -0.1494,-0.211835 -0.13914,-0.08264 -0.29645,-0.294541 -1.36325,-1.836329 -0.22168,-0.320393 -0.47465,-0.665021 -0.56215,-0.76584 -0.0875,-0.100819 -0.14329,-0.274394 -0.12399,-0.385722 0.0209,-0.120791 -0.032,-0.203476 -0.13134,-0.205047 -0.0915,-0.0015 -0.27878,-0.114978 -0.41609,-0.25229 -0.34374,-0.343737 -0.73292,-0.321571 -0.97413,0.05548 l -0.1952,0.305136 0.28775,-0.263695 c 0.15827,-0.145032 0.3589,-0.236392 0.44587,-0.203022 0.15483,0.05942 0.87838,1.055601 7.22956,9.953671 1.7206,2.410574 3.76406,5.268428 4.54103,6.350782 0.77698,1.082355 1.38138,2.018571 1.34312,2.080474 -0.0806,0.130433 -25.56836,0.140804 -26.02076,0.01057 -0.15899,-0.04576 -0.27135,-0.156287 -0.26322,-0.258928 0.008,-0.0985 2.55429,-3.72959 5.65888,-8.069097 6.32818,-8.845338 6.91134,-9.670558 6.66699,-9.434332 -0.25085,0.242511 -12.50649,17.414326 -12.50649,17.523287 0,0.395382 0.0101,0.395705 13.34452,0.426059 12.94877,0.02948 12.97746,0.03003 12.91912,0.25317 -0.0322,0.122989 -2.9143,4.216221 -6.40474,9.096062 -4.04905,5.660806 -6.32304,8.932955 -6.28211,9.039614 0.0566,0.14761 1.59629,0.167165 13.16074,0.167165 9.63258,0 13.09659,-0.03305 13.09659,-0.124913 z m -26.18622,-0.0869 c 0,-0.08683 6.2623,-8.932113 7.43075,-10.495687 0.41889,-0.560531 4.56556,-6.371266 5.14178,-7.205173 0.17139,-0.248033 0.34922,-0.464474 0.39519,-0.480985 0.046,-0.01652 0.72961,0.87412 1.5192,1.979175 0.7896,1.105059 1.63823,2.29195 1.88585,2.637545 0.24762,0.345591 0.62672,0.878007 0.84244,1.183141 1.56528,2.214052 8.08449,11.317415 8.4302,11.771853 0.23641,0.310775 0.42985,0.597881 0.42985,0.638014 0,0.04013 -5.86694,0.07297 -13.03763,0.07297 -7.7467,0 -13.03763,-0.04093 -13.03763,-0.100853 z m -27.79511,0.100854 c 0.0377,-0.06103 0.0319,-0.173376 -0.013,-0.24966 -0.0449,-0.07628 -2.94383,-4.141979 -6.44215,-9.034879 -3.498316,-4.892901 -6.360577,-8.974184 -6.360577,-9.069516 0,-0.155989 1.308945,-0.176236 13.083877,-0.202413 7.19613,-0.01602 13.11774,-0.06296 13.15914,-0.104373 0.17017,-0.170202 -0.10313,-0.775316 -0.61367,-1.358737 -0.29889,-0.341565 -0.72446,-0.929871 -0.94568,-1.307342 -0.22123,-0.377472 -0.61029,-0.919697 -0.86457,-1.204949 -0.25428,-0.285248 -0.63464,-0.812237 -0.84526,-1.171083 -0.21061,-0.358846 -0.56482,-0.85509 -0.78714,-1.102764 -0.22231,-0.247673 -0.60681,-0.797214 -0.85443,-1.221201 -0.24762,-0.423988 -0.56107,-0.870453 -0.69655,-0.992146 -0.27935,-0.250918 -1.10702,-1.434214 -1.10702,-1.582677 0,-0.05366 -0.26214,-0.400985 -0.58253,-0.771823 -0.32039,-0.370838 -0.70736,-0.880631 -0.85993,-1.132872 -0.15256,-0.252241 -0.50523,-0.748159 -0.78368,-1.102039 -0.27847,-0.35388 -0.65295,-0.878267 -0.83219,-1.165304 -0.52924,-0.847501 -0.7328,-1.126549 -1.46761,-2.011794 -0.38384,-0.462412 -0.74603,-0.967387 -0.80488,-1.122165 -0.14499,-0.381373 -0.99329,-1.374332 -1.17411,-1.374332 -0.08,0 -0.3094,0.225788 -0.50968,0.50175 -0.20027,0.275963 -0.64149,0.862656 -0.98049,1.303763 -0.339,0.441107 -0.95896,1.322859 -1.3777,1.95945 -0.41874,0.63659 -0.91602,1.335629 -1.10507,1.553419 -0.18905,0.21779 -0.54274,0.684129 -0.78599,1.036307 -1.44684,2.094787 -1.96753,2.826782 -2.689171,3.780451 -0.442449,0.584707 -0.80445,1.092019 -0.80445,1.12736 0,0.08311 -0.306782,0.515517 -1.3363,1.883508 -0.460343,0.61169 -0.922322,1.236992 -1.026624,1.38956 -0.104302,0.152568 -0.511368,0.753956 -0.904596,1.336416 -0.652289,0.966192 -0.94977,1.378891 -1.608706,2.231807 -0.125325,0.162221 -0.227865,0.401871 -0.227865,0.532564 0,0.130688 -0.07708,0.386659 -0.171276,0.568822 -0.180992,0.350002 -1.698099,2.498489 -2.202682,3.119385 -0.163798,0.201549 -0.527049,0.715979 -0.807226,1.143167 -0.280178,0.427192 -0.70516,1.026368 -0.944406,1.331502 -0.400391,0.51066 -1.274645,1.718653 -1.810693,2.501917 -0.977771,1.428695 -3.226815,4.543447 -3.44564,4.771941 -0.14931,0.155905 -0.271472,0.325 -0.271472,0.375765 0,0.105312 -1.874845,2.765465 -2.681342,3.804465 -0.29505,0.380109 -0.536456,0.792045 -0.536456,0.915407 0,0.223814 0.02804,0.2243 12.975599,0.2243 8.530716,0 12.999096,-0.03799 13.044176,-0.110957 z M 80.885411,91.26063 c 0,-0.112597 0.101449,-0.296533 0.225442,-0.408744 0.254967,-0.230742 2.771248,-3.731474 2.988542,-4.157756 0.07777,-0.152567 0.27832,-0.427188 0.445665,-0.610273 0.416948,-0.456153 2.842066,-3.861164 3.064563,-4.302828 0.09903,-0.196585 0.321108,-0.507221 0.493499,-0.690302 0.172391,-0.183084 0.553771,-0.684589 0.847506,-1.114461 0.29374,-0.429872 0.833659,-1.190766 1.19982,-1.690882 0.366166,-0.500112 0.765616,-1.057712 0.88767,-1.239107 0.122054,-0.181399 0.741385,-1.042245 1.376287,-1.912998 0.634907,-0.870752 1.177493,-1.671587 1.205746,-1.779638 0.06639,-0.253887 0.187626,-0.249865 0.313672,0.0104 0.0551,0.113767 2.958746,4.20179 6.452547,9.084495 3.49381,4.882705 6.35238,8.908959 6.35238,8.947227 0,0.03829 -5.817,0.06959 -12.92667,0.06959 -12.490735,0 -12.926669,-0.0069 -12.926669,-0.20472 z M 94.271782,72.713996 c -0.357531,-0.0013 -1.136915,1.13054 8.521118,-12.372516 2.18248,-3.05136 4.05554,-5.638951 4.16235,-5.750203 0.187,-0.194762 0.2109,-0.183325 0.64327,0.307873 0.24698,0.280581 0.4828,0.644644 0.52406,0.809027 0.0413,0.164383 0.25857,0.505105 0.48292,0.757159 0.81747,0.91844 1.30956,1.559767 1.68686,2.198463 0.21198,0.358845 0.58701,0.883125 0.8334,1.165064 0.24638,0.281939 0.61739,0.79717 0.82445,1.144958 0.20707,0.347788 0.56844,0.847102 0.80304,1.109586 0.23461,0.262484 0.57526,0.738878 0.75702,1.058653 0.18175,0.319775 0.60047,0.899696 0.93048,1.288713 0.33001,0.389016 0.70474,0.912569 0.83273,1.16345 0.12799,0.250882 0.44453,0.695489 0.70343,0.988017 0.25889,0.292528 0.66292,0.861981 0.89783,1.26545 0.23492,0.40347 0.65154,0.976745 0.92583,1.273946 0.27429,0.297196 0.61486,0.768006 0.75682,1.046242 0.14197,0.278236 0.47432,0.770993 0.73856,1.095019 0.89082,1.092399 1.03471,1.402184 0.68278,1.470063 -0.13785,0.02659 -14.42709,0.01606 -25.706948,-0.01896 z m 14.364688,17.114713 c 0.38076,-0.533989 0.7398,-1.0333 0.79785,-1.109584 0.0581,-0.07628 0.0789,-0.138698 0.0462,-0.138698 -0.0326,0 -0.29766,0.337035 -0.58895,0.748971 -0.29129,0.411931 -0.65112,0.911247 -0.79962,1.109584 -0.1485,0.198337 -0.2425,0.360617 -0.2089,0.360617 0.0336,0 0.37262,-0.436901 0.75338,-0.97089 z m 23.54028,-0.88504 c -0.16044,-0.291324 -0.50982,-0.775274 -0.77641,-1.075443 -0.26658,-0.300173 -0.67733,-0.874384 -0.91276,-1.276024 -0.23544,-0.401644 -0.59036,-0.880054 -0.78871,-1.063134 -0.35522,-0.327869 -0.35745,-0.328338 -0.14843,-0.03124 0.11671,0.165908 0.24745,0.303218 0.29053,0.305135 0.0431,0.0021 0.27754,0.344588 0.52102,0.761485 0.24348,0.416901 0.66304,1.003592 0.93235,1.303765 0.26932,0.300169 0.59587,0.754582 0.72568,1.009807 0.12981,0.255225 0.28381,0.493583 0.34222,0.529683 0.0584,0.03611 -0.0251,-0.172718 -0.18549,-0.464047 z m -21.59811,-1.833443 c 0.53253,-0.747583 1.01598,-1.421655 1.07433,-1.497938 0.0584,-0.07629 0.0797,-0.138699 0.0475,-0.138699 -0.0323,0 -0.42196,0.511796 -0.86605,1.137325 -0.4441,0.625526 -0.92909,1.299601 -1.07774,1.497939 -0.14866,0.198337 -0.24238,0.360616 -0.20827,0.360616 0.0341,0 0.49773,-0.61166 1.03025,-1.359243 z m 1.48612,-2.080474 c 0.13037,-0.18308 0.21206,-0.332876 0.18155,-0.332876 -0.0305,0 -0.16215,0.149796 -0.29251,0.332876 -0.13037,0.183085 -0.21206,0.332876 -0.18155,0.332876 0.0305,0 0.16214,-0.149791 0.29251,-0.332876 z m 16.79761,-0.691375 c -0.27366,-0.44361 -0.70733,-1.056915 -0.96371,-1.3629 -0.25638,-0.305986 -0.5557,-0.680472 -0.66516,-0.832192 -0.19171,-0.26573 -0.19174,-0.262446 -0.001,0.08943 0.10887,0.200904 0.40752,0.604859 0.66367,0.897672 0.25615,0.292817 0.64464,0.837659 0.86331,1.210765 0.21867,0.373102 0.44324,0.70659 0.49905,0.741079 0.0558,0.03447 -0.12244,-0.30024 -0.3961,-0.743851 z m -16.33962,0.05336 c 0.13802,-0.175985 0.13409,-0.17991 -0.0419,-0.04189 -0.18483,0.144956 -0.24361,0.236072 -0.15228,0.236072 0.023,0 0.11042,-0.08738 0.19417,-0.194177 z m 0.44367,-0.610272 c 0.13807,-0.198338 0.37864,-0.532857 0.53461,-0.743377 0.15597,-0.210516 0.23029,-0.350519 0.16516,-0.311115 -0.14032,0.08489 -1.08579,1.415109 -1.0058,1.415109 0.0303,0 0.16797,-0.16228 0.30603,-0.360617 z m 1.94366,-2.70865 c 0.60154,-0.833713 1.13786,-1.595169 1.19182,-1.692119 0.20271,-0.364165 -0.14052,0.06894 -1.00344,1.26619 -1.22969,1.706126 -1.39149,1.941775 -1.33326,1.941775 0.0281,0 0.54334,-0.682132 1.14488,-1.515846 z m 11.92142,0.329219 c -0.0668,-0.133909 -0.17524,-0.276747 -0.24103,-0.317409 -0.0658,-0.04068 -0.34016,-0.373492 -0.60968,-0.739615 -0.26953,-0.366128 -0.49005,-0.627278 -0.49005,-0.580342 0,0.08907 0.66971,0.974198 1.17122,1.547969 0.20477,0.234273 0.25499,0.260756 0.16954,0.0894 z m -1.46418,-1.988967 c -0.0847,-0.129355 -0.3537,-0.483732 -0.59781,-0.787511 -0.24411,-0.303776 -0.55881,-0.697255 -0.69933,-0.874393 -0.14053,-0.177142 -0.0516,-0.02248 0.19763,0.343679 0.41927,0.615997 1.44439,1.845039 1.09951,1.318225 z m -8.00512,-1.789799 c 0.60428,-0.839128 1.5419,-2.142713 2.0836,-2.896859 0.54169,-0.754146 1.05052,-1.396358 1.13072,-1.427136 0.0802,-0.03078 0.23258,0.01204 0.3386,0.09516 0.17439,0.13671 0.17825,0.132609 0.0405,-0.04307 -0.0838,-0.106797 -0.23355,-0.192889 -0.33288,-0.191317 -0.10676,0.0017 -0.88368,0.986201 -1.90045,2.408254 -0.94592,1.322969 -1.90984,2.669824 -2.14205,2.993021 -0.23221,0.323192 -0.39847,0.587626 -0.36946,0.587626 0.029,0 0.54716,-0.686556 1.15144,-1.525679 z m 6.40155,-0.393144 c -0.0417,-0.109426 -0.10371,-0.171011 -0.13787,-0.136849 -0.0342,0.03418 -8e-5,0.123698 0.0758,0.198967 0.10958,0.108768 0.12232,0.09602 0.0621,-0.06212 z m -0.27754,-0.478045 c -0.26698,-0.39113 -1.24581,-1.597639 -1.29615,-1.597639 -0.026,0 0.0944,0.191002 0.26746,0.424449 0.36689,0.494783 1.26397,1.517875 1.02869,1.17319 z m -1.53373,-2.124692 c -0.1177,-0.228855 -0.38086,-0.565785 -0.58478,-0.74874 l -0.37078,-0.332641 0.34819,0.388124 c 0.19151,0.213464 0.42997,0.550399 0.52991,0.748736 0.0999,0.198337 0.2064,0.360613 0.23659,0.360613 0.0302,0 -0.0414,-0.187241 -0.15913,-0.416092 z M 133.72941,54.06343 c 0.21273,-0.1239 0.2574,-0.382779 0.0845,-0.48964 -0.0643,-0.03976 -0.0806,0.008 -0.0393,0.115608 0.0399,0.103905 0.003,0.225904 -0.0845,0.28146 -0.17191,0.108851 -25.60607,0.142361 -25.88817,0.03411 -0.0965,-0.03704 -0.17552,-0.107029 -0.17552,-0.155523 0,-0.0727 2.31599,-3.392616 2.68917,-3.854853 0.0616,-0.07628 0.0823,-0.138698 0.0461,-0.138698 -0.0877,0 -2.84624,3.878025 -2.84624,4.001392 0,0.05295 0.0966,0.147954 0.21462,0.211128 0.29566,0.158235 25.72747,0.15336 25.99933,-0.005 z m -0.24965,-0.989739 c -0.13037,-0.183082 -0.262,-0.332876 -0.29251,-0.332876 -0.0305,0 0.0512,0.149794 0.18155,0.332876 0.13036,0.183081 0.26199,0.332875 0.29251,0.332875 0.0305,0 -0.0512,-0.149794 -0.18155,-0.332875 z m -0.5548,-0.77671 c -0.13036,-0.183082 -0.26199,-0.332875 -0.2925,-0.332875 -0.0305,0 0.0512,0.149793 0.18155,0.332875 0.13036,0.183082 0.26199,0.332876 0.2925,0.332876 0.0305,0 -0.0512,-0.149794 -0.18155,-0.332876 z m -0.55479,-0.77671 c -0.13036,-0.183081 -0.26199,-0.332875 -0.2925,-0.332875 -0.0305,0 0.0512,0.149794 0.18154,0.332875 0.13037,0.183082 0.262,0.332876 0.29251,0.332876 0.0305,0 -0.0512,-0.149794 -0.18155,-0.332876 z m -0.55479,-0.776709 c -0.13037,-0.183082 -0.262,-0.332876 -0.29251,-0.332876 -0.0305,0 0.0512,0.149794 0.18155,0.332876 0.13037,0.183081 0.26199,0.332875 0.29251,0.332875 0.0305,0 -0.0512,-0.149794 -0.18155,-0.332875 z m -0.5548,-0.77671 c -0.13036,-0.183082 -0.26199,-0.332876 -0.2925,-0.332876 -0.0305,0 0.0512,0.149794 0.18155,0.332876 0.13036,0.183081 0.26199,0.332875 0.2925,0.332875 0.0305,0 -0.0512,-0.149794 -0.18155,-0.332875 z m -20.50657,-0.582533 c 0.44984,-0.603003 0.80046,-1.147354 0.62537,-0.970887 -0.22607,0.227843 -1.01031,1.331503 -0.94614,1.331503 0.0285,0 0.17282,-0.162277 0.32077,-0.360616 z m 19.95178,-0.194177 c -0.13036,-0.183082 -0.26199,-0.332875 -0.2925,-0.332875 -0.0305,0 0.0512,0.149793 0.18154,0.332875 0.13037,0.183082 0.262,0.332876 0.29251,0.332876 0.0305,0 -0.0512,-0.149794 -0.18155,-0.332876 z m -0.57544,-0.804449 c -0.14789,-0.198339 -0.58163,-0.797515 -0.96387,-1.331503 -0.38223,-0.533988 -0.72247,-0.970887 -0.75607,-0.970887 -0.0336,0 0.0599,0.162277 0.20782,0.360615 0.14789,0.198339 0.58163,0.797515 0.96387,1.331503 0.38224,0.533988 0.72247,0.970887 0.75607,0.970887 0.0336,0 -0.0599,-0.162277 -0.20782,-0.360615 z m -17.83225,-1.16506 c 0.38076,-0.533988 0.7398,-1.033301 0.79786,-1.109585 0.058,-0.07628 0.0789,-0.138698 0.0462,-0.138698 -0.0326,0 -0.29766,0.337036 -0.58895,0.74897 -0.29129,0.411933 -0.65112,0.911247 -0.79962,1.109585 -0.14849,0.198339 -0.2425,0.360615 -0.2089,0.360615 0.0336,0 0.37262,-0.436899 0.75338,-0.970887 z m 16.00574,-1.359242 c -1.15154,-1.664395 -6.50189,-9.0986 -6.54821,-9.0986 -0.0351,0 0.0578,0.162277 0.20652,0.360616 0.14869,0.198338 1.58476,2.208074 3.19128,4.466081 1.60653,2.258006 2.99849,4.180362 3.09326,4.271903 0.15316,0.147945 0.15951,0.147945 0.0572,0 z m -11.67976,-4.687998 c 1.84292,-2.578399 3.48086,-4.874174 3.63988,-5.101723 0.15902,-0.227549 0.34766,-0.414792 0.41919,-0.416095 0.0715,-0.0013 0.34158,0.234805 0.6001,0.524684 0.25851,0.289879 0.40231,0.427191 0.31955,0.305136 -0.27133,-0.400166 -0.81327,-0.943147 -0.94134,-0.943147 -0.069,0 -1.5786,2.034701 -3.35464,4.52156 -1.77604,2.486858 -3.43515,4.808665 -3.68692,5.159572 -0.25178,0.350906 -0.43275,0.638011 -0.40217,0.638011 0.0306,0 1.56345,-2.109599 3.40635,-4.687998 z"
           id="path14" /><path
           style="fill:#f9f9f9;stroke-width:0.419371"
           d="m 107.84833,53.69047 c 0,-0.08794 0.047,-0.188935 0.10444,-0.224436 0.0575,-0.0355 0.43256,-0.53516 0.83358,-1.110353 0.40104,-0.575194 1.22562,-1.734964 1.83242,-2.577267 0.6068,-0.842303 1.28285,-1.781117 1.50234,-2.086253 0.21949,-0.305136 2.22599,-3.109511 4.45888,-6.231944 2.72668,-3.81294 4.10968,-5.658011 4.2117,-5.618863 0.12005,0.04607 3.79252,5.122689 9.37087,12.953771 0.21995,0.308778 1.08005,1.510109 1.91133,2.669626 0.83128,1.159516 1.51264,2.170626 1.51412,2.24691 0.002,0.110177 -2.64406,0.138698 -12.86848,0.138698 -11.1328,0 -12.8712,-0.02159 -12.8712,-0.159889 z"
           id="path31" /><path
           style="fill:#f9f9f9;stroke-width:0.419371"
           d="m 133.6901,53.970817 c 0.0852,-0.05393 0.1281,-0.167818 0.0954,-0.253077 -0.0891,-0.232221 -12.3814,-17.40588 -12.71158,-17.759444 -0.15672,-0.167825 -0.33802,-0.304248 -0.40288,-0.303162 -0.0649,0.0011 -0.37098,0.363087 -0.68024,0.804449 -0.30927,0.441362 -3.21777,4.512967 -6.46334,9.048013 -3.24557,4.535045 -5.90103,8.287036 -5.90103,8.337758 0,0.05072 0.079,0.122529 0.17551,0.159572 0.2821,0.108252 25.71627,0.07474 25.88817,-0.03411 z"
           id="path30" /><path
           style="fill:#e6e6e6;stroke-width:0.419371"
           d="m 119.97873,72.732953 c 0.35193,-0.06788 0.20804,-0.377665 -0.68278,-1.470063 -0.26424,-0.324027 -0.59659,-0.816783 -0.73856,-1.095019 -0.14196,-0.278236 -0.48253,-0.749047 -0.75682,-1.046242 -0.27429,-0.297201 -0.69091,-0.870476 -0.92583,-1.273946 -0.23491,-0.403469 -0.63894,-0.972922 -0.89783,-1.26545 -0.2589,-0.292528 -0.57544,-0.737136 -0.70343,-0.988017 -0.12799,-0.250881 -0.50272,-0.774434 -0.83273,-1.163451 -0.33001,-0.389016 -0.74873,-0.968937 -0.93048,-1.288712 -0.18176,-0.319775 -0.52241,-0.796169 -0.75702,-1.058653 -0.2346,-0.262484 -0.59597,-0.761798 -0.80304,-1.109586 -0.20706,-0.347788 -0.57807,-0.863019 -0.82445,-1.144958 -0.24639,-0.281939 -0.62142,-0.806219 -0.8334,-1.165065 -0.3773,-0.638695 -0.86939,-1.280022 -1.68686,-2.198462 -0.22435,-0.252054 -0.44166,-0.592776 -0.48292,-0.757159 -0.0413,-0.164383 -0.27708,-0.528446 -0.52406,-0.809028 -0.43237,-0.491197 -0.45627,-0.502634 -0.64327,-0.307872 -0.17293,0.18012 -3.23897,4.448026 -10.443898,14.537836 -1.272371,1.781836 -2.343155,3.317224 -2.37951,3.411972 -0.0451,0.117512 -4.19e-4,0.172475 0.13994,0.172911 11.279858,0.03502 25.569098,0.04555 25.706948,0.01896 z"
           id="path29" /><path
           style="fill:#f9f9f9;stroke-width:0.419371"
           d="m 121.32349,72.577605 c -0.0441,-0.04415 0.0807,-0.268837 0.27744,-0.499311 0.19673,-0.230478 0.78526,-1.043193 1.30785,-1.806033 0.52259,-0.76284 1.22994,-1.759406 1.57188,-2.214591 0.69169,-0.920739 0.76816,-1.028286 1.39294,-1.959077 0.24109,-0.359165 0.53245,-0.760643 0.64748,-0.892173 0.11503,-0.131529 0.55472,-0.730705 0.97709,-1.331502 0.42237,-0.600797 1.02977,-1.458041 1.34977,-1.904986 0.32001,-0.446946 0.90639,-1.276763 1.30306,-1.844038 0.71841,-1.027373 1.44963,-2.041562 2.76458,-3.834408 0.38046,-0.518731 0.79404,-1.107527 0.91907,-1.308437 0.12503,-0.200909 0.27096,-0.350703 0.32427,-0.332875 0.14884,0.04977 1.42357,1.789148 1.42648,1.946448 0.001,0.07628 0.048,0.138698 0.10358,0.138698 0.0556,0 0.31343,0.336332 0.57304,0.747404 0.25962,0.411071 0.54331,0.818685 0.63043,0.905807 0.0871,0.08712 0.42746,0.537209 0.75632,1.000193 0.32885,0.462985 1.09435,1.540829 1.70112,2.39521 0.60676,0.85438 1.21939,1.716982 1.36138,1.916892 0.14201,0.19991 0.33309,0.458578 0.42463,0.574818 0.0915,0.11624 0.60486,0.826475 1.14072,1.578301 0.53586,0.751827 1.37187,1.916201 1.85779,2.5875 0.48593,0.671302 0.98207,1.402579 1.10253,1.625064 0.12047,0.222485 0.30789,0.493373 0.4165,0.601978 0.35859,0.358587 1.36326,1.764133 1.36326,1.907214 0,0.112585 -2.5372,0.134631 -12.80648,0.111285 -7.04357,-0.01602 -12.84259,-0.06523 -12.88673,-0.109381 z"
           id="path28" /><path
           style="fill:#f9f9f9;stroke-width:0.419371"
           d="m 147.40604,72.822715 c 0.0383,-0.0619 -0.56614,-0.998119 -1.34312,-2.080474 -0.77697,-1.082354 -2.82043,-3.940208 -4.54103,-6.350782 -6.33955,-8.881781 -7.07458,-9.894199 -7.22533,-9.952047 -0.22475,-0.08625 -0.4071,0.102187 -1.24447,1.286019 -0.41447,0.585952 -3.28567,4.605365 -6.38043,8.932027 -3.09478,4.326663 -5.60896,7.92034 -5.58709,7.985955 0.0219,0.06561 0.16089,0.153142 0.30893,0.194513 0.45497,0.12714 25.93377,0.11224 26.01254,-0.01522 z"
           id="path27" /><path
           style="fill:#e6e6e6;stroke-width:0.419371"
           d="m 106.73875,91.395757 c 0,-0.03829 -2.85857,-4.064522 -6.35238,-8.947227 -3.493801,-4.882706 -6.39745,-8.970728 -6.452547,-9.084495 -0.126046,-0.260266 -0.247277,-0.264288 -0.313672,-0.0104 -0.02827,0.108051 -0.570839,0.908886 -1.205746,1.779638 -0.634902,0.870753 -1.254233,1.731599 -1.376287,1.912998 -0.122054,0.181395 -0.521504,0.738994 -0.88767,1.239107 -0.366161,0.500116 -0.90608,1.26101 -1.19982,1.690882 -0.293735,0.429872 -0.675115,0.931377 -0.847506,1.114461 -0.172391,0.183081 -0.394465,0.493717 -0.493499,0.690302 -0.222497,0.441664 -2.647615,3.846674 -3.064563,4.302828 -0.167345,0.183085 -0.367895,0.457706 -0.445665,0.610273 -0.217294,0.426282 -2.733575,3.927014 -2.988542,4.157756 -0.123993,0.112211 -0.225442,0.296147 -0.225442,0.408744 0,0.197813 0.435934,0.20472 12.926669,0.20472 7.10967,0 12.92667,-0.03133 12.92667,-0.06959 z"
           id="path26" /><path
           style="fill:#e6e6e6;stroke-width:0.419371"
           d="m 160.6646,91.392357 c 0,-0.04013 -0.19344,-0.32724 -0.42985,-0.638014 -0.34571,-0.454439 -6.86492,-9.557802 -8.4302,-11.771853 -0.21572,-0.305135 -0.59482,-0.837551 -0.84244,-1.183142 -0.24762,-0.345595 -1.09625,-1.532486 -1.88585,-2.637545 -0.78959,-1.105055 -1.47323,-1.995681 -1.5192,-1.979174 -0.046,0.01652 -0.2238,0.232952 -0.39519,0.480984 -0.57622,0.833907 -4.72289,6.644642 -5.14178,7.205173 -1.16845,1.563574 -7.43075,10.408856 -7.43075,10.495687 0,0.05992 5.29093,0.100854 13.03763,0.100854 7.17069,0 13.03763,-0.03284 13.03763,-0.07297 z"
           id="path25" /><path
           style="fill:#f9f9f9;stroke-width:0.419371"
           d="m 107.75842,91.346727 c 0.0218,-0.06523 1.73605,-2.487741 3.80957,-5.383363 2.07352,-2.895622 4.04467,-5.657145 4.38032,-6.136725 0.33565,-0.479576 1.48407,-2.085057 2.55204,-3.567735 1.06798,-1.482677 1.97887,-2.749667 2.02421,-2.815538 0.0927,-0.134702 1.13707,0.960749 1.26102,1.322704 0.0418,0.122054 0.34239,0.571435 0.66799,0.998627 0.87874,1.152892 0.95398,1.258628 1.5398,2.163689 0.29625,0.457706 0.64835,0.957017 0.78243,1.109584 0.13409,0.152572 0.4816,0.626918 0.77224,1.05411 0.29064,0.427188 0.64633,0.8911 0.79043,1.030918 0.1441,0.139814 0.36422,0.45459 0.48916,0.699502 0.2535,0.496884 0.7965,1.234385 1.31607,1.787468 0.18893,0.201114 0.37518,0.465523 0.41389,0.587576 0.0966,0.304543 0.67011,1.128926 1.15789,1.664378 0.22237,0.244108 0.48852,0.623911 0.59144,0.844009 0.10292,0.220099 0.43515,0.694445 0.7383,1.054106 0.30313,0.359661 0.63788,0.796242 0.74388,0.970181 0.17148,0.281402 0.84002,1.231084 1.55196,2.20462 0.13731,0.187765 0.24965,0.383938 0.24965,0.43594 0,0.052 -5.82116,0.09455 -12.93591,0.09455 -9.13022,0 -12.92429,-0.03489 -12.89638,-0.118601 z"
           id="path24" /><path
           style="fill:#f9f9f9;stroke-width:0.419371"
           d="m 133.70167,91.370887 c 0,-0.112983 -0.13731,-0.383678 -0.30513,-0.601546 -0.16783,-0.217871 -0.50965,-0.662195 -0.75961,-0.987388 -0.24996,-0.325188 -0.54433,-0.766014 -0.65416,-0.979608 -0.10983,-0.213598 -0.41983,-0.63395 -0.68889,-0.934119 -0.26906,-0.300173 -0.68592,-0.882612 -0.92637,-1.294309 -0.24044,-0.411696 -0.47784,-0.76528 -0.52755,-0.785737 -0.13053,-0.05372 -0.96375,-1.196566 -1.16933,-1.603838 -0.0961,-0.190356 -0.40536,-0.614772 -0.68729,-0.943148 -0.28194,-0.328376 -0.68659,-0.892136 -0.89924,-1.252799 -0.21265,-0.360659 -0.60251,-0.902524 -0.86635,-1.204135 -0.26385,-0.301616 -0.54588,-0.680602 -0.62674,-0.842193 -0.0809,-0.161592 -0.40315,-0.618354 -0.71621,-1.015033 -0.68269,-0.865045 -1.27035,-1.72361 -1.27035,-1.855959 0,-0.05287 -0.27315,-0.418356 -0.60699,-0.8122 -0.33384,-0.39384 -0.78536,-1.015666 -1.00337,-1.381827 -0.53414,-0.897122 -1.21227,-1.656548 -1.41109,-1.580252 -0.13449,0.05161 -2.47459,3.238067 -4.63469,6.310948 -0.33565,0.477483 -2.34843,3.294707 -4.47286,6.260494 -2.12442,2.965791 -3.88984,5.463383 -3.92316,5.550205 -0.0522,0.135965 1.75755,0.157864 13.04441,0.157864 12.68019,0 13.10497,-0.0067 13.10497,-0.20542 z"
           id="path13" /><path
           style="fill:#e6e6e6;stroke-width:0.419371"
           d="m 133.58801,53.711707 c -0.002,-0.07628 -0.68284,-1.087393 -1.51412,-2.24691 -0.83128,-1.159517 -1.69138,-2.360848 -1.91133,-2.669625 -5.57835,-7.831083 -9.25082,-12.907703 -9.37087,-12.953772 -0.10202,-0.03915 -1.48502,1.805923 -4.2117,5.618863 -2.23289,3.122433 -4.23939,5.926808 -4.45888,6.231944 -0.21949,0.305136 -0.89554,1.24395 -1.50234,2.086253 -0.6068,0.842303 -1.43138,2.002073 -1.83242,2.577267 -0.40102,0.575194 -0.77613,1.074853 -0.83358,1.110353 -0.0574,0.0355 -0.10444,0.136497 -0.10444,0.224436 0,0.138295 1.7384,0.159889 12.8712,0.159889 10.22442,0 12.87063,-0.02852 12.86848,-0.138698 z"
           id="path33" /><path
           style="fill:#e6e6e6;stroke-width:0.419371"
           d="m 147.0167,72.575708 c 0,-0.14308 -1.00467,-1.548627 -1.36326,-1.907214 -0.10861,-0.108605 -0.29603,-0.379493 -0.4165,-0.601978 -0.12046,-0.222484 -0.6166,-0.953762 -1.10253,-1.625063 -0.48592,-0.6713 -1.32193,-1.835674 -1.85779,-2.587501 -0.53586,-0.751825 -1.04918,-1.462061 -1.14072,-1.578301 -0.0915,-0.116239 -0.28262,-0.374908 -0.42463,-0.574818 -0.14199,-0.19991 -0.75462,-1.062512 -1.36138,-1.916892 -0.60677,-0.854381 -1.37227,-1.932225 -1.70112,-2.39521 -0.32886,-0.462984 -0.6692,-0.913071 -0.75632,-1.000193 -0.0871,-0.08712 -0.37081,-0.494735 -0.63043,-0.905807 -0.25961,-0.411072 -0.51748,-0.747403 -0.57304,-0.747403 -0.0556,0 -0.10217,-0.06242 -0.10358,-0.138699 -0.003,-0.1573 -1.27764,-1.896681 -1.42648,-1.946448 -0.0533,-0.01783 -0.19924,0.131967 -0.32427,0.332875 -0.12503,0.20091 -0.53861,0.789706 -0.91907,1.308437 -1.31495,1.792846 -2.04617,2.807035 -2.76458,3.834408 -0.39667,0.567275 -0.98305,1.397092 -1.30306,1.844038 -0.32,0.446946 -0.9274,1.304189 -1.34977,1.904986 -0.42237,0.600797 -0.86206,1.199973 -0.97709,1.331502 -0.11503,0.13153 -0.40639,0.533008 -0.64748,0.892173 -0.62478,0.930791 -0.70125,1.038338 -1.39294,1.959077 -0.34194,0.455185 -1.04929,1.451751 -1.57188,2.214591 -0.52259,0.76284 -1.11112,1.575555 -1.30785,1.806033 -0.19673,0.230474 -0.32158,0.455164 -0.27744,0.499311 0.0441,0.04415 5.84316,0.09336 12.88673,0.109381 10.26928,0.02336 12.80648,0.0013 12.80648,-0.111285 z"
           id="path32" /><path
           style="fill:#e6e6e6;stroke-width:0.419371"
           d="m 133.59071,91.370799 c 0,-0.052 -0.11234,-0.248176 -0.24965,-0.435941 -0.71194,-0.973535 -1.38048,-1.923217 -1.55196,-2.20462 -0.106,-0.173938 -0.44075,-0.61052 -0.74388,-0.97018 -0.30315,-0.359661 -0.63538,-0.834007 -0.7383,-1.054106 -0.10292,-0.220098 -0.36907,-0.599901 -0.59144,-0.844009 -0.48778,-0.535453 -1.06129,-1.359835 -1.15789,-1.664378 -0.0387,-0.122054 -0.22496,-0.386463 -0.41389,-0.587576 -0.51957,-0.553083 -1.06257,-1.290585 -1.31607,-1.787468 -0.12494,-0.244912 -0.34506,-0.559688 -0.48916,-0.699502 -0.1441,-0.139818 -0.49979,-0.60373 -0.79043,-1.030918 -0.29064,-0.427192 -0.63815,-0.901539 -0.77224,-1.05411 -0.13408,-0.152567 -0.48618,-0.651878 -0.78243,-1.109584 -0.58582,-0.905061 -0.66106,-1.010797 -1.5398,-2.163689 -0.3256,-0.427192 -0.6262,-0.876573 -0.66799,-0.998627 -0.12395,-0.361955 -1.16831,-1.457406 -1.26102,-1.322704 -0.0453,0.06587 -0.95623,1.332861 -2.02421,2.815538 -1.06797,1.482677 -2.21639,3.088159 -2.55204,3.567735 -0.33565,0.47958 -2.3068,3.241103 -4.38032,6.136725 -2.07352,2.895621 -3.78783,5.318134 -3.80957,5.383363 -0.0279,0.08371 3.76616,0.118602 12.89638,0.118602 7.11475,0 12.93591,-0.04255 12.93591,-0.09455 z"
           id="path12" /></g><g
         id="g36"
         transform="translate(-213.64605,100.90911)"><text
           xml:space="preserve"
           style="font-weight:bold;font-size:22.5778px;font-family:Arial;-inkscape-font-specification:'Arial Bold';text-align:center;text-anchor:middle;fill:#f9f9f9;stroke-width:1"
           x="-402.00293"
           y="57.23978"
           id="text34"
           transform="scale(-1,1)"><tspan
             sodipodi:role="line"
             id="tspan34"
             style="font-style:normal;font-variant:normal;font-weight:normal;font-stretch:normal;font-size:22.5778px;font-family:'Segoe UI';-inkscape-font-specification:'Segoe UI';text-align:start;text-anchor:start;fill:#f9f9f9;stroke-width:1"
             x="-402.00293"
             y="57.23978">TĪMA</tspan><tspan
             sodipodi:role="line"
             style="font-style:normal;font-variant:normal;font-weight:normal;font-stretch:normal;font-size:22.5778px;font-family:'Segoe UI';-inkscape-font-specification:'Segoe UI';text-align:start;text-anchor:start;fill:#f9f9f9;stroke-width:1"
             x="-402.00293"
             y="85.462029"
             id="tspan35">MATAWHĀNUI</tspan></text><text
           xml:space="preserve"
           style="font-weight:bold;font-size:12.7px;font-family:Arial;-inkscape-font-specification:'Arial Bold';text-align:center;text-anchor:middle;fill:#f9f9f9;stroke-width:1"
           x="-402.00983"
           y="111.05693"
           id="text34-5"
           transform="scale(-1,1)"><tspan
             sodipodi:role="line"
             style="font-style:italic;font-variant:normal;font-weight:normal;font-stretch:normal;font-size:12.7px;font-family:'Segoe UI';-inkscape-font-specification:'Segoe UI Italic';text-align:start;text-anchor:start;fill:#f9f9f9;stroke-width:1"
             x="-402.00983"
             y="111.05693"
             id="tspan35-9">Ka puta Matariki ka rere Whānui.</tspan><tspan
             sodipodi:role="line"
             style="font-style:italic;font-variant:normal;font-weight:normal;font-stretch:normal;font-size:12.7px;font-family:'Segoe UI';-inkscape-font-specification:'Segoe UI Italic';text-align:start;text-anchor:start;fill:#f9f9f9;stroke-width:1"
             x="-402.00983"
             y="126.93193"
             id="tspan36">Ko te tohu tēnā o te tau e!</tspan></text></g></g></g></svg>
