<?xml version="1.0" encoding="UTF-8" standalone="no"?>
<!-- Created with Inkscape (http://www.inkscape.org/) -->

<svg
   width="12.682842mm"
   height="12.681941mm"
   viewBox="0 0 12.682843 12.681941"
   version="1.1"
   id="svg5"
   xml:space="preserve"
   inkscape:version="1.2 (dc2aedaf03, 2022-05-15)"
   sodipodi:docname="climate_indicators.svg"
   xmlns:inkscape="http://www.inkscape.org/namespaces/inkscape"
   xmlns:sodipodi="http://sodipodi.sourceforge.net/DTD/sodipodi-0.dtd"
   xmlns="http://www.w3.org/2000/svg"
   xmlns:svg="http://www.w3.org/2000/svg"><sodipodi:namedview
     id="namedview7"
     pagecolor="#ffffff"
     bordercolor="#000000"
     borderopacity="0.25"
     inkscape:showpageshadow="2"
     inkscape:pageopacity="0.0"
     inkscape:pagecheckerboard="0"
     inkscape:deskcolor="#d1d1d1"
     inkscape:document-units="mm"
     showgrid="false"
     inkscape:zoom="2"
     inkscape:cx="257.5"
     inkscape:cy="195.5"
     inkscape:window-width="1920"
     inkscape:window-height="986"
     inkscape:window-x="-11"
     inkscape:window-y="-11"
     inkscape:window-maximized="1"
     inkscape:current-layer="layer1"
     showguides="true" /><defs
     id="defs2"><clipPath
       clipPathUnits="userSpaceOnUse"
       id="clipPath9869"><path
         d="M -748.7459,-469.8608 H 93.144083 v 595.276 H -748.7459 Z"
         id="path9871"
         style="stroke-width:1" /></clipPath><clipPath
       clipPathUnits="userSpaceOnUse"
       id="clipPath9875"><path
         d="M -743.8858,-473.7708 H 98.004186 v 595.276 H -743.8858 Z"
         id="path9877"
         style="stroke-width:1" /></clipPath><clipPath
       clipPathUnits="userSpaceOnUse"
       id="clipPath9881"><path
         d="M -747.0757,-474.3559 H 94.814284 v 595.276 H -747.0757 Z"
         id="path9883"
         style="stroke-width:1" /></clipPath><clipPath
       clipPathUnits="userSpaceOnUse"
       id="clipPath9887"><path
         d="M -744.39078,-457.3059 H 97.499204 v 595.276 H -744.39078 Z"
         id="path9889"
         style="stroke-width:1" /></clipPath><clipPath
       clipPathUnits="userSpaceOnUse"
       id="clipPath9893"><path
         d="M -744.54601,-469.8608 H 97.343978 v 595.276 H -744.54601 Z"
         id="path9895"
         style="stroke-width:1" /></clipPath><clipPath
       clipPathUnits="userSpaceOnUse"
       id="clipPath9899"><path
         d="M -744.39078,-457.3059 H 97.499204 v 595.276 H -744.39078 Z"
         id="path9901"
         style="stroke-width:1" /></clipPath><clipPath
       clipPathUnits="userSpaceOnUse"
       id="clipPath9905"><path
         d="m -740.33581,-469.8608 h 841.88999 v 595.276 h -841.88999 z"
         id="path9907"
         style="stroke-width:1" /></clipPath><clipPath
       clipPathUnits="userSpaceOnUse"
       id="clipPath9911"><path
         d="M -749.26589,-480.0069 H 92.624101 v 595.276 H -749.26589 Z"
         id="path9913"
         style="stroke-width:1" /></clipPath><clipPath
       clipPathUnits="userSpaceOnUse"
       id="clipPath9917"><path
         d="m -741.70589,-485.6579 h 841.88998 v 595.276 h -841.88998 z"
         id="path9919"
         style="stroke-width:1" /></clipPath><clipPath
       clipPathUnits="userSpaceOnUse"
       id="clipPath9923"><path
         d="M -750.62581,-479.5069 H 91.264175 v 595.276 H -750.62581 Z"
         id="path9925"
         style="stroke-width:1" /></clipPath><clipPath
       clipPathUnits="userSpaceOnUse"
       id="clipPath9929"><path
         d="m -740.8358,-474.8559 h 841.88998 v 595.276 H -740.8358 Z"
         id="path9931"
         style="stroke-width:1" /></clipPath><clipPath
       clipPathUnits="userSpaceOnUse"
       id="clipPath9935"><path
         d="M -750.03591,-482.6928 H 91.854079 v 595.276 H -750.03591 Z"
         id="path9937"
         style="stroke-width:1" /></clipPath><clipPath
       clipPathUnits="userSpaceOnUse"
       id="clipPath9941"><path
         d="M -747.93578,-485.1579 H 93.954203 v 595.276 H -747.93578 Z"
         id="path9943"
         style="stroke-width:1" /></clipPath><clipPath
       clipPathUnits="userSpaceOnUse"
       id="clipPath9947"><path
         d="M -749.53589,-476.4558 H 92.3541 v 595.276 h -841.88999 z"
         id="path9949"
         style="stroke-width:1" /></clipPath><clipPath
       clipPathUnits="userSpaceOnUse"
       id="clipPath9953"><path
         d="M -744.88578,-486.2439 H 97.004202 v 595.276 H -744.88578 Z"
         id="path9955"
         style="stroke-width:1" /></clipPath><clipPath
       clipPathUnits="userSpaceOnUse"
       id="clipPath9959"><path
         d="m -739.2359,-483.5589 h 841.88998 v 595.276 H -739.2359 Z"
         id="path9961"
         style="stroke-width:1" /></clipPath><clipPath
       clipPathUnits="userSpaceOnUse"
       id="clipPath9965"><path
         d="M -738.73588,-477.3218 H 103.1541 v 595.276 h -841.88998 z"
         id="path9967"
         style="stroke-width:1" /></clipPath><clipPath
       clipPathUnits="userSpaceOnUse"
       id="clipPath9971"><path
         d="M -738.15578,-480.5069 H 103.7342 v 595.276 h -841.88998 z"
         id="path9973"
         style="stroke-width:1" /></clipPath></defs><g
     inkscape:label="Layer 1"
     inkscape:groupmode="layer"
     id="layer1"
     transform="translate(-99.335807,-56.090128)"><g
       id="g703"
       transform="translate(-52.148552,2.987659)"><path
         d="m 0,0 c 9.995,0 18.097,8.102 18.097,18.097 0,9.994 -8.102,18.096 -18.097,18.096 -9.995,0 -18.097,-8.102 -18.097,-18.096 C -18.097,8.102 -9.995,0 0,0"
         style="fill:#f2f9fa;fill-opacity:1;fill-rule:nonzero;stroke:none;stroke-width:1.03558"
         id="path572"
         transform="matrix(0.34066565,0,0,-0.34065068,157.82578,65.608024)"
         clip-path="url(#clipPath9899)" /><path
         d="m 0,0 c 9.995,0 18.097,8.102 18.097,18.097 0,9.994 -8.102,18.096 -18.097,18.096 -9.995,0 -18.097,-8.102 -18.097,-18.096 C -18.097,8.102 -9.995,0 0,0 Z"
         style="fill:none;stroke:#007d9e;stroke-width:1.03558;stroke-linecap:butt;stroke-linejoin:miter;stroke-miterlimit:4;stroke-dasharray:none;stroke-opacity:1"
         id="path576"
         transform="matrix(0.34066565,0,0,-0.34065068,157.82578,65.608024)"
         clip-path="url(#clipPath9887)" /><path
         d="m 0,0 c 0,0 -1.42,-0.579 -1.42,-2.078 0,-0.717 0.41,-1.189 0.84,-1.664 0.33,-0.374 0.68,-0.75 0.68,-1.338 0,-1.203 -1.02,-1.642 -1.02,-1.642 -0.24,-0.095 -0.33,-0.309 -0.19,-0.477 0.13,-0.169 0.44,-0.228 0.68,-0.133 0,0 1.53,0.577 1.53,2.252 0,0.75 -0.41,1.237 -0.83,1.711 -0.34,0.371 -0.69,0.731 -0.69,1.291 0,1.054 0.94,1.48 0.94,1.48 0.23,0.101 0.31,0.317 0.16,0.482 C 0.54,0.049 0.23,0.101 0,0"
         style="fill:#007d9e;fill-opacity:1;fill-rule:nonzero;stroke:none;stroke-width:1.03558"
         id="path580"
         transform="matrix(0.34066565,0,0,-0.34065068,157.87866,61.331189)"
         clip-path="url(#clipPath9893)" /><path
         d="m 0,0 c 0,0 -1.41,-0.579 -1.41,-2.078 0,-0.717 0.41,-1.189 0.84,-1.664 0.33,-0.374 0.68,-0.75 0.68,-1.338 0,-1.203 -1.03,-1.642 -1.03,-1.642 -0.24,-0.095 -0.32,-0.309 -0.19,-0.477 0.14,-0.169 0.44,-0.228 0.69,-0.133 0,0 1.53,0.577 1.53,2.252 0,0.75 -0.41,1.237 -0.84,1.711 -0.33,0.371 -0.68,0.731 -0.68,1.291 0,1.054 0.93,1.48 0.93,1.48 0.24,0.101 0.31,0.317 0.17,0.482 C 0.54,0.049 0.24,0.101 0,0"
         style="fill:#007d9e;fill-opacity:1;fill-rule:nonzero;stroke:none;stroke-width:1.03558"
         id="path584"
         transform="matrix(0.34066565,0,0,-0.34065068,156.44439,61.331189)"
         clip-path="url(#clipPath9905)" /><path
         d="m 0,0 c 0,0 -1.41,-0.579 -1.41,-2.078 0,-0.717 0.41,-1.189 0.83,-1.664 0.34,-0.374 0.69,-0.75 0.69,-1.338 0,-1.203 -1.03,-1.642 -1.03,-1.642 -0.24,-0.095 -0.32,-0.309 -0.19,-0.477 0.14,-0.169 0.45,-0.228 0.68,-0.133 0,0 1.54,0.577 1.54,2.252 0,0.75 -0.41,1.237 -0.84,1.711 -0.33,0.371 -0.68,0.731 -0.68,1.291 0,1.054 0.93,1.48 0.93,1.48 0.24,0.101 0.31,0.317 0.17,0.482 C 0.54,0.049 0.24,0.101 0,0"
         style="fill:#007d9e;fill-opacity:1;fill-rule:nonzero;stroke:none;stroke-width:1.03558"
         id="path588"
         transform="matrix(0.34066565,0,0,-0.34065068,159.30942,61.331189)"
         clip-path="url(#clipPath9869)" /><path
         d="m 0,0 v -1.579 c 0,-0.276 0.23,-0.5 0.5,-0.5 0.28,0 0.5,0.224 0.5,0.5 V 0 C 1,0.276 0.78,0.5 0.5,0.5 0.23,0.5 0,0.276 0,0"
         style="fill:#007d9e;fill-opacity:1;fill-rule:nonzero;stroke:none;stroke-width:1.03558"
         id="path592"
         transform="matrix(0.34066565,0,0,-0.34065068,157.65375,59.999245)"
         clip-path="url(#clipPath9875)" /><path
         d="m 0,0 0.79,-1.367 c 0.14,-0.239 0.44,-0.321 0.68,-0.183 0.24,0.138 0.32,0.444 0.18,0.683 L 0.86,0.5 C 0.73,0.739 0.42,0.821 0.18,0.683 -0.06,0.545 -0.14,0.239 0,0"
         style="fill:#007d9e;fill-opacity:1;fill-rule:nonzero;stroke:none;stroke-width:1.03558"
         id="path596"
         transform="matrix(0.34066565,0,0,-0.34065068,158.74044,59.79993)"
         clip-path="url(#clipPath9881)" /><path
         d="m 0,0 -0.79,-1.367 c -0.13,-0.239 -0.05,-0.545 0.19,-0.683 0.24,-0.138 0.54,-0.056 0.68,0.183 L 0.87,-0.5 C 1.01,-0.261 0.92,0.045 0.69,0.183 0.45,0.321 0.14,0.239 0,0"
         style="fill:#007d9e;fill-opacity:1;fill-rule:nonzero;stroke:none;stroke-width:1.03558"
         id="path600"
         transform="matrix(0.34066565,0,0,-0.34065068,156.61472,59.629605)"
         clip-path="url(#clipPath9929)" /><path
         d="m 0,0 c 0,2.694 -2.18,4.881 -4.88,4.881 -2.69,0 -4.88,-2.187 -4.88,-4.881 0,-2.693 2.19,-4.88 4.88,-4.88 2.7,0 4.88,2.187 4.88,4.88 m -1,0 c 0,-2.142 -1.73,-3.88 -3.88,-3.88 -2.14,0 -3.88,1.738 -3.88,3.88 0,2.142 1.74,3.881 3.88,3.881 C -2.73,3.881 -1,2.142 -1,0"
         style="fill:#007d9e;fill-opacity:1;fill-rule:nonzero;stroke:none;stroke-width:1.03558"
         id="path604"
         transform="matrix(0.34066565,0,0,-0.34065068,159.48656,57.874913)"
         clip-path="url(#clipPath9911)" /><path
         d="m 0,0 1.37,-0.789 c 0.24,-0.138 0.55,-0.056 0.68,0.183 0.14,0.239 0.06,0.545 -0.18,0.683 L 0.5,0.866 C 0.27,1.004 -0.04,0.922 -0.18,0.683 -0.32,0.444 -0.23,0.138 0,0"
         style="fill:#007d9e;fill-opacity:1;fill-rule:nonzero;stroke:none;stroke-width:1.03558"
         id="path608"
         transform="matrix(0.34066565,0,0,-0.34065068,159.57854,59.084598)"
         clip-path="url(#clipPath9947)" /><path
         d="m 0,0 -1.36,-0.789 c -0.24,-0.138 -0.33,-0.444 -0.19,-0.683 0.14,-0.239 0.45,-0.321 0.69,-0.183 l 1.36,0.789 c 0.24,0.138 0.32,0.444 0.18,0.683 C 0.55,0.056 0.24,0.138 0,0"
         style="fill:#007d9e;fill-opacity:1;fill-rule:nonzero;stroke:none;stroke-width:1.03558"
         id="path612"
         transform="matrix(0.34066565,0,0,-0.34065068,155.89935,58.789594)"
         clip-path="url(#clipPath9965)" /><path
         d="M 0,0 H 1.58 C 1.85,0 2.08,0.224 2.08,0.5 2.08,0.776 1.85,1 1.58,1 H 0 C -0.28,1 -0.5,0.776 -0.5,0.5 -0.5,0.224 -0.28,0 0,0"
         style="fill:#007d9e;fill-opacity:1;fill-rule:nonzero;stroke:none;stroke-width:1.03558"
         id="path616"
         transform="matrix(0.34066565,0,0,-0.34065068,159.94984,58.045238)"
         clip-path="url(#clipPath9923)" /><path
         d="m 0,0 h -1.58 c -0.28,0 -0.5,-0.224 -0.5,-0.5 0,-0.276 0.22,-0.5 0.5,-0.5 H 0 c 0.27,0 0.5,0.224 0.5,0.5 C 0.5,-0.224 0.27,0 0,0"
         style="fill:#007d9e;fill-opacity:1;fill-rule:nonzero;stroke:none;stroke-width:1.03558"
         id="path620"
         transform="matrix(0.34066565,0,0,-0.34065068,155.70173,57.704588)"
         clip-path="url(#clipPath9971)" /><path
         d="M 0,0 -1.36,0.789 C -1.6,0.927 -1.91,0.845 -2.05,0.606 -2.19,0.367 -2.1,0.061 -1.86,-0.077 L -0.5,-0.866 C -0.26,-1.004 0.05,-0.922 0.18,-0.683 0.32,-0.444 0.24,-0.138 0,0"
         style="fill:#007d9e;fill-opacity:1;fill-rule:nonzero;stroke:none;stroke-width:1.03558"
         id="path624"
         transform="matrix(0.34066565,0,0,-0.34065068,156.06969,56.664922)"
         clip-path="url(#clipPath9959)" /><path
         d="M 0,0 1.37,0.789 C 1.61,0.927 1.69,1.233 1.55,1.472 1.42,1.711 1.11,1.793 0.87,1.655 L -0.5,0.866 C -0.73,0.728 -0.82,0.422 -0.68,0.183 -0.54,-0.056 -0.23,-0.138 0,0"
         style="fill:#007d9e;fill-opacity:1;fill-rule:nonzero;stroke:none;stroke-width:1.03558"
         id="path628"
         transform="matrix(0.34066565,0,0,-0.34065068,159.74888,56.959959)"
         clip-path="url(#clipPath9935)" /><path
         d="M 0,0 -0.79,1.367 C -0.93,1.606 -1.23,1.688 -1.47,1.55 -1.71,1.412 -1.79,1.106 -1.66,0.867 L -0.87,-0.5 c 0.14,-0.239 0.45,-0.321 0.69,-0.183 C 0.05,-0.545 0.14,-0.239 0,0"
         style="fill:#007d9e;fill-opacity:1;fill-rule:nonzero;stroke:none;stroke-width:1.03558"
         id="path632"
         transform="matrix(0.34066565,0,0,-0.34065068,156.91113,55.949896)"
         clip-path="url(#clipPath9917)" /><path
         d="M 0,0 0.79,1.367 C 0.93,1.606 0.85,1.912 0.61,2.05 0.37,2.188 0.07,2.106 -0.07,1.867 L -0.86,0.5 C -1,0.261 -0.92,-0.045 -0.68,-0.183 -0.44,-0.321 -0.13,-0.239 0,0"
         style="fill:#007d9e;fill-opacity:1;fill-rule:nonzero;stroke:none;stroke-width:1.03558"
         id="path636"
         transform="matrix(0.34066565,0,0,-0.34065068,159.03344,56.120221)"
         clip-path="url(#clipPath9941)" /><path
         d="m 0,0 v 1.578 c 0,0.276 -0.22,0.5 -0.5,0.5 -0.27,0 -0.5,-0.224 -0.5,-0.5 V 0 c 0,-0.276 0.23,-0.5 0.5,-0.5 0.28,0 0.5,0.224 0.5,0.5"
         style="fill:#007d9e;fill-opacity:1;fill-rule:nonzero;stroke:none;stroke-width:1.03558"
         id="path640"
         transform="matrix(0.34066565,0,0,-0.34065068,157.99441,55.750275)"
         clip-path="url(#clipPath9953)" /></g></g></svg>
