<?xml version="1.0" encoding="UTF-8" standalone="no"?>
<!-- Created with Inkscape (http://www.inkscape.org/) -->

<svg
   width="12.682838mm"
   height="12.681941mm"
   viewBox="0 0 12.682839 12.681941"
   version="1.1"
   id="svg5"
   xml:space="preserve"
   inkscape:version="1.2 (dc2aedaf03, 2022-05-15)"
   sodipodi:docname="climate_indicators.svg"
   xmlns:inkscape="http://www.inkscape.org/namespaces/inkscape"
   xmlns:sodipodi="http://sodipodi.sourceforge.net/DTD/sodipodi-0.dtd"
   xmlns="http://www.w3.org/2000/svg"
   xmlns:svg="http://www.w3.org/2000/svg"><sodipodi:namedview
     id="namedview7"
     pagecolor="#ffffff"
     bordercolor="#000000"
     borderopacity="0.25"
     inkscape:showpageshadow="2"
     inkscape:pageopacity="0.0"
     inkscape:pagecheckerboard="0"
     inkscape:deskcolor="#d1d1d1"
     inkscape:document-units="mm"
     showgrid="false"
     inkscape:zoom="2"
     inkscape:cx="257.5"
     inkscape:cy="195.5"
     inkscape:window-width="1920"
     inkscape:window-height="986"
     inkscape:window-x="-11"
     inkscape:window-y="-11"
     inkscape:window-maximized="1"
     inkscape:current-layer="layer1"
     showguides="true" /><defs
     id="defs2"><clipPath
       clipPathUnits="userSpaceOnUse"
       id="clipPath8657"><path
         d="M -626.01838,-335.04011 H 215.8716 v 595.276 h -841.88998 z"
         id="path8659"
         style="stroke-width:1" /></clipPath><clipPath
       clipPathUnits="userSpaceOnUse"
       id="clipPath8661"><path
         d="m -613.6722,-333.56279 h 841.88998 v 595.276 H -613.6722 Z"
         id="path8663"
         style="stroke-width:1" /></clipPath><clipPath
       clipPathUnits="userSpaceOnUse"
       id="clipPath8665"><path
         d="M -628.68499,-333.3947 H 213.205 v 595.276 h -841.88999 z"
         id="path8667"
         style="stroke-width:1" /></clipPath><clipPath
       clipPathUnits="userSpaceOnUse"
       id="clipPath8669"><path
         d="m -613.6722,-330.51051 h 841.88998 v 595.276 H -613.6722 Z"
         id="path8671"
         style="stroke-width:1" /></clipPath><clipPath
       clipPathUnits="userSpaceOnUse"
       id="clipPath8673"><path
         d="M -630.55268,-330.20269 H 211.3373 v 595.276 h -841.88998 z"
         id="path8675"
         style="stroke-width:1" /></clipPath><clipPath
       clipPathUnits="userSpaceOnUse"
       id="clipPath8677"><path
         d="m -613.6722,-327.45809 h 841.88998 v 595.276 H -613.6722 Z"
         id="path8679"
         style="stroke-width:1" /></clipPath><clipPath
       clipPathUnits="userSpaceOnUse"
       id="clipPath8681"><path
         d="m -630.59261,-326.66111 h 841.88999 v 595.276 h -841.88999 z"
         id="path8683"
         style="stroke-width:1" /></clipPath><clipPath
       clipPathUnits="userSpaceOnUse"
       id="clipPath8685"><path
         d="M -613.6722,-324.40482 H 228.21778 V 270.87119 H -613.6722 Z"
         id="path8687"
         style="stroke-width:1" /></clipPath><clipPath
       clipPathUnits="userSpaceOnUse"
       id="clipPath8689"><path
         d="m -628.95951,-323.60109 h 841.88999 v 595.276 h -841.88999 z"
         id="path8691"
         style="stroke-width:1" /></clipPath><clipPath
       clipPathUnits="userSpaceOnUse"
       id="clipPath8693"><path
         d="m -613.6722,-321.35251 h 841.88998 v 595.276 H -613.6722 Z"
         id="path8695"
         style="stroke-width:1" /></clipPath><clipPath
       clipPathUnits="userSpaceOnUse"
       id="clipPath8697"><path
         d="M -626.12189,-321.7068 H 215.7681 v 595.276 h -841.88999 z"
         id="path8699"
         style="stroke-width:1" /></clipPath><clipPath
       clipPathUnits="userSpaceOnUse"
       id="clipPath8701"><path
         d="m -622.91561,-316.3423 h 841.88999 v 595.276 h -841.88999 z"
         id="path8703"
         style="stroke-width:1" /></clipPath><clipPath
       clipPathUnits="userSpaceOnUse"
       id="clipPath8705"><path
         d="m -629.4885,-328.3559 h 841.88998 v 595.276 H -629.4885 Z"
         id="path8707"
         style="stroke-width:1" /></clipPath><clipPath
       clipPathUnits="userSpaceOnUse"
       id="clipPath8709"><path
         d="m -620.86459,-307.16551 h 841.88998 v 595.276 h -841.88998 z"
         id="path8711"
         style="stroke-width:1" /></clipPath><clipPath
       clipPathUnits="userSpaceOnUse"
       id="clipPath8713"><path
         d="m -620.86459,-307.16551 h 841.88998 v 595.276 h -841.88998 z"
         id="path8715"
         style="stroke-width:1" /></clipPath></defs><g
     inkscape:label="Layer 1"
     inkscape:groupmode="layer"
     id="layer1"
     transform="translate(-113.48817,-56.090128)"><g
       id="g768"
       transform="translate(4.4865428,-42.527207)"><g
         id="g506"
         transform="matrix(0.34066565,0,0,-0.34065068,115.34305,111.12289)"
         style="stroke-width:1.03558"
         clip-path="url(#clipPath8713)"><path
           d="m 0,0 c 9.995,0 18.097,8.102 18.097,18.097 0,9.994 -8.102,18.096 -18.097,18.096 -9.995,0 -18.097,-8.102 -18.097,-18.096 C -18.097,8.102 -9.995,0 0,0"
           style="fill:#f2f9fa;fill-opacity:1;fill-rule:nonzero;stroke:none;stroke-width:1.03558"
           id="path508" /></g><g
         id="g510"
         transform="matrix(0.34066565,0,0,-0.34065068,115.34305,111.12289)"
         style="stroke-width:1.03558"
         clip-path="url(#clipPath8709)"><path
           d="m 0,0 c 9.995,0 18.097,8.102 18.097,18.097 0,9.994 -8.102,18.096 -18.097,18.096 -9.995,0 -18.097,-8.102 -18.097,-18.096 C -18.097,8.102 -9.995,0 0,0 Z"
           style="fill:none;stroke:#007d9e;stroke-width:1.03558;stroke-linecap:butt;stroke-linejoin:miter;stroke-miterlimit:4;stroke-dasharray:none;stroke-opacity:1"
           id="path512" /></g><g
         id="g514"
         transform="matrix(0.34066565,0,0,-0.34065068,118.28092,103.90437)"
         style="stroke-width:1.03558"
         clip-path="url(#clipPath8705)"><path
           d="m 0,0 c 0,3.175 -2.578,5.753 -5.753,5.753 -0.125,0 -0.25,-0.004 -0.373,-0.011 v 1.696 c 0,1.639 -1.328,2.968 -2.968,2.968 h -0.003 c -1.64,0 -2.969,-1.329 -2.969,-2.968 V -7.833 c -1.307,-0.93 -2.159,-2.456 -2.159,-4.181 0,-2.831 2.298,-5.13 5.129,-5.13 2.831,0 5.13,2.299 5.13,5.13 0,1.725 -0.853,3.251 -2.16,4.181 v 2.09 C -6.003,-5.75 -5.878,-5.754 -5.753,-5.754 -2.578,-5.754 0,-3.176 0,0 m -4.916,-12.014 c 0,-2.306 -1.873,-4.18 -4.18,-4.18 -2.307,0 -4.179,1.874 -4.179,4.18 0,1.483 0.774,2.786 1.939,3.529 0.138,0.086 0.22,0.237 0.22,0.4 V 7.438 c 0,1.115 0.904,2.018 2.019,2.018 h 0.003 c 1.115,0 2.019,-0.903 2.019,-2.018 V -8.085 c 0,-0.163 0.082,-0.314 0.219,-0.4 1.166,-0.743 1.94,-2.046 1.94,-3.529 M -0.95,0 c 0,-2.652 -2.152,-4.804 -4.803,-4.804 -0.125,0 -0.25,0.005 -0.372,0.014 v 1.789 2.803 4.988 c 0.122,0.008 0.247,0.013 0.372,0.013 2.651,0 4.803,-2.152 4.803,-4.803"
           style="fill:#007d9e;fill-opacity:1;fill-rule:nonzero;stroke:none;stroke-width:1.03558"
           id="path516" /></g><g
         id="g518"
         transform="matrix(0.34066565,0,0,-0.34065068,116.04176,107.99681)"
         style="stroke-width:1.03558"
         clip-path="url(#clipPath8701)"><path
           d="m 0,0 c 0,1.229 -0.882,2.255 -2.048,2.478 v 16.578 c 0,0.262 -0.213,0.475 -0.475,0.475 -0.262,0 -0.475,-0.213 -0.475,-0.475 V 2.478 C -4.163,2.255 -5.045,1.229 -5.045,0 c 0,-1.393 1.13,-2.523 2.522,-2.523 C -1.13,-2.523 0,-1.393 0,0 m -0.95,0 c 0,-0.868 -0.705,-1.573 -1.573,-1.573 -0.867,0 -1.572,0.705 -1.572,1.573 0,0.867 0.705,1.572 1.572,1.572 0.868,0 1.573,-0.705 1.573,-1.572"
           style="fill:#007d9e;fill-opacity:1;fill-rule:nonzero;stroke:none;stroke-width:1.03558"
           id="path520" /></g><g
         id="g522"
         transform="matrix(0.34066565,0,0,-0.34065068,117.13403,106.16939)"
         style="stroke-width:1.03558"
         clip-path="url(#clipPath8697)"><path
           d="M 0,0 0.768,-1.755 C 0.872,-1.995 1.152,-2.104 1.393,-2 c 0.24,0.106 0.349,0.386 0.245,0.625 L 0.871,0.381 C 0.766,0.621 0.485,0.731 0.245,0.626 0.005,0.521 -0.104,0.24 0,0"
           style="fill:#007d9e;fill-opacity:1;fill-rule:nonzero;stroke:none;stroke-width:1.03558"
           id="path524" /></g><g
         id="g526"
         transform="matrix(0.34066565,0,0,-0.34065068,112.89285,106.29008)"
         style="stroke-width:1.03558"
         clip-path="url(#clipPath8693)"><path
           d="M 0,0 H 2.08 C 2.342,0 2.555,0.213 2.555,0.475 2.555,0.737 2.342,0.95 2.08,0.95 H 0 C -0.262,0.95 -0.475,0.737 -0.475,0.475 -0.475,0.213 -0.262,0 0,0"
           style="fill:#007d9e;fill-opacity:1;fill-rule:nonzero;stroke:none;stroke-width:1.03558"
           id="path528" /></g><g
         id="g530"
         transform="matrix(0.34066565,0,0,-0.34065068,118.10071,105.5241)"
         style="stroke-width:1.03558"
         clip-path="url(#clipPath8689)"><path
           d="m 0,0 1.5,-1.19 c 0.205,-0.164 0.505,-0.13 0.668,0.077 0.162,0.205 0.128,0.503 -0.077,0.666 l -1.5,1.192 C 0.386,0.907 0.086,0.873 -0.077,0.668 -0.239,0.463 -0.205,0.163 0,0"
           style="fill:#007d9e;fill-opacity:1;fill-rule:nonzero;stroke:none;stroke-width:1.03558"
           id="path532" /></g><g
         id="g534"
         transform="matrix(0.34066565,0,0,-0.34065068,112.89285,105.25031)"
         style="stroke-width:1.03558"
         clip-path="url(#clipPath8685)"><path
           d="M 0,0 H 2.08 C 2.342,0 2.555,0.213 2.555,0.475 2.555,0.737 2.342,0.95 2.08,0.95 H 0 C -0.262,0.95 -0.475,0.737 -0.475,0.475 -0.475,0.213 -0.262,0 0,0"
           style="fill:#007d9e;fill-opacity:1;fill-rule:nonzero;stroke:none;stroke-width:1.03558"
           id="path536" /></g><g
         id="g538"
         transform="matrix(0.34066565,0,0,-0.34065068,118.65705,104.4817)"
         style="stroke-width:1.03558"
         clip-path="url(#clipPath8681)"><path
           d="m 0,0 1.887,-0.332 c 0.257,-0.046 0.504,0.126 0.55,0.384 0.045,0.259 -0.128,0.505 -0.385,0.55 L 0.165,0.936 C -0.093,0.981 -0.339,0.809 -0.385,0.551 -0.43,0.293 -0.258,0.046 0,0"
           style="fill:#007d9e;fill-opacity:1;fill-rule:nonzero;stroke:none;stroke-width:1.03558"
           id="path540" /></g><g
         id="g542"
         transform="matrix(0.34066565,0,0,-0.34065068,112.89285,104.21021)"
         style="stroke-width:1.03558"
         clip-path="url(#clipPath8677)"><path
           d="M 0,0 H 2.08 C 2.342,0 2.555,0.213 2.555,0.475 2.555,0.736 2.342,0.95 2.08,0.95 H 0 C -0.262,0.95 -0.475,0.736 -0.475,0.475 -0.475,0.213 -0.262,0 0,0"
           style="fill:#007d9e;fill-opacity:1;fill-rule:nonzero;stroke:none;stroke-width:1.03558"
           id="path544" /></g><g
         id="g546"
         transform="matrix(0.34066565,0,0,-0.34065068,118.64345,103.27526)"
         style="stroke-width:1.03558"
         clip-path="url(#clipPath8673)"><path
           d="M 0,0 1.812,0.624 C 2.06,0.71 2.191,0.979 2.105,1.227 2.021,1.475 1.75,1.607 1.502,1.522 L -0.309,0.898 C -0.557,0.812 -0.689,0.542 -0.603,0.295 -0.518,0.047 -0.247,-0.085 0,0"
           style="fill:#007d9e;fill-opacity:1;fill-rule:nonzero;stroke:none;stroke-width:1.03558"
           id="path548" /></g><g
         id="g550"
         transform="matrix(0.34066565,0,0,-0.34065068,112.89285,103.1704)"
         style="stroke-width:1.03558"
         clip-path="url(#clipPath8669)"><path
           d="M 0,0 H 2.08 C 2.342,0 2.555,0.213 2.555,0.475 2.555,0.737 2.342,0.95 2.08,0.95 H 0 C -0.262,0.95 -0.475,0.737 -0.475,0.475 -0.475,0.213 -0.262,0 0,0"
           style="fill:#007d9e;fill-opacity:1;fill-rule:nonzero;stroke:none;stroke-width:1.03558"
           id="path552" /></g><g
         id="g554"
         transform="matrix(0.34066565,0,0,-0.34065068,118.00719,102.1879)"
         style="stroke-width:1.03558"
         clip-path="url(#clipPath8665)"><path
           d="M 0,0 1.247,1.454 C 1.418,1.653 1.395,1.953 1.196,2.123 0.997,2.294 0.697,2.271 0.526,2.073 L -0.721,0.618 C -0.892,0.42 -0.868,0.12 -0.67,-0.051 -0.471,-0.221 -0.171,-0.199 0,0"
           style="fill:#007d9e;fill-opacity:1;fill-rule:nonzero;stroke:none;stroke-width:1.03558"
           id="path556" /></g><g
         id="g558"
         transform="matrix(0.34066565,0,0,-0.34065068,112.89285,102.13064)"
         style="stroke-width:1.03558"
         clip-path="url(#clipPath8661)"><path
           d="M 0,0 H 2.08 C 2.342,0 2.555,0.213 2.555,0.475 2.555,0.737 2.342,0.95 2.08,0.95 H 0 C -0.262,0.95 -0.475,0.737 -0.475,0.475 -0.475,0.213 -0.262,0 0,0"
           style="fill:#007d9e;fill-opacity:1;fill-rule:nonzero;stroke:none;stroke-width:1.03558"
           id="path560" /></g><g
         id="g562"
         transform="matrix(0.34066565,0,0,-0.34065068,117.09877,101.62739)"
         style="stroke-width:1.03558"
         clip-path="url(#clipPath8657)"><path
           d="M 0,0 0.496,1.851 C 0.563,2.103 0.413,2.365 0.16,2.432 -0.094,2.499 -0.354,2.349 -0.422,2.096 L -0.918,0.246 C -0.986,-0.008 -0.835,-0.268 -0.582,-0.335 -0.329,-0.404 -0.068,-0.253 0,0"
           style="fill:#007d9e;fill-opacity:1;fill-rule:nonzero;stroke:none;stroke-width:1.03558"
           id="path564" /></g></g></g></svg>
