<?xml version="1.0" encoding="UTF-8" standalone="no"?>
<!-- Created with Inkscape (http://www.inkscape.org/) -->

<svg
   width="84.490852mm"
   height="19.218628mm"
   viewBox="0 0 84.490852 19.218628"
   version="1.1"
   id="svg5"
   xml:space="preserve"
   sodipodi:docname="tpk_logo.svg"
   inkscape:version="1.2 (dc2aedaf03, 2022-05-15)"
   xmlns:inkscape="http://www.inkscape.org/namespaces/inkscape"
   xmlns:sodipodi="http://sodipodi.sourceforge.net/DTD/sodipodi-0.dtd"
   xmlns="http://www.w3.org/2000/svg"
   xmlns:svg="http://www.w3.org/2000/svg"><sodipodi:namedview
     id="namedview9"
     pagecolor="#ffffff"
     bordercolor="#000000"
     borderopacity="0.25"
     inkscape:showpageshadow="2"
     inkscape:pageopacity="0.0"
     inkscape:pagecheckerboard="0"
     inkscape:deskcolor="#d1d1d1"
     inkscape:document-units="mm"
     showgrid="false"
     inkscape:zoom="2.3627188"
     inkscape:cx="136.4953"
     inkscape:cy="60.946736"
     inkscape:window-width="1920"
     inkscape:window-height="1017"
     inkscape:window-x="1912"
     inkscape:window-y="-8"
     inkscape:window-maximized="1"
     inkscape:current-layer="svg5" /><defs
     id="defs2" /><g
     id="layer1"
     transform="translate(-119.94305,-346.03704)"><g
       clip-path="url(#clip0-6)"
       transform="matrix(0.35574134,0,0,0.08550042,-239.68779,343.80059)"
       id="g3188"><path
         id="rect3186"
         style="fill:#007c9d"
         d="m 1010.9327,26.157181 h 237.5072 l 8e-4,224.782519 h -237.5072 z"
         sodipodi:nodetypes="ccccc" /></g><g
       id="g537"
       transform="matrix(0.28269109,0,0,0.28269109,107.81373,312.05363)"
       style="fill:#ffffff"><path
         id="path539"
         style="fill:#f1f3f3;fill-opacity:1;stroke-width:0.264583"
         d="m 87.563334,120.21403 c -0.135892,0 -4.814555,3.47228 -10.396782,7.71632 -5.582226,4.24405 -14.078318,10.69884 -18.880501,14.34383 -12.619774,9.57875 -15.298982,11.66024 -15.378906,11.94759 -0.03918,0.14085 2.095401,1.89434 4.743379,3.89692 8.382543,6.33943 34.344246,26.08916 36.961569,28.11766 1.382446,1.07144 2.669863,1.95589 2.861324,1.96346 0.191462,0.008 3.048966,-2.03379 6.35,-4.53436 3.301035,-2.50058 7.490503,-5.69157 9.309513,-7.09156 1.819,-1.39997 9.17331,-6.99547 16.34318,-12.43438 7.16988,-5.43889 12.94442,-9.97026 12.8323,-10.06915 -0.11212,-0.0989 -6.21627,-4.74276 -13.56507,-10.3203 -15.47644,-11.74621 -17.73945,-13.46701 -25.322483,-19.25412 -3.085885,-2.35505 -5.721631,-4.28191 -5.857523,-4.28191 z m 0.04754,3.46439 1.609721,1.26607 c 1.799459,1.41556 2.223765,1.73887 23.305035,17.74775 8.29469,6.2989 15.10499,11.47195 15.13396,11.49542 0.029,0.0235 -1.28071,1.04897 -2.91041,2.27893 -1.6297,1.22996 -8.20189,6.23097 -14.6048,11.11354 -6.40291,4.88256 -13.129947,9.99375 -14.948956,11.35796 -1.819008,1.3642 -4.275724,3.23374 -5.459098,4.15479 l -2.15129,1.67483 -4.595585,-3.48299 c -2.527404,-1.91547 -8.762261,-6.65341 -13.855485,-10.52907 -5.093224,-3.87568 -11.968985,-9.10504 -15.279171,-11.62048 -3.310187,-2.51544 -6.080659,-4.67404 -6.15673,-4.79713 -0.07607,-0.12308 3.210833,-2.76117 7.304463,-5.86269 4.093631,-3.10151 8.129033,-6.17523 8.967412,-6.83007 0.838378,-0.65485 4.545781,-3.48202 8.238773,-6.28282 3.692995,-2.8008 8.669685,-6.57549 11.058757,-8.38812 z m -0.05581,3.15019 c -0.100168,0 -1.863926,1.27992 -3.919657,2.84427 -12.78422,9.7284 -25.355657,19.27491 -25.589653,19.43241 -0.150398,0.10123 -0.197019,0.26084 -0.103352,0.3545 0.09367,0.0937 1.01119,-0.32082 2.038635,-0.92088 6.749835,-3.94211 12.769434,-4.92595 17.338993,-2.83393 1.912798,0.8757 3.097678,2.00525 4.12688,3.93464 1.663208,3.11794 1.126196,6.54567 -1.377694,8.79688 -2.109061,1.89623 -4.902139,2.46087 -7.846549,1.58647 -1.672826,-0.49677 -3.124956,-1.85442 -3.367753,-3.14865 -0.255135,-1.35997 0.538284,-2.81452 1.791622,-3.28404 0.894312,-0.33501 1.151311,-0.31341 2.830835,0.2372 1.526728,0.50052 1.91786,0.54623 2.257226,0.26458 1.161568,-0.96401 -0.204849,-2.66612 -2.564184,-3.19412 -3.595925,-0.80473 -7.086731,2.05754 -7.076571,5.80223 0.0031,1.14792 1.010447,3.38136 1.880505,4.16926 1.687508,1.52817 4.644315,2.46546 7.774203,2.46496 6.705709,-0.001 15.419203,-3.72359 27.38438,-11.69902 1.96452,-1.30946 3.79642,-2.59445 4.07107,-2.85564 0.48579,-0.46204 0.47145,-0.48284 -0.52917,-0.76482 -5.17757,-1.45909 -11.544392,-1.90056 -14.720551,-1.02061 -2.042504,0.56588 -3.737995,1.59779 -4.409033,2.68356 -1.664503,2.69323 0.659868,5.80757 3.285587,4.40232 0.813112,-0.43516 0.851795,-0.79324 0.08578,-0.79324 -1.382133,0 -2.012323,-1.64636 -1.012858,-2.64583 0.796096,-0.7961 2.003255,-0.68289 2.963644,0.2775 0.723401,0.7234 0.79217,0.93061 0.669726,2.01693 -0.105262,0.93388 -0.352948,1.42782 -1.082621,2.1575 -0.850735,0.85072 -1.113413,0.95572 -2.60811,1.04128 -2.04882,0.11729 -3.247363,-0.45156 -4.105692,-1.94872 -1.398335,-2.43907 -0.363652,-5.79672 2.316137,-7.51634 4.29648,-2.75705 13.268471,-2.66363 20.866951,0.21756 l 2.48408,0.94154 -0.14779,3.19257 c -0.22797,4.93844 -1.085,8.25684 -2.83084,10.95799 -2.26435,3.50341 -6.55132,4.42096 -8.836671,1.89136 -1.700706,-1.88248 -1.43743,-4.39197 0.603071,-5.75107 2.41436,-1.6081 5.40763,0.55554 3.84834,2.78174 -0.76094,1.0864 -2.76314,0.48168 -2.76314,-0.83457 0,-0.54335 -0.004,-0.54283 -0.57826,0.0315 -0.50019,0.5002 -0.54482,0.71133 -0.33073,1.56683 0.52561,2.10028 2.99755,2.46993 5.22087,0.78083 1.34814,-1.0242 2.67056,-3.53071 3.24373,-6.14898 0.48714,-2.2253 0.82363,-6.82573 0.48886,-6.68331 -0.1317,0.056 -2.14426,1.3599 -4.47259,2.89749 -13.768357,9.09241 -21.925913,12.68243 -28.817886,12.68243 -7.034211,0 -11.629459,-3.33849 -11.653552,-8.46666 -0.02294,-4.88256 4.135098,-8.46266 8.861991,-7.63003 1.874127,0.33012 3.378869,1.1696 4.151168,2.31562 1.786951,2.65166 -0.587188,5.51952 -3.630269,4.38527 -1.866597,-0.69574 -2.501114,-0.75454 -2.904732,-0.26821 -0.558938,0.67348 -0.03503,1.75049 1.189074,2.44378 1.622279,0.9188 4.070083,0.84357 5.854423,-0.17983 1.910258,-1.09561 2.610787,-2.31033 2.598291,-4.50619 -0.01749,-3.07332 -1.819461,-5.34277 -5.028633,-6.33398 -5.099908,-1.57519 -11.248176,0.47118 -19.654615,6.54172 -1.696778,1.22529 -2.638848,2.06733 -2.485119,2.22106 0.136175,0.13618 2.199253,1.72997 4.584733,3.5419 6.085455,4.62229 17.920368,13.6141 24.145296,18.34513 2.890724,2.197 5.37395,3.99459 5.518526,3.99459 0.144576,0 0.993981,-0.57572 1.88774,-1.27951 0.893756,-0.7038 7.102107,-5.4311 13.796064,-10.5053 6.69395,-5.0742 13.2424,-10.04833 14.55208,-11.05359 1.30969,-1.00527 3.12268,-2.37992 4.02921,-3.05459 0.90653,-0.67468 1.6465,-1.34585 1.64383,-1.49138 -0.003,-0.14552 -3.89977,-3.21056 -8.65994,-6.81147 -4.76015,-3.60093 -12.80329,-9.70288 -17.873845,-13.5599 -5.070552,-3.85702 -9.301325,-7.01301 -9.401494,-7.01301 z m 210.038856,6.72776 c -0.47329,-0.005 -1.43823,0.0709 -2.48408,0.20308 -2.09428,0.26451 -2.53525,0.39924 -2.53525,0.77412 0,0.26186 0.4197,0.65871 0.99219,0.93844 l 0.99219,0.48473 v 8.99583 8.99583 l -0.89814,0.44855 c -2.4018,1.19903 -1.79521,1.53583 2.76572,1.53583 3.57134,0 3.82096,-0.0325 3.82096,-0.50023 0,-0.33758 -0.34718,-0.63952 -1.06712,-0.92759 l -1.06763,-0.42685 0.0754,-2.84272 c 0.10329,-3.91072 0.40473,-3.88076 3.30316,0.33176 2.93448,4.26496 3.06183,4.36563 5.52576,4.36563 2.47253,0 2.71184,-0.35604 1.17202,-1.74718 -1.15493,-1.0434 -6.08955,-7.32768 -6.08955,-7.75508 0,-0.13718 0.71914,-1.07725 1.59835,-2.08877 1.15334,-1.32688 1.93138,-1.96606 2.7926,-2.29495 0.83648,-0.31946 1.16851,-0.58607 1.11001,-0.89142 -0.0709,-0.36989 -0.55254,-0.44728 -3.18895,-0.51056 -2.98186,-0.0716 -3.10576,-0.0527 -3.10576,0.46974 0,0.33694 0.25186,0.63957 0.66146,0.7953 0.3638,0.13832 0.66146,0.41529 0.66146,0.61547 0,0.62366 -2.57723,3.80303 -3.22306,3.97598 -1.31906,0.35324 -1.27486,0.57156 -1.27486,-6.29522 0,-3.63763 -0.10634,-6.53226 -0.24288,-6.61665 -0.0334,-0.0206 -0.13627,-0.0314 -0.29404,-0.0331 z m -55.88341,0.67954 c -0.60856,-0.0128 -1.22933,0.13143 -1.56889,0.43873 -0.71374,0.64593 -0.65228,2.32463 0.10438,2.85461 0.79187,0.55465 2.12979,0.52009 2.86339,-0.0739 0.72554,-0.58751 0.77442,-1.96665 0.0961,-2.71611 -0.29014,-0.3206 -0.88644,-0.49048 -1.495,-0.50333 z m 73.30302,0.001 c -1.86015,0 -2.72009,1.78335 -1.49086,3.0918 0.80039,0.85199 2.14904,0.82235 3.03806,-0.0667 0.54916,-0.54916 0.64743,-0.84007 0.51366,-1.52135 -0.21143,-1.07662 -0.79681,-1.50379 -2.06086,-1.50379 z m 23.23734,0 c -1.37866,0 -1.96192,0.40271 -2.17816,1.50379 -0.34637,1.76382 2.28346,2.98547 3.59772,1.67121 0.63302,-0.63301 0.68489,-1.77659 0.1173,-2.58692 -0.3158,-0.45089 -0.67419,-0.58808 -1.53686,-0.58808 z m -197.28253,0.78704 v 2.66753 c 0,2.5944 0.0158,2.66553 0.5793,2.58331 0.38277,-0.0559 0.87903,-0.5981 1.46192,-1.59732 0.96661,-1.65702 1.96209,-2.18762 3.77962,-2.01486 l 0.92604,0.0879 0.0698,8.43514 c 0.0444,5.35294 -0.0271,8.55171 -0.19534,8.7545 -0.14587,0.17576 -0.74272,0.46277 -1.32653,0.63769 -0.76966,0.23059 -1.06143,0.46065 -1.06143,0.83664 0,0.49467 0.2071,0.51832 4.49791,0.51832 4.29082,0 4.49792,-0.0237 4.49792,-0.51832 0,-0.37699 -0.29307,-0.60633 -1.07384,-0.84026 -0.59066,-0.17697 -1.18803,-0.5345 -1.32705,-0.79426 -0.14962,-0.27958 -0.22381,-3.85032 -0.18242,-8.75089 l 0.0698,-8.27856 1.32291,-0.0687 c 1.75639,-0.0911 2.44166,0.31255 3.48661,2.0531 0.64649,1.07684 1.02932,1.45521 1.47175,1.45521 0.57885,0 0.59789,-0.0801 0.59789,-2.51354 v -2.51354 l -8.79739,-0.0698 z m 47.04778,0.007 c -5.25588,0 -5.50819,0.0237 -5.50819,0.5085 0,0.34942 0.24763,0.56229 0.79323,0.68213 1.55226,0.34093 1.58837,0.54478 1.5844,8.9886 -0.002,4.22409 -0.0773,7.95568 -0.16743,8.292 -0.1042,0.38904 -0.53601,0.76013 -1.18701,1.02061 -0.68296,0.27327 -1.02319,0.576 -1.02319,0.91002 0,0.47064 0.25992,0.50023 4.36562,0.50023 4.13053,0 4.36563,-0.0273 4.36563,-0.5085 0,-0.35457 -0.30055,-0.6056 -0.99219,-0.82837 -0.5457,-0.17578 -1.14102,-0.4375 -1.32292,-0.58188 -0.25214,-0.20011 -0.33073,-2.25982 -0.33073,-8.6682 0,-9.38459 -0.14336,-8.74086 1.93994,-8.71265 2.91401,0.0395 4.14548,1.32522 4.14548,4.3279 0,2.40696 -0.54314,3.51032 -2.12649,4.32222 -0.63853,0.32742 -1.54496,0.59531 -2.01486,0.59531 -1.04325,0 -1.21542,0.23215 -0.7953,1.07332 0.29684,0.59438 0.44969,0.63942 1.88877,0.55707 2.31831,-0.13267 4.16745,-0.92133 5.37384,-2.29185 1.19149,-1.35362 1.64279,-2.65388 1.64279,-4.73511 0,-1.84413 -0.46306,-3.00909 -1.56425,-3.93568 -1.50574,-1.267 -2.99246,-1.51567 -9.06714,-1.51567 z m 72.27931,0 c -3.99856,0 -4.23334,0.0285 -4.23334,0.5085 0,0.34986 0.24797,0.56271 0.79634,0.68316 1.6133,0.35434 1.58491,0.1903 1.58491,9.09557 0,8.81297 -0.008,8.86417 -1.45572,9.24905 -0.53209,0.14148 -0.8212,0.40345 -0.8785,0.7953 -0.0854,0.58425 -0.0852,0.58455 4.09742,0.5116 3.48556,-0.0608 4.19618,-0.13969 4.26021,-0.47336 0.0481,-0.25047 -0.34733,-0.59782 -1.05524,-0.92656 l -1.13171,-0.52555 v -3.96875 -3.96875 l 0.81442,-0.0791 c 0.7455,-0.0728 0.91205,0.0727 1.96991,1.71979 3.89679,6.06723 5.04553,7.67845 5.67872,7.96695 0.37952,0.17293 1.57729,0.3142 2.66185,0.3142 2.41383,0 2.55161,-0.35723 0.79324,-2.05517 -1.12501,-1.08635 -7.55251,-9.85096 -7.55251,-10.2986 0,-0.2936 4.77767,-5.76311 5.58105,-6.38927 0.35022,-0.27295 1.0236,-0.69482 1.49655,-0.93742 0.47294,-0.24258 0.8599,-0.61692 0.8599,-0.83147 0,-0.32514 -0.61664,-0.39016 -3.70417,-0.39016 -3.17037,0 -3.70417,0.0596 -3.70417,0.41083 0,0.22571 0.40859,0.58097 0.90796,0.78962 0.49937,0.20865 0.97493,0.48767 1.05678,0.62011 0.27849,0.45059 -3.78525,6.00716 -4.93923,6.7536 -0.32846,0.21247 -0.92481,0.46643 -1.32499,0.56482 l -0.7276,0.1788 v -3.74189 -3.74241 l 1.19062,-0.51056 c 0.67261,-0.28832 1.19063,-0.6867 1.19063,-0.91622 0,-0.34839 -0.60322,-0.4067 -4.23333,-0.4067 z m 19.31458,1.30897 v 1.06557 1.06505 h 4.11706 4.11706 l -0.0822,-0.99219 -0.0822,-0.99219 -4.03489,-0.0729 z m 36.7962,3.9827 c -0.49247,0 -4.39814,0.56032 -4.86275,0.69763 -0.75081,0.2219 -0.40827,0.94419 0.6103,1.28675 l 0.92604,0.3116 0.0713,5.75056 0.0713,5.75055 -1.0635,0.41755 c -0.70736,0.27786 -1.0635,0.58166 -1.0635,0.90692 0,0.45308 0.28101,0.48886 3.82095,0.48886 2.36871,0 3.88566,-0.10473 3.99149,-0.27595 0.24466,-0.39587 -0.30834,-0.96536 -1.13998,-1.17409 -0.39275,-0.0986 -0.80269,-0.3185 -0.91106,-0.48886 -0.10838,-0.17036 -0.1988,-3.31639 -0.20102,-6.99079 -0.003,-3.92711 -0.10533,-6.68073 -0.2496,-6.68073 z m 22.97948,0 c -0.37222,0 -3.9282,0.51561 -4.69377,0.68058 -0.89461,0.19277 -0.62169,0.9332 0.48059,1.3038 1.18623,0.39882 1.20992,0.54436 1.11311,6.81353 l -0.0775,5.01158 -1.04696,0.41135 c -0.98142,0.38551 -1.28098,0.80314 -0.87075,1.21336 0.097,0.097 1.8234,0.17622 3.83646,0.17622 3.43128,0 3.66077,-0.0318 3.66077,-0.50747 0,-0.32371 -0.35967,-0.68285 -0.99271,-0.99218 l -0.99219,-0.48473 -0.0708,-6.81302 c -0.0466,-4.50167 -0.16415,-6.81302 -0.34623,-6.81302 z m -110.98392,0.0212 c -0.82823,0.002 -1.28299,0.15673 -2.17507,0.60875 -1.65636,0.83935 -1.81229,0.8493 -2.00142,0.12609 -0.139,-0.53156 -0.25753,-0.5559 -1.89033,-0.38861 -2.74207,0.28093 -3.34895,0.44893 -3.26078,0.9033 0.0433,0.22303 0.43574,0.52258 0.8723,0.6656 0.43657,0.14302 0.88114,0.39079 0.98805,0.55087 0.25533,0.38231 0.25277,10.78265 -0.003,11.18433 -0.10837,0.17036 -0.51831,0.39028 -0.91106,0.48886 -0.39275,0.0986 -0.84832,0.34084 -1.01234,0.53847 -0.64503,0.77721 0.0207,0.92657 3.79925,0.85266 3.16922,-0.062 3.75925,-0.13789 3.82716,-0.49196 0.0533,-0.2778 -0.27906,-0.56001 -0.98857,-0.83871 l -1.06918,-0.41961 v -5.03587 c 0,-3.26416 0.10803,-5.27356 0.30747,-5.71128 0.69381,-1.52275 4.0496,-1.4296 4.85862,0.13487 0.486,0.9398 0.83026,6.74161 0.53847,9.07697 -0.17874,1.43063 -0.25497,1.56421 -1.09606,1.91564 -0.60483,0.25271 -0.90434,0.55407 -0.90434,0.91054 0,0.5126 0.14303,0.53002 3.7667,0.45941 3.1137,-0.0607 3.78072,-0.14288 3.84421,-0.47388 0.048,-0.25045 -0.34739,-0.59733 -1.05524,-0.92604 l -1.13171,-0.52555 -0.13229,-5.56865 c -0.11231,-4.72773 -0.20273,-5.67649 -0.59893,-6.28024 -0.74693,-1.13818 -1.66099,-1.5741 -3.58893,-1.71204 -0.3891,-0.0278 -0.70681,-0.0446 -0.98288,-0.0439 z m 101.94416,0.004 c -0.95273,0.064 -2.05593,0.48707 -2.91868,1.24385 -0.51607,0.45268 -0.87301,0.2434 -1.03612,-0.60771 -0.0558,-0.29104 -0.27585,-0.50981 -0.48886,-0.48628 -3.23722,0.35746 -4.75268,0.71919 -4.75268,1.13378 0,0.30022 0.33047,0.53158 0.99219,0.69505 l 0.99219,0.24495 0.0749,5.29167 c 0.0412,2.91041 0.0114,5.5507 -0.0662,5.86682 -0.089,0.36273 -0.4826,0.68715 -1.06712,0.88005 -0.6313,0.20835 -0.92604,0.4677 -0.92604,0.81442 0,0.4792 0.22977,0.5085 3.96875,0.5085 3.73899,0 3.96875,-0.0293 3.96875,-0.5085 0,-0.34692 -0.29512,-0.60604 -0.92811,-0.81494 -0.51043,-0.16846 -1.04621,-0.52703 -1.19062,-0.79685 -0.14558,-0.27204 -0.26252,-2.59733 -0.26252,-5.21983 0,-5.47979 0.0855,-5.74436 1.85622,-5.74436 0.8959,0 1.22654,0.14105 1.6893,0.72141 0.31644,0.39687 0.70501,0.7214 0.86352,0.7214 0.40672,0 1.4437,-2.51943 1.24746,-3.03082 -0.26144,-0.68133 -1.06368,-0.97656 -2.01641,-0.91261 z m -46.28968,0.003 c -4.10774,-0.026 -6.64314,2.06367 -7.3825,6.10402 -0.25127,1.37308 -0.25316,2.18751 -0.01,3.66075 0.50658,3.06747 1.77163,4.91636 3.90828,5.71077 1.49423,0.55555 4.94414,0.35916 6.33864,-0.3607 1.27925,-0.66038 2.58529,-2.07415 3.18223,-3.44476 0.54682,-1.25552 0.79541,-5.88215 0.39532,-7.3582 -0.71335,-2.63185 -2.5836,-4.06319 -5.58983,-4.27829 -0.28777,-0.0206 -0.56848,-0.0319 -0.84233,-0.0336 z m -41.15563,0.0904 c -0.81327,-0.0194 -3.54893,0.28636 -4.76405,0.55449 -0.9617,0.21221 -0.68628,0.80825 0.60048,1.29966 l 1.19579,0.45682 -0.0713,5.59811 -0.0713,5.59811 -0.99167,0.52968 c -0.56527,0.30187 -0.99178,0.7282 -0.99219,0.99219 -5.3e-4,0.41971 0.35828,0.46302 3.83594,0.46302 3.55511,0 3.83646,-0.0357 3.83646,-0.48886 0,-0.32486 -0.35528,-0.6287 -1.05833,-0.90486 l -1.05834,-0.41547 v -6.75256 c 0,-3.76431 -0.10626,-6.81855 -0.24029,-6.90139 -0.0277,-0.0171 -0.105,-0.0262 -0.22118,-0.0289 z m -77.96837,0.016 c -1.95395,0.002 -2.60067,0.10877 -3.47679,0.57619 -1.62422,0.86653 -2.93653,2.47615 -3.44526,4.2261 -0.49327,1.69678 -0.39862,4.984 0.19585,6.80682 0.4516,1.38471 2.23403,3.2785 3.53208,3.75326 1.48919,0.54466 4.4878,0.35917 5.98052,-0.37 1.73225,-0.84618 2.7375,-1.73392 2.54144,-2.24483 -0.14785,-0.38529 -0.31742,-0.36155 -1.56579,0.21963 -2.16618,1.00846 -4.31528,0.82623 -5.72523,-0.48525 -0.93215,-0.86704 -1.62781,-2.40961 -1.62781,-3.60959 v -1.06919 h 4.3465 c 5.25474,0 5.31231,-0.0282 5.11339,-2.50631 -0.16726,-2.08368 -0.98004,-3.65205 -2.36833,-4.57078 -0.99785,-0.66035 -1.32277,-0.72777 -3.50057,-0.72605 z m 40.06526,0.0439 c -4.03154,0.46455 -5.02708,0.69121 -5.02708,1.14567 0,0.33152 0.3005,0.54684 0.99218,0.71004 l 0.99219,0.23409 0.13229,5.41414 c 0.13652,5.58775 0.30076,6.44124 1.42059,7.37061 1.24477,1.03307 4.29117,1.08891 6.24716,0.1142 v -5.1e-4 l 1.4211,-0.70797 0.38293,0.57568 c 0.34764,0.52356 0.60828,0.57619 2.86339,0.57619 2.2574,0 2.4815,-0.045 2.4815,-0.50023 0,-0.33688 -0.34589,-0.63892 -1.05833,-0.92398 l -1.05834,-0.42323 v -6.74945 -6.74895 l -1.12448,0.0289 c -0.61846,0.0157 -1.89839,0.16454 -2.84427,0.33073 -1.9007,0.33396 -2.28087,0.87044 -0.92604,1.30742 1.51547,0.48879 1.49302,0.39742 1.40457,5.75985 -0.0919,5.57355 -0.19593,5.89077 -2.02365,6.1836 -1.33597,0.21404 -2.41904,-0.14239 -3.067,-1.00924 -0.50495,-0.67554 -0.55744,-1.19432 -0.67954,-6.73292 -0.11302,-5.12642 -0.19011,-5.99375 -0.52917,-5.95468 z m 78.30323,1.46503 c 0.15255,-0.003 0.30772,0.009 0.46457,0.0341 2.38886,0.38765 3.33844,2.13143 3.33778,6.12779 -5.3e-4,2.96255 -0.35117,4.56281 -1.21853,5.5609 -0.77907,0.89649 -2.15948,1.09009 -3.36413,0.47129 -0.62852,-0.32286 -1.13777,-0.90096 -1.58492,-1.79886 -0.58671,-1.17815 -0.6591,-1.65643 -0.66146,-4.37182 -0.002,-2.38714 0.10215,-3.28187 0.48008,-4.12172 0.53632,-1.19181 1.47878,-1.88378 2.54661,-1.90169 z m -119.31365,0.032 c 1.55356,-0.0195 3.24149,1.39357 3.28352,3.40548 l 0.0238,1.13688 -2.84892,0.0755 c -2.3997,0.0633 -2.87489,0.009 -3.01015,-0.34365 -0.27294,-0.71128 0.0884,-2.44551 0.68368,-3.28146 0.48355,-0.67908 1.16194,-0.98384 1.8681,-0.9927 z m 68.2625,21.60798 c -1.94028,0 -2.38125,0.0735 -2.38125,0.39688 0,0.32338 0.44097,0.39687 2.38125,0.39687 1.94028,0 2.38125,-0.0735 2.38125,-0.39687 0,-0.32338 -0.44097,-0.39688 -2.38125,-0.39688 z m -51.32916,2.85099 v 4.1305 4.13101 h 0.66145 c 0.6384,0 0.66146,-0.0606 0.66146,-1.73736 v -1.73736 l 0.72761,0.0837 c 0.6399,0.0736 0.78985,0.28304 1.24643,1.73736 0.44542,1.41874 0.60846,1.65364 1.14774,1.65364 0.59082,0 0.61825,-0.0675 0.45216,-1.12448 -0.0972,-0.61845 -0.37545,-1.54119 -0.61856,-2.05052 -0.4158,-0.87114 -0.41498,-0.95349 0.0207,-1.38906 0.60981,-0.60962 0.59219,-2.09722 -0.0341,-2.87062 -0.41666,-0.51455 -0.80292,-0.63119 -2.38125,-0.72037 z m 71.96666,0.0243 v 4.11861 4.11861 h 0.66146 0.66146 v -3.83645 c 0,-2.11005 0.0298,-3.92576 0.0661,-4.0349 0.0364,-0.10914 -0.26127,-0.2361 -0.66146,-0.28215 z m 46.3982,0.003 c -0.70351,0.0102 -1.40103,0.26383 -1.94561,0.75964 -1.01084,0.9203 -1.44799,2.92179 -1.04283,4.77284 0.44532,2.03454 1.20661,2.68078 3.17345,2.69389 0.97793,0.007 1.33965,-0.13046 1.90324,-0.71985 1.55403,-1.62518 1.49484,-5.45762 -0.1049,-6.80372 -0.57009,-0.4797 -1.27983,-0.71297 -1.98335,-0.7028 z m -68.04029,0.003 -1.25677,3.78529 c -0.69102,2.08179 -1.31077,3.93362 -1.37769,4.11551 -0.0779,0.21185 0.12937,0.33073 0.57722,0.33073 0.57565,0 0.78836,-0.20824 1.20458,-1.17925 0.5384,-1.25603 0.48394,-1.23837 2.93987,-0.9555 0.0861,0.01 0.29896,0.49434 0.47336,1.07642 0.25825,0.86196 0.43783,1.05833 0.9679,1.05833 0.35796,0 0.64704,-0.14883 0.64234,-0.33073 -0.005,-0.18189 -0.58243,-1.9976 -1.28416,-4.03489 -1.24277,-3.60805 -1.29704,-3.70597 -2.08153,-3.78478 z m -10.69443,5.1e-4 -0.83096,0.0806 -0.83148,0.0806 -0.0729,4.0349 -0.0729,4.03489 h 0.66817 0.66818 l 0.0176,-2.84427 0.0176,-2.84427 0.97462,2.77813 c 0.88645,2.52706 1.03438,2.77812 1.63607,2.77812 0.60168,0 0.74962,-0.25106 1.63608,-2.77812 l 0.97462,-2.77813 0.0176,2.84427 0.0176,2.84427 h 0.66145 0.66146 v -4.10104 -4.10104 H 225.803 c -0.95846,0 -0.91724,-0.0777 -2.58331,4.82865 -0.18531,0.5457 -0.40223,0.99141 -0.48214,0.99063 -0.0799,-7.9e-4 -0.60434,-1.31689 -1.16582,-2.92488 z m -12.64264,0.008 v 4.12947 4.12894 l 0.70951,-0.0837 c 0.69881,-0.0825 0.70807,-0.11047 0.64286,-1.86966 l -0.0661,-1.78593 h 1.47381 c 1.29706,0 1.4733,-0.0634 1.4733,-0.52917 0,-0.46503 -0.17639,-0.52917 -1.45521,-0.52917 h -1.45521 v -1.05833 -1.05833 h 1.60559 c 1.51404,0 1.60107,-0.0341 1.52135,-0.59532 -0.0788,-0.55501 -0.23196,-0.60015 -2.26704,-0.67179 z m -28.83959,0.002 -2.57968,0.076 c -2.44722,0.0718 -2.58424,0.10603 -2.66444,0.67076 -0.0758,0.53369 0.0269,0.59532 0.99219,0.59532 h 1.07693 v 3.43958 3.43958 h 0.66146 0.66146 v -3.43958 -3.43958 h 0.92604 c 0.81491,0 0.92604,-0.0802 0.92604,-0.67076 z m 162.71875,0 -2.57968,0.076 c -2.44721,0.0718 -2.58422,0.10603 -2.66444,0.67076 -0.0741,0.52197 0.0318,0.59532 0.85989,0.59532 h 0.94465 v 3.26336 c 0,1.79476 0.0792,3.34258 0.17622,3.43959 0.097,0.097 0.45418,0.17621 0.79375,0.17621 0.6151,0 0.61753,-0.0126 0.61753,-3.43958 v -3.43958 h 0.92604 c 0.81492,0 0.92604,-0.0802 0.92604,-0.67076 z m -194.96226,0.0191 -0.99839,3.03289 c -0.54895,1.66793 -1.06272,2.96916 -1.14205,2.89181 -0.0793,-0.0773 -0.5709,-1.41203 -1.09244,-2.96622 l -0.94826,-2.82619 h -0.90382 -0.90382 l -0.0729,4.0349 -0.0734,4.03489 h 0.66869 0.66818 l 0.0139,-2.84427 0.0139,-2.84427 1.00046,2.77813 c 0.86738,2.40782 1.0859,2.78853 1.63969,2.8546 0.58911,0.0703 0.7115,-0.13484 1.56528,-2.62568 l 0.92604,-2.70164 0.13229,2.62568 c 0.12469,2.47467 0.16648,2.63022 0.72761,2.70991 l 0.59531,0.0848 v -4.11964 -4.11965 h -0.90847 z m 8.6956,0 v 4.10104 c 0,3.92465 0.0228,4.10104 0.52916,4.10104 0.4969,0 0.53023,-0.18151 0.54467,-2.97656 l 0.015,-2.97656 1.50637,2.98845 c 1.45194,2.881 1.53433,2.98543 2.2996,2.91041 l 0.79375,-0.078 v -3.96875 c 0,-3.91429 -0.008,-3.96959 -0.59531,-4.05298 -0.58652,-0.0833 -0.59568,-0.0403 -0.61082,2.91042 l -0.0155,2.99465 -1.50017,-2.97657 c -1.36871,-2.715 -1.56536,-2.97656 -2.23397,-2.97656 z m 8.46666,0 v 4.10104 4.10104 h 0.66146 0.66146 v -4.10104 -4.10104 h -0.66146 z m 6.63526,0 c -1.68587,0 -2.54903,0.40089 -2.95021,1.36943 -0.46063,1.11206 -0.0273,1.85018 1.79214,3.05252 1.70375,1.12593 2.0795,1.95295 1.12086,2.466 -0.55006,0.29439 -1.41962,0.24032 -2.43086,-0.15089 -0.36341,-0.1406 -0.46302,-0.0401 -0.46302,0.46664 0,0.91418 0.16186,0.99838 1.91668,0.99838 1.37558,0 1.65648,-0.0928 2.33681,-0.77308 1.36283,-1.36282 0.95749,-2.48103 -1.47227,-4.06073 -0.72577,-0.47186 -1.3591,-1.06402 -1.40766,-1.3162 -0.13407,-0.69614 1.02576,-1.13111 2.05724,-0.77153 0.67029,0.23366 0.85458,0.21491 0.97513,-0.0992 0.31866,-0.83043 -0.11923,-1.18132 -1.47484,-1.18132 z m 17.25372,0 c -0.33306,0 -0.60564,0.13367 -0.60564,0.29714 0,0.16347 0.53577,1.18016 1.19062,2.25878 1.10941,1.82735 1.19063,2.08637 1.19063,3.80338 0,1.78916 0.0192,1.84278 0.66145,1.84278 0.6423,0 0.66146,-0.0533 0.66146,-1.84433 0,-1.71129 0.086,-1.98971 1.19063,-3.85816 0.65485,-1.10762 1.19062,-2.12321 1.19062,-2.25671 0,-0.13349 -0.28007,-0.24288 -0.62218,-0.24288 -0.46932,0 -0.84751,0.36318 -1.54048,1.4795 l -0.91829,1.47949 -0.89658,-1.47949 c -0.66919,-1.10416 -1.05032,-1.4795 -1.50224,-1.4795 z m 14.56914,0 c -2.49762,0 -3.86851,2.72363 -2.9807,5.92109 0.44181,1.59118 1.29387,2.28099 2.81637,2.28099 0.72813,0 1.52912,-0.17727 1.86552,-0.41289 0.95912,-0.6718 1.38028,-1.79716 1.38028,-3.68815 0,-2.78638 -0.98794,-4.10104 -3.08147,-4.10104 z m 43.29813,0 v 4.10104 4.10104 h 0.66146 c 0.63771,0 0.66146,-0.0617 0.66146,-1.71979 0,-1.30823 0.0897,-1.71979 0.37517,-1.71979 0.87264,0 1.22363,0.40244 1.63763,1.87792 0.37679,1.34286 0.52573,1.56166 1.06453,1.56166 0.34463,0 0.62684,-0.0538 0.62684,-0.11937 0,-0.59966 -0.65816,-3.04376 -0.93948,-3.48919 -0.31302,-0.49564 -0.29323,-0.62458 0.15864,-1.03353 0.59301,-0.53666 0.67444,-1.8745 0.15555,-2.55747 -0.49144,-0.64686 -1.58983,-1.00252 -3.09593,-1.00252 z m 23.54792,0 v 4.10104 4.10104 h 2.39934 c 2.33718,0 2.39745,-0.0155 2.3151,-0.59531 -0.0759,-0.53469 -0.25264,-0.60311 -1.73788,-0.67386 l -1.65364,-0.0791 v -1.17771 -1.17822 h 1.5875 c 1.4111,0 1.5875,-0.0588 1.5875,-0.52917 0,-0.47037 -0.1764,-0.52917 -1.5875,-0.52917 h -1.5875 v -1.05833 -1.05833 h 1.5875 c 1.51694,0 1.5875,-0.0294 1.5875,-0.66146 0,-0.65368 -0.0265,-0.66146 -2.24896,-0.66146 z m 6.4642,0 c -0.36611,0 -0.64337,0.15509 -0.64337,0.35967 0,0.27625 1.60311,5.08098 2.50631,7.51168 0.0676,0.1819 0.46648,0.33073 0.88677,0.33073 0.74876,0 0.79136,-0.08 2.11511,-3.98063 1.10427,-3.25392 1.28063,-4.00808 0.96429,-4.12947 -0.78014,-0.29936 -1.1111,0.17861 -1.98076,2.85978 -0.48831,1.50543 -0.95899,2.82489 -1.04593,2.93212 -0.0869,0.10722 -0.60844,-1.1727 -1.15859,-2.84427 -0.9113,-2.76885 -1.05747,-3.03961 -1.64383,-3.03961 z m 7.8233,0 v 4.11138 4.11137 l 2.3151,-0.0765 c 2.11323,-0.0698 2.31511,-0.12261 2.31511,-0.60564 0,-0.46432 -0.20265,-0.5386 -1.65365,-0.60772 l -1.65364,-0.0791 v -1.17771 -1.17822 h 1.5875 c 1.4111,0 1.5875,-0.0588 1.5875,-0.52917 0,-0.47037 -0.1764,-0.52917 -1.5875,-0.52917 h -1.5875 v -1.05833 -1.05833 h 1.5875 c 1.51694,0 1.5875,-0.0294 1.5875,-0.66146 0,-0.65368 -0.0265,-0.66146 -2.24896,-0.66146 z m 28.04583,0 v 4.11965 4.11964 l 0.59532,-0.0848 c 0.56038,-0.0796 0.60309,-0.23688 0.7276,-2.67839 l 0.13229,-2.59415 0.90227,2.67373 c 0.84405,2.50108 0.94482,2.66813 1.56476,2.59364 0.58357,-0.0701 0.7822,-0.41137 1.66347,-2.8577 l 1.00097,-2.77813 0.0139,2.86288 c 0.0138,2.81392 0.0241,2.86123 0.60927,2.77812 0.58714,-0.0834 0.59531,-0.1392 0.59531,-4.0535 v -3.96875 h -0.88883 -0.88884 l -1.00976,2.86856 c -0.55512,1.57763 -1.05299,2.91231 -1.10691,2.96623 -0.0539,0.0539 -0.54761,-1.26626 -1.09657,-2.93419 l -0.99787,-3.03289 h -0.90847 z m 10.58334,0 v 4.11138 4.11137 l 2.3151,-0.0765 c 2.11323,-0.0698 2.3151,-0.12261 2.3151,-0.60564 0,-0.46432 -0.20264,-0.5386 -1.65364,-0.60772 l -1.65365,-0.0791 v -1.17771 -1.17822 h 1.5875 c 1.4111,0 1.5875,-0.0588 1.5875,-0.52917 0,-0.47037 -0.1764,-0.52917 -1.5875,-0.52917 h -1.5875 v -1.05833 -1.05833 h 1.5875 c 1.51694,0 1.5875,-0.0294 1.5875,-0.66146 0,-0.65368 -0.0265,-0.66146 -2.24896,-0.66146 z m 6.90552,0 -0.0796,3.99201 c -0.0437,2.19536 -0.0245,4.04555 0.0424,4.11189 0.0668,0.0663 0.34893,0.0859 0.62735,0.0434 0.46402,-0.0709 0.50542,-0.31997 0.49455,-2.98793 l -0.0119,-2.91042 1.50068,2.98845 c 1.44753,2.8819 1.52943,2.98546 2.29495,2.91041 l 0.79375,-0.078 v -3.96875 c 0,-3.89595 -0.0107,-3.97013 -0.58601,-4.05195 -0.57036,-0.0811 -0.58821,-0.006 -0.66145,2.77813 l -0.0754,2.86132 -1.44953,-2.84427 c -1.30673,-2.56434 -1.52005,-2.84427 -2.16937,-2.84427 z m -88.715,0.016 c -0.62772,-0.008 -1.28358,0.11471 -1.77922,0.37104 -1.92694,0.99646 -2.17507,5.85532 -0.37155,7.27397 0.85708,0.67419 2.87074,0.73277 3.76049,0.10956 0.86022,-0.60252 1.35392,-1.94044 1.35392,-3.66955 0,-1.7291 -0.4937,-3.06701 -1.35392,-3.66954 -0.38248,-0.2679 -0.982,-0.4072 -1.60972,-0.41548 z m 22.45393,0.0372 -1.36633,0.0791 -0.0739,3.69177 c -0.0407,2.03027 -0.0151,3.84598 0.0574,4.03489 0.1797,0.46831 2.5627,0.44745 3.71141,-0.0325 1.2233,-0.51113 1.76216,-1.65022 1.76216,-3.72536 0,-2.98685 -1.2393,-4.21306 -4.0907,-4.04781 z m -111.433,0.0791 -0.0734,4.0535 -0.0729,4.05298 0.73432,-0.0842 0.73484,-0.0847 v -3.96875 -3.96875 h -0.66146 z m 139.63386,0 c -0.32743,0 -0.59531,0.0893 -0.59531,0.19844 v 4.0349 3.83645 h 2.11666 c 2.08139,0 2.11667,-0.011 2.11667,-0.66145 0,-0.62494 -0.08,-0.66146 -1.44746,-0.66146 h -1.44745 l -0.0739,-3.37344 c -0.0724,-3.30005 -0.0868,-3.37344 -0.66921,-3.37344 z m 13.82448,0 -0.0729,4.0349 -0.0734,4.03489 h 0.66818 c 0.64479,0 0.66869,-0.0592 0.66869,-1.68516 v -1.68517 l 1.22008,-0.13798 c 1.60176,-0.18054 2.33991,-0.90983 2.33991,-2.31252 0,-1.65246 -0.72578,-2.20036 -2.95021,-2.22725 z m -64.71388,0.9834 c 0.53446,-0.0699 1.04447,0.27316 1.34359,0.99529 0.49486,1.19474 0.2414,4.20387 -0.39326,4.66794 -0.54823,0.40087 -1.16537,0.46276 -1.61541,0.16226 -0.5944,-0.3969 -0.89917,-1.39425 -0.89917,-2.94039 0,-1.28349 0.11869,-1.72817 0.61599,-2.30632 0.2981,-0.34656 0.62758,-0.53683 0.94826,-0.57878 z m 59.20104,0.0264 c 1.06747,0.0762 1.82231,1.61159 1.60765,3.51606 -0.23123,2.05149 -1.2751,2.99567 -2.38228,2.15491 -1.41434,-1.074 -1.19698,-5.13634 0.30024,-5.61154 0.16334,-0.0519 0.32189,-0.0703 0.47439,-0.0594 z m -97.01424,0.005 c 0.64717,-0.0234 1.31464,0.48309 1.59784,1.53479 0.77323,2.87157 -0.98548,5.63187 -2.51303,3.94395 -0.54298,-0.59999 -0.81537,-2.46703 -0.55914,-3.83284 0.20059,-1.06922 0.82716,-1.62247 1.47433,-1.6459 z m -19.36677,0.17622 c 1.37593,0 1.86285,1.21657 0.78806,1.96939 -1.09724,0.76853 -1.52859,0.54875 -1.52859,-0.77877 0,-1.12763 0.0389,-1.19062 0.74053,-1.19062 z m 64.82291,0 c 0.79056,0 1.37615,0.41676 1.37615,0.97927 0,0.52535 -0.99277,1.40198 -1.5875,1.40198 -0.45077,0 -0.52917,-0.17639 -0.52917,-1.19063 0,-1.12763 0.0389,-1.19062 0.74052,-1.19062 z m 15.13448,0 h 0.75241 c 1.35459,0 2.11531,1.60689 1.75906,3.71553 -0.22033,1.30411 -0.72691,1.84072 -1.73684,1.84072 h -0.77463 v -2.77813 z m 43.86761,0 c 1.1449,0 1.73144,0.88418 1.17098,1.76526 -0.24681,0.38799 -1.46585,0.70922 -1.72134,0.45372 -0.10477,-0.10476 -0.19017,-0.64674 -0.19017,-1.20457 0,-0.93444 0.058,-1.01441 0.74053,-1.01441 z m -74.69157,0.51004 0.4284,1.46503 0.42788,1.46451 h -0.91984 c -0.86219,0 -0.90893,-0.0437 -0.74466,-0.69815 0.0964,-0.38411 0.31793,-1.04354 0.49196,-1.46502 z"
         sodipodi:nodetypes="sccscscsscssssccsssssccccssccsccccscscsssscssccscsccssssssscssscccssssscsssccsssssssssssscssssssccsccccscccccsscccssssssssssssssccsssssssssssssssssscscsccccsssssscccssscccsssscssssssscssssssssscssssssssccccssssssssssssscccccscccccccccccsscccccssssscssssscccssscccssscssssscssssccssssssssscsscsscsscsccssssssssssssscccscsssssccssccccccssccsssscssssssssscsssccsscssccccsscccccssssssccscsssscssscccccsccssssscccsscssssssssccccccscscssscssscccsscsscsccccccccccccsccccccccsssccccccccssscccscccccsscccccccsscccsscsssscsscccscccccccccccsscscccccccsscccccssccccccccccccccsscsssscssscssssssssssscccssssssscccssssssssssccccssccccssscccssscsssssssssscccssccccssscccssccccccscsscccssccccscccccccssccccssscccssccccscsccccsscccscccssssccccssscccccccccccssccsssccscccssccsscsssssssssscsssssssssssssssscssscccssssscccsscc" /></g></g></svg>
